<svg version="1.1" viewBox="0.0 0.0 600.0 371.0" fill="none" stroke="none" stroke-linecap="square" stroke-miterlimit="10" width="600" height="371" xmlns:xlink="http://www.w3.org/1999/xlink" xmlns="http://www.w3.org/2000/svg"><path fill="#ffffff" d="M0 0L600.0 0L600.0 371.0L0 371.0L0 0Z" fill-rule="nonzero"/><path stroke="#cccccc" stroke-width="1.0" stroke-linecap="butt" d="M99.5 89.5L99.5 298.5" fill-rule="nonzero"/><path stroke="#cccccc" stroke-width="1.0" stroke-linecap="butt" d="M195.5 89.5L195.5 298.5" fill-rule="nonzero"/><path stroke="#cccccc" stroke-width="1.0" stroke-linecap="butt" d="M292.5 89.5L292.5 298.5" fill-rule="nonzero"/><path stroke="#cccccc" stroke-width="1.0" stroke-linecap="butt" d="M388.5 89.5L388.5 298.5" fill-rule="nonzero"/><path stroke="#cccccc" stroke-width="1.0" stroke-linecap="butt" d="M485.5 89.5L485.5 298.5" fill-rule="nonzero"/><path stroke="#cccccc" stroke-width="1.0" stroke-linecap="butt" d="M581.5 89.5L581.5 298.5" fill-rule="nonzero"/><path stroke="#cccccc" stroke-width="1.0" stroke-linecap="butt" d="M99.5 257.5L581.5 257.5" fill-rule="nonzero"/><path stroke="#cccccc" stroke-width="1.0" stroke-linecap="butt" d="M99.5 227.5L581.5 227.5" fill-rule="nonzero"/><path stroke="#cccccc" stroke-width="1.0" stroke-linecap="butt" d="M99.5 155.5L581.5 155.5" fill-rule="nonzero"/><path stroke="#cccccc" stroke-width="1.0" stroke-linecap="butt" d="M99.5 125.5L581.5 125.5" fill-rule="nonzero"/><clipPath id="id_0"><path d="M99.55 89.78333L581.45 89.78333L581.45 298.45L99.55 298.45L99.55 89.78333Z" clip-rule="nonzero"/></clipPath><path stroke="#4285f4" stroke-width="2.0" stroke-linecap="butt" clip-path="url(#id_0)" d="M99.55 283.2852L195.93 282.84668L292.31 279.9513L388.69 257.7342L485.07 187.10338L581.45 89.78333" fill-rule="nonzero"/><path stroke="#db4437" stroke-width="2.0" stroke-linecap="butt" clip-path="url(#id_0)" d="M99.55 283.41125L195.93 282.2738L292.31 282.19696L388.69 275.4573L485.07 240.39348L581.45 156.0006" fill-rule="nonzero"/><path fill="#000000" fill-opacity="0.0" clip-path="url(#id_0)" d="M102.55 283.2852C102.55 284.94202 101.206856 286.2852 99.55 286.2852C97.89314 286.2852 96.55 284.94202 96.55 283.2852C96.55 281.62833 97.89314 280.2852 99.55 280.2852C101.206856 280.2852 102.55 281.62833 102.55 283.2852Z" fill-rule="nonzero"/><path fill="#000000" fill-opacity="0.0" clip-path="url(#id_0)" d="M198.93 282.84668C198.93 284.50354 197.58685 285.84668 195.93 285.84668C194.27315 285.84668 192.93 284.50354 192.93 282.84668C192.93 281.18982 194.27315 279.84668 195.93 279.84668C197.58685 279.84668 198.93 281.18982 198.93 282.84668Z" fill-rule="nonzero"/><path fill="#000000" fill-opacity="0.0" clip-path="url(#id_0)" d="M295.31 279.9513C295.31 281.60815 293.96686 282.9513 292.31 282.9513C290.65314 282.9513 289.31 281.60815 289.31 279.9513C289.31 278.29446 290.65314 276.9513 292.31 276.9513C293.96686 276.9513 295.31 278.29446 295.31 279.9513Z" fill-rule="nonzero"/><path fill="#000000" fill-opacity="0.0" clip-path="url(#id_0)" d="M391.69 257.7342C391.69 259.39102 390.34686 260.7342 388.69 260.7342C387.03314 260.7342 385.69 259.39102 385.69 257.7342C385.69 256.07733 387.03314 254.73418 388.69 254.73418C390.34686 254.73418 391.69 256.07733 391.69 257.7342Z" fill-rule="nonzero"/><path fill="#000000" fill-opacity="0.0" clip-path="url(#id_0)" d="M488.07 187.10338C488.07 188.76024 486.72687 190.10338 485.07 190.10338C483.41315 190.10338 482.07 188.76024 482.07 187.10338C482.07 185.44653 483.41315 184.10338 485.07 184.10338C486.72687 184.10338 488.07 185.44653 488.07 187.10338Z" fill-rule="nonzero"/><path fill="#000000" fill-opacity="0.0" clip-path="url(#id_0)" d="M584.45 89.78333C584.45 91.440186 583.1069 92.78333 581.45 92.78333C579.79315 92.78333 578.45 91.440186 578.45 89.78333C578.45 88.12648 579.79315 86.78333 581.45 86.78333C583.1069 86.78333 584.45 88.12648 584.45 89.78333Z" fill-rule="nonzero"/><path fill="#000000" fill-opacity="0.0" clip-path="url(#id_0)" d="M102.55 283.41125C102.55 285.0681 101.206856 286.41125 99.55 286.41125C97.89314 286.41125 96.55 285.0681 96.55 283.41125C96.55 281.7544 97.89314 280.41125 99.55 280.41125C101.206856 280.41125 102.55 281.7544 102.55 283.41125Z" fill-rule="nonzero"/><path fill="#000000" fill-opacity="0.0" clip-path="url(#id_0)" d="M198.93 282.2738C198.93 283.93066 197.58685 285.2738 195.93 285.2738C194.27315 285.2738 192.93 283.93066 192.93 282.2738C192.93 280.61694 194.27315 279.2738 195.93 279.2738C197.58685 279.2738 198.93 280.61694 198.93 282.2738Z" fill-rule="nonzero"/><path fill="#000000" fill-opacity="0.0" clip-path="url(#id_0)" d="M295.31 282.19696C295.31 283.8538 293.96686 285.19696 292.31 285.19696C290.65314 285.19696 289.31 283.8538 289.31 282.19696C289.31 280.5401 290.65314 279.19696 292.31 279.19696C293.96686 279.19696 295.31 280.5401 295.31 282.19696Z" fill-rule="nonzero"/><path fill="#000000" fill-opacity="0.0" clip-path="url(#id_0)" d="M391.69 275.4573C391.69 277.11417 390.34686 278.4573 388.69 278.4573C387.03314 278.4573 385.69 277.11417 385.69 275.4573C385.69 273.80045 387.03314 272.4573 388.69 272.4573C390.34686 272.4573 391.69 273.80045 391.69 275.4573Z" fill-rule="nonzero"/><path fill="#000000" fill-opacity="0.0" clip-path="url(#id_0)" d="M488.07 240.39348C488.07 242.05034 486.72687 243.39348 485.07 243.39348C483.41315 243.39348 482.07 242.05034 482.07 240.39348C482.07 238.73663 483.41315 237.39348 485.07 237.39348C486.72687 237.39348 488.07 238.73663 488.07 240.39348Z" fill-rule="nonzero"/><path fill="#000000" fill-opacity="0.0" clip-path="url(#id_0)" d="M584.45 156.0006C584.45 157.65746 583.1069 159.0006 581.45 159.0006C579.79315 159.0006 578.45 157.65746 578.45 156.0006C578.45 154.34373 579.79315 153.0006 581.45 153.0006C583.1069 153.0006 584.45 154.34373 584.45 156.0006Z" fill-rule="nonzero"/><path fill="#424242" d="M282.54688 349.45L281.42188 349.45L277.125 342.8719L277.125 349.45L275.98438 349.45L275.98438 340.91876L277.125 340.91876L281.42188 347.52814L281.42188 340.91876L282.54688 340.91876L282.54688 349.45ZM288.73438 348.825Q288.10938 349.575 286.875 349.575Q285.85938 349.575 285.32812 348.98126Q284.79688 348.3875 284.79688 347.23126L284.79688 343.10626L285.875 343.10626L285.875 347.2Q285.875 348.65314 287.04688 348.65314Q288.29688 348.65314 288.70312 347.71564L288.70312 343.10626L289.79688 343.10626L289.79688 349.45L288.76562 349.45L288.73438 348.825ZM292.84375 343.10626L292.875 343.8094Q293.5625 342.9969 294.75 342.9969Q296.07812 342.9969 296.5625 344.0125Q296.875 343.5594 297.375 343.27814Q297.89062 342.9969 298.57812 342.9969Q300.67188 342.9969 300.70312 345.2L300.70312 349.45L299.625 349.45L299.625 345.2625Q299.625 344.59064 299.3125 344.2625Q299.0 343.91876 298.26562 343.91876Q297.65625 343.91876 297.25 344.27814Q296.85938 344.6375 296.79688 345.2469L296.79688 349.45L295.71875 349.45L295.71875 345.29376Q295.71875 343.91876 294.35938 343.91876Q293.29688 343.91876 292.90625 344.825L292.90625 349.45L291.8125 349.45L291.8125 343.10626L292.84375 343.10626ZM308.1875 346.35626Q308.1875 347.8094 307.51562 348.7Q306.85938 349.575 305.73438 349.575Q304.53125 349.575 303.875 348.71564L303.8125 349.45L302.82812 349.45L302.82812 340.45L303.90625 340.45L303.90625 343.8094Q304.5625 342.9969 305.71875 342.9969Q306.875 342.9969 307.53125 343.8719Q308.1875 344.73126 308.1875 346.2625L308.1875 346.35626ZM307.10938 346.23126Q307.10938 345.1219 306.67188 344.52814Q306.25 343.91876 305.45312 343.91876Q304.375 343.91876 303.90625 344.90314L303.90625 347.65314Q304.40625 348.65314 305.45312 348.65314Q306.23438 348.65314 306.67188 348.04376Q307.10938 347.4344 307.10938 346.23126ZM312.45312 349.575Q311.15625 349.575 310.34375 348.73126Q309.54688 347.8719 309.54688 346.45L309.54688 346.2625Q309.54688 345.3094 309.90625 344.575Q310.26562 343.825 310.90625 343.41876Q311.5625 342.9969 312.3125 342.9969Q313.54688 342.9969 314.23438 343.8094Q314.92188 344.6219 314.92188 346.1375L314.92188 346.59064L310.625 346.59064Q310.65625 347.52814 311.17188 348.10626Q311.70312 348.6844 312.51562 348.6844Q313.07812 348.6844 313.46875 348.45Q313.875 348.21564 314.1875 347.825L314.84375 348.34064Q314.04688 349.575 312.45312 349.575ZM312.3125 343.8875Q311.65625 343.8875 311.20312 344.3719Q310.76562 344.84064 310.67188 345.7L313.84375 345.7L313.84375 345.6219Q313.79688 344.79376 313.39062 344.34064Q313.0 343.8875 312.3125 343.8875ZM318.89062 344.075Q318.64062 344.04376 318.35938 344.04376Q317.28125 344.04376 316.90625 344.95L316.90625 349.45L315.82812 349.45L315.82812 343.10626L316.875 343.10626L316.89062 343.84064Q317.42188 342.9969 318.40625 342.9969Q318.71875 342.9969 318.89062 343.075L318.89062 344.075ZM322.53125 346.21564Q322.53125 345.29376 322.89062 344.54376Q323.26562 343.79376 323.92188 343.40314Q324.57812 342.9969 325.40625 342.9969Q326.70312 342.9969 327.5 343.8875Q328.3125 344.77814 328.3125 346.27814L328.3125 346.35626Q328.3125 347.27814 327.95312 348.0125Q327.59375 348.7469 326.9375 349.16876Q326.28125 349.575 325.42188 349.575Q324.14062 349.575 323.32812 348.6844Q322.53125 347.77814 322.53125 346.29376L322.53125 346.21564ZM323.625 346.35626Q323.625 347.40314 324.10938 348.04376Q324.60938 348.6844 325.42188 348.6844Q326.25 348.6844 326.73438 348.04376Q327.21875 347.3875 327.21875 346.21564Q327.21875 345.1844 326.71875 344.54376Q326.23438 343.8875 325.40625 343.8875Q324.60938 343.8875 324.10938 344.52814Q323.625 345.15314 323.625 346.35626ZM330.35938 349.45L330.35938 343.95L329.35938 343.95L329.35938 343.10626L330.35938 343.10626L330.35938 342.46564Q330.35938 341.4344 330.89062 340.8875Q331.4375 340.325 332.4375 340.325Q332.8125 340.325 333.1875 340.41876L333.125 341.3094Q332.84375 341.2469 332.54688 341.2469Q332.01562 341.2469 331.71875 341.5594Q331.4375 341.8719 331.4375 342.4344L331.4375 343.10626L332.79688 343.10626L332.79688 343.95L331.4375 343.95L331.4375 349.45L330.35938 349.45ZM338.20312 349.45L337.07812 349.45L337.07812 340.91876L338.20312 340.91876L338.20312 349.45ZM341.10938 346.10626L341.10938 349.45L339.98438 349.45L339.98438 340.91876L343.14062 340.91876Q344.53125 340.91876 345.32812 341.6375Q346.125 342.34064 346.125 343.52814Q346.125 344.7625 345.34375 345.4344Q344.57812 346.10626 343.125 346.10626L341.10938 346.10626ZM341.10938 345.1844L343.14062 345.1844Q344.04688 345.1844 344.51562 344.7625Q345.0 344.34064 345.0 343.54376Q345.0 342.77814 344.51562 342.325Q344.04688 341.85626 343.20312 341.84064L341.10938 341.84064L341.10938 345.1844ZM349.90625 347.98126L351.48438 343.10626L352.59375 343.10626L350.3125 349.45L349.48438 349.45L347.1875 343.10626L348.29688 343.10626L349.90625 347.98126ZM358.28125 346.59064L359.46875 346.59064L359.46875 347.46564L358.28125 347.46564L358.28125 349.45L357.20312 349.45L357.20312 347.46564L353.3125 347.46564L353.3125 346.825L357.125 340.91876L358.28125 340.91876L358.28125 346.59064ZM354.54688 346.59064L357.20312 346.59064L357.20312 342.40314L357.0625 342.6375L354.54688 346.59064ZM367.73438 349.45Q367.64062 349.2625 367.57812 348.77814Q366.82812 349.575 365.78125 349.575Q364.84375 349.575 364.23438 349.04376Q363.64062 348.5125 363.64062 347.6844Q363.64062 346.7 364.39062 346.15314Q365.14062 345.60626 366.51562 345.60626L367.5625 345.60626L367.5625 345.10626Q367.5625 344.54376 367.21875 344.21564Q366.89062 343.8719 366.21875 343.8719Q365.64062 343.8719 365.25 344.16876Q364.85938 344.45 364.85938 344.8719L363.76562 344.8719Q363.76562 344.3875 364.09375 343.95Q364.4375 343.5125 365.01562 343.2625Q365.59375 342.9969 366.28125 342.9969Q367.39062 342.9969 368.0 343.54376Q368.625 344.09064 368.65625 345.04376L368.65625 347.96564Q368.65625 348.84064 368.875 349.35626L368.875 349.45L367.73438 349.45ZM365.9375 348.6219Q366.45312 348.6219 366.90625 348.35626Q367.35938 348.09064 367.5625 347.66876L367.5625 346.3719L366.71875 346.3719Q364.71875 346.3719 364.71875 347.54376Q364.71875 348.04376 365.0625 348.34064Q365.40625 348.6219 365.9375 348.6219ZM370.5625 346.23126Q370.5625 344.7625 371.25 343.8875Q371.9375 342.9969 373.0625 342.9969Q374.17188 342.9969 374.82812 343.7469L374.82812 340.45L375.90625 340.45L375.90625 349.45L374.90625 349.45L374.85938 348.7625Q374.20312 349.575 373.04688 349.575Q371.95312 349.575 371.25 348.66876Q370.5625 347.7625 370.5625 346.3094L370.5625 346.23126ZM371.64062 346.35626Q371.64062 347.4344 372.07812 348.04376Q372.53125 348.65314 373.3125 348.65314Q374.34375 348.65314 374.82812 347.71564L374.82812 344.8094Q374.34375 343.91876 373.32812 343.91876Q372.53125 343.91876 372.07812 344.52814Q371.64062 345.1375 371.64062 346.35626ZM377.5625 346.23126Q377.5625 344.7625 378.25 343.8875Q378.9375 342.9969 380.0625 342.9969Q381.17188 342.9969 381.82812 343.7469L381.82812 340.45L382.90625 340.45L382.90625 349.45L381.90625 349.45L381.85938 348.7625Q381.20312 349.575 380.04688 349.575Q378.95312 349.575 378.25 348.66876Q377.5625 347.7625 377.5625 346.3094L377.5625 346.23126ZM378.64062 346.35626Q378.64062 347.4344 379.07812 348.04376Q379.53125 348.65314 380.3125 348.65314Q381.34375 348.65314 381.82812 347.71564L381.82812 344.8094Q381.34375 343.91876 380.32812 343.91876Q379.53125 343.91876 379.07812 344.52814Q378.64062 345.1375 378.64062 346.35626ZM387.89062 344.075Q387.64062 344.04376 387.35938 344.04376Q386.28125 344.04376 385.90625 344.95L385.90625 349.45L384.82812 349.45L384.82812 343.10626L385.875 343.10626L385.89062 343.84064Q386.42188 342.9969 387.40625 342.9969Q387.71875 342.9969 387.89062 343.075L387.89062 344.075ZM391.45312 349.575Q390.15625 349.575 389.34375 348.73126Q388.54688 347.8719 388.54688 346.45L388.54688 346.2625Q388.54688 345.3094 388.90625 344.575Q389.26562 343.825 389.90625 343.41876Q390.5625 342.9969 391.3125 342.9969Q392.54688 342.9969 393.23438 343.8094Q393.92188 344.6219 393.92188 346.1375L393.92188 346.59064L389.625 346.59064Q389.65625 347.52814 390.17188 348.10626Q390.70312 348.6844 391.51562 348.6844Q392.07812 348.6844 392.46875 348.45Q392.875 348.21564 393.1875 347.825L393.84375 348.34064Q393.04688 349.575 391.45312 349.575ZM391.3125 343.8875Q390.65625 343.8875 390.20312 344.3719Q389.76562 344.84064 389.67188 345.7L392.84375 345.7L392.84375 345.6219Q392.79688 344.79376 392.39062 344.34064Q392.0 343.8875 391.3125 343.8875ZM398.51562 347.7625Q398.51562 347.325 398.17188 347.09064Q397.84375 346.84064 397.01562 346.66876Q396.20312 346.4969 395.71875 346.2469Q395.23438 345.9969 395.0 345.66876Q394.78125 345.325 394.78125 344.85626Q394.78125 344.075 395.4375 343.54376Q396.09375 342.9969 397.125 342.9969Q398.20312 342.9969 398.85938 343.5594Q399.53125 344.10626 399.53125 344.96564L398.45312 344.96564Q398.45312 344.52814 398.0625 344.21564Q397.6875 343.8875 397.125 343.8875Q396.53125 343.8875 396.1875 344.15314Q395.85938 344.40314 395.85938 344.8094Q395.85938 345.2 396.17188 345.40314Q396.48438 345.60626 397.29688 345.79376Q398.10938 345.96564 398.60938 346.21564Q399.10938 346.46564 399.34375 346.825Q399.59375 347.1844 399.59375 347.6844Q399.59375 348.54376 398.90625 349.0594Q398.23438 349.575 397.15625 349.575Q396.39062 349.575 395.79688 349.3094Q395.21875 349.02814 394.89062 348.54376Q394.5625 348.0594 394.5625 347.4969L395.64062 347.4969Q395.67188 348.04376 396.07812 348.3719Q396.48438 348.6844 397.15625 348.6844Q397.76562 348.6844 398.14062 348.4344Q398.51562 348.1844 398.51562 347.7625ZM404.51562 347.7625Q404.51562 347.325 404.17188 347.09064Q403.84375 346.84064 403.01562 346.66876Q402.20312 346.4969 401.71875 346.2469Q401.23438 345.9969 401.0 345.66876Q400.78125 345.325 400.78125 344.85626Q400.78125 344.075 401.4375 343.54376Q402.09375 342.9969 403.125 342.9969Q404.20312 342.9969 404.85938 343.5594Q405.53125 344.10626 405.53125 344.96564L404.45312 344.96564Q404.45312 344.52814 404.0625 344.21564Q403.6875 343.8875 403.125 343.8875Q402.53125 343.8875 402.1875 344.15314Q401.85938 344.40314 401.85938 344.8094Q401.85938 345.2 402.17188 345.40314Q402.48438 345.60626 403.29688 345.79376Q404.10938 345.96564 404.60938 346.21564Q405.10938 346.46564 405.34375 346.825Q405.59375 347.1844 405.59375 347.6844Q405.59375 348.54376 404.90625 349.0594Q404.23438 349.575 403.15625 349.575Q402.39062 349.575 401.79688 349.3094Q401.21875 349.02814 400.89062 348.54376Q400.5625 348.0594 400.5625 347.4969L401.64062 347.4969Q401.67188 348.04376 402.07812 348.3719Q402.48438 348.6844 403.15625 348.6844Q403.76562 348.6844 404.14062 348.4344Q404.51562 348.1844 404.51562 347.7625Z" fill-rule="nonzero"/><path fill="#424242" d="M22.018763 232.92917L28.971888 230.1323L22.018763 227.35104L22.018763 225.8823L30.550013 225.8823L30.550013 227.0073L27.221888 227.0073L23.643763 226.89792L30.550013 229.71042L30.550013 230.5698L23.659388 233.36667L27.221888 233.2573L30.550013 233.2573L30.550013 234.3823L22.018763 234.3823L22.018763 232.92917ZM30.675013 221.91354Q30.675013 223.21042 29.831263 224.02292Q28.971888 224.8198 27.550013 224.8198L27.362513 224.8198Q26.409388 224.8198 25.675013 224.46042Q24.925013 224.10104 24.518763 223.46042Q24.096888 222.80417 24.096888 222.05417Q24.096888 220.8198 24.909388 220.1323Q25.721888 219.4448 27.237513 219.4448L27.690638 219.4448L27.690638 223.74167Q28.628138 223.71042 29.206263 223.1948Q29.784388 222.66354 29.784388 221.85104Q29.784388 221.28854 29.550013 220.89792Q29.315638 220.49167 28.925013 220.17917L29.440638 219.52292Q30.675013 220.3198 30.675013 221.91354ZM24.987513 222.05417Q24.987513 222.71042 25.471888 223.16354Q25.940638 223.60104 26.800013 223.6948L26.800013 220.52292L26.721888 220.52292Q25.893763 220.5698 25.440638 220.97604Q24.987513 221.36667 24.987513 222.05417ZM24.206263 217.52292L24.909388 217.49167Q24.096888 216.80417 24.096888 215.61667Q24.096888 214.28854 25.112513 213.80417Q24.659388 213.49167 24.378138 212.99167Q24.096888 212.47604 24.096888 211.78854Q24.096888 209.6948 26.300013 209.66354L30.550013 209.66354L30.550013 210.74167L26.362513 210.74167Q25.690638 210.74167 25.362513 211.05417Q25.018763 211.36667 25.018763 212.10104Q25.018763 212.71042 25.378138 213.11667Q25.737513 213.5073 26.346888 213.5698L30.550013 213.5698L30.550013 214.64792L26.393763 214.64792Q25.018763 214.64792 25.018763 216.0073Q25.018763 217.0698 25.925013 217.46042L30.550013 217.46042L30.550013 218.55417L24.206263 218.55417L24.206263 217.52292ZM27.315638 207.83542Q26.393763 207.83542 25.643763 207.47604Q24.893763 207.10104 24.503138 206.4448Q24.096888 205.78854 24.096888 204.96042Q24.096888 203.66354 24.987513 202.86667Q25.878138 202.05417 27.378138 202.05417L27.456263 202.05417Q28.378138 202.05417 29.112513 202.41354Q29.846888 202.77292 30.268763 203.42917Q30.675013 204.08542 30.675013 204.9448Q30.675013 206.22604 29.784388 207.03854Q28.878138 207.83542 27.393763 207.83542L27.315638 207.83542ZM27.456263 206.74167Q28.503138 206.74167 29.143763 206.2573Q29.784388 205.7573 29.784388 204.9448Q29.784388 204.11667 29.143763 203.6323Q28.487513 203.14792 27.315638 203.14792Q26.284388 203.14792 25.643763 203.64792Q24.987513 204.1323 24.987513 204.96042Q24.987513 205.7573 25.628138 206.2573Q26.253138 206.74167 27.456263 206.74167ZM25.175013 197.47604Q25.143763 197.72604 25.143763 198.0073Q25.143763 199.08542 26.050013 199.46042L30.550013 199.46042L30.550013 200.53854L24.206263 200.53854L24.206263 199.49167L24.940638 199.47604Q24.096888 198.9448 24.096888 197.96042Q24.096888 197.64792 24.175013 197.47604L25.175013 197.47604ZM28.956263 194.47604L24.206263 192.99167L24.206263 191.83542L31.534388 194.3823Q33.11251 194.97604 33.11251 196.2573L33.096886 196.47604L33.01876 196.86667L32.14376 196.86667L32.159386 196.58542Q32.159386 196.02292 31.940638 195.72604Q31.721888 195.41354 31.128138 195.21042L30.471888 194.97604L24.206263 197.24167L24.206263 196.05417L28.956263 194.47604ZM27.081263 190.58542Q25.768763 190.58542 24.550013 190.24167Q23.331263 189.8823 22.331263 189.17917Q21.331263 188.47604 20.925013 187.71042L21.643763 187.49167Q22.300013 188.35104 23.643763 188.89792Q24.987513 189.4448 26.659388 189.49167L27.159388 189.5073Q29.425013 189.5073 31.081263 188.67917Q32.08126 188.17917 32.64376 187.49167L33.30001 187.71042Q32.878136 188.49167 31.846888 189.21042Q29.862513 190.58542 27.081263 190.58542ZM22.018763 184.92917L28.971888 182.1323L22.018763 179.35104L22.018763 177.8823L30.550013 177.8823L30.550013 179.0073L27.221888 179.0073L23.643763 178.89792L30.550013 181.71042L30.550013 182.5698L23.659388 185.36667L27.221888 185.2573L30.550013 185.2573L30.550013 186.3823L22.018763 186.3823L22.018763 184.92917ZM27.456263 171.17917Q28.909388 171.17917 29.800013 171.85104Q30.675013 172.5073 30.675013 173.6323Q30.675013 174.83542 29.815638 175.49167L30.550013 175.55417L30.550013 176.53854L21.550013 176.53854L21.550013 175.46042L24.909388 175.46042Q24.096888 174.80417 24.096888 173.64792Q24.096888 172.49167 24.971888 171.83542Q25.831263 171.17917 27.362513 171.17917L27.456263 171.17917ZM27.331263 172.2573Q26.221888 172.2573 25.628138 172.6948Q25.018763 173.11667 25.018763 173.91354Q25.018763 174.99167 26.003138 175.46042L28.753138 175.46042Q29.753138 174.96042 29.753138 173.91354Q29.753138 173.1323 29.143763 172.6948Q28.534388 172.2573 27.331263 172.2573ZM27.143763 167.03854Q28.456263 167.03854 29.659388 167.3823Q30.846888 167.72604 31.862513 168.4448Q32.878136 169.14792 33.30001 169.91354L32.64376 170.14792Q31.956263 169.24167 30.503138 168.6948Q29.034388 168.14792 27.268763 168.1323L27.081263 168.1323Q25.846888 168.1323 24.784388 168.39792Q23.721888 168.64792 22.893763 169.11667Q22.050013 169.5698 21.581263 170.14792L20.925013 169.91354Q21.346888 169.14792 22.346888 168.4448Q23.346888 167.74167 24.565638 167.39792Q25.768763 167.03854 27.143763 167.03854Z" fill-rule="nonzero"/><path fill="#757575" d="M66.75313 258.05917L67.19063 253.80917L71.56563 253.80917L71.56563 254.80917L68.1125 254.80917L67.84688 257.1373Q68.4875 256.7623 69.28438 256.7623Q70.44063 256.7623 71.12813 257.54355Q71.81563 258.30917 71.81563 259.62167Q71.81563 260.93417 71.09688 261.6998Q70.39375 262.46542 69.1125 262.46542Q67.9875 262.46542 67.26875 261.84042Q66.55 261.1998 66.45625 260.09042L67.47188 260.09042Q67.58125 260.8248 68.00313 261.1998Q68.425 261.5748 69.1125 261.5748Q69.8625 261.5748 70.3 261.05917Q70.7375 260.54355 70.7375 259.6373Q70.7375 258.77792 70.26875 258.2623Q69.8 257.74667 69.01875 257.74667Q68.31563 257.74667 67.90938 258.04355L67.62813 258.27792L66.75313 258.05917ZM78.6125 258.6998Q78.6125 260.60605 77.95625 261.54355Q77.31563 262.46542 75.925 262.46542Q74.56563 262.46542 73.90938 261.55917Q73.25313 260.65292 73.22188 258.84042L73.22188 257.40292Q73.22188 255.5123 73.8625 254.60605Q74.51875 253.68417 75.90938 253.68417Q77.28438 253.68417 77.94063 254.5748Q78.59688 255.4498 78.6125 257.29355L78.6125 258.6998ZM77.51875 257.21542Q77.51875 255.84042 77.12813 255.21542Q76.75313 254.5748 75.90938 254.5748Q75.08125 254.5748 74.69063 255.21542Q74.31563 255.84042 74.31563 257.1373L74.31563 258.87167Q74.31563 260.24667 74.70625 260.91855Q75.1125 261.5748 75.925 261.5748Q76.72188 261.5748 77.1125 260.9498Q77.50313 260.3248 77.51875 258.99667L77.51875 257.21542ZM85.6125 258.6998Q85.6125 260.60605 84.95625 261.54355Q84.31563 262.46542 82.925 262.46542Q81.56563 262.46542 80.90938 261.55917Q80.25313 260.65292 80.22188 258.84042L80.22188 257.40292Q80.22188 255.5123 80.8625 254.60605Q81.51875 253.68417 82.90938 253.68417Q84.28438 253.68417 84.94063 254.5748Q85.59688 255.4498 85.6125 257.29355L85.6125 258.6998ZM84.51875 257.21542Q84.51875 255.84042 84.12813 255.21542Q83.75313 254.5748 82.90938 254.5748Q82.08125 254.5748 81.69063 255.21542Q81.31563 255.84042 81.31563 257.1373L81.31563 258.87167Q81.31563 260.24667 81.70625 260.91855Q82.1125 261.5748 82.925 261.5748Q83.72188 261.5748 84.1125 260.9498Q84.50313 260.3248 84.51875 258.99667L84.51875 257.21542ZM92.6125 258.6998Q92.6125 260.60605 91.95625 261.54355Q91.31563 262.46542 89.925 262.46542Q88.56563 262.46542 87.90938 261.55917Q87.25313 260.65292 87.22188 258.84042L87.22188 257.40292Q87.22188 255.5123 87.8625 254.60605Q88.51875 253.68417 89.90938 253.68417Q91.28438 253.68417 91.94063 254.5748Q92.59688 255.4498 92.6125 257.29355L92.6125 258.6998ZM91.51875 257.21542Q91.51875 255.84042 91.12813 255.21542Q90.75313 254.5748 89.90938 254.5748Q89.08125 254.5748 88.69063 255.21542Q88.31563 255.84042 88.31563 257.1373L88.31563 258.87167Q88.31563 260.24667 88.70625 260.91855Q89.1125 261.5748 89.925 261.5748Q90.72188 261.5748 91.1125 260.9498Q91.50313 260.3248 91.51875 258.99667L91.51875 257.21542Z" fill-rule="nonzero"/><path fill="#757575" d="M62.815624 231.62045L61.7375 231.62045L61.7375 224.4017L59.55 225.19858L59.55 224.2142L62.659374 223.04233L62.815624 223.04233L62.815624 231.62045ZM71.6125 227.97983Q71.6125 229.88608 70.95625 230.82358Q70.31563 231.74545 68.925 231.74545Q67.56563 231.74545 66.90938 230.8392Q66.25313 229.93295 66.22188 228.12045L66.22188 226.68295Q66.22188 224.79233 66.8625 223.88608Q67.51875 222.9642 68.90938 222.9642Q70.28438 222.9642 70.94063 223.85483Q71.59688 224.72983 71.6125 226.57358L71.6125 227.97983ZM70.51875 226.49545Q70.51875 225.12045 70.12813 224.49545Q69.75313 223.85483 68.90938 223.85483Q68.08125 223.85483 67.69063 224.49545Q67.31563 225.12045 67.31563 226.41733L67.31563 228.1517Q67.31563 229.5267 67.70625 230.19858Q68.1125 230.85483 68.925 230.85483Q69.72188 230.85483 70.1125 230.22983Q70.50313 229.60483 70.51875 228.2767L70.51875 226.49545ZM78.6125 227.97983Q78.6125 229.88608 77.95625 230.82358Q77.31563 231.74545 75.925 231.74545Q74.56563 231.74545 73.90938 230.8392Q73.25313 229.93295 73.22188 228.12045L73.22188 226.68295Q73.22188 224.79233 73.8625 223.88608Q74.51875 222.9642 75.90938 222.9642Q77.28438 222.9642 77.94063 223.85483Q78.59688 224.72983 78.6125 226.57358L78.6125 227.97983ZM77.51875 226.49545Q77.51875 225.12045 77.12813 224.49545Q76.75313 223.85483 75.90938 223.85483Q75.08125 223.85483 74.69063 224.49545Q74.31563 225.12045 74.31563 226.41733L74.31563 228.1517Q74.31563 229.5267 74.70625 230.19858Q75.1125 230.85483 75.925 230.85483Q76.72188 230.85483 77.1125 230.22983Q77.50313 229.60483 77.51875 228.2767L77.51875 226.49545ZM85.6125 227.97983Q85.6125 229.88608 84.95625 230.82358Q84.31563 231.74545 82.925 231.74545Q81.56563 231.74545 80.90938 230.8392Q80.25313 229.93295 80.22188 228.12045L80.22188 226.68295Q80.22188 224.79233 80.8625 223.88608Q81.51875 222.9642 82.90938 222.9642Q84.28438 222.9642 84.94063 223.85483Q85.59688 224.72983 85.6125 226.57358L85.6125 227.97983ZM84.51875 226.49545Q84.51875 225.12045 84.12813 224.49545Q83.75313 223.85483 82.90938 223.85483Q82.08125 223.85483 81.69063 224.49545Q81.31563 225.12045 81.31563 226.41733L81.31563 228.1517Q81.31563 229.5267 81.70625 230.19858Q82.1125 230.85483 82.925 230.85483Q83.72188 230.85483 84.1125 230.22983Q84.50313 229.60483 84.51875 228.2767L84.51875 226.49545ZM92.6125 227.97983Q92.6125 229.88608 91.95625 230.82358Q91.31563 231.74545 89.925 231.74545Q88.56563 231.74545 87.90938 230.8392Q87.25313 229.93295 87.22188 228.12045L87.22188 226.68295Q87.22188 224.79233 87.8625 223.88608Q88.51875 222.9642 89.90938 222.9642Q91.28438 222.9642 91.94063 223.85483Q92.59688 224.72983 92.6125 226.57358L92.6125 227.97983ZM91.51875 226.49545Q91.51875 225.12045 91.12813 224.49545Q90.75313 223.85483 89.90938 223.85483Q89.08125 223.85483 88.69063 224.49545Q88.31563 225.12045 88.31563 226.41733L88.31563 228.1517Q88.31563 229.5267 88.70625 230.19858Q89.1125 230.85483 89.925 230.85483Q90.72188 230.85483 91.1125 230.22983Q91.50313 229.60483 91.51875 228.2767L91.51875 226.49545Z" fill-rule="nonzero"/><path fill="#757575" d="M59.753124 156.00966L60.190624 151.75966L64.56563 151.75966L64.56563 152.75966L61.1125 152.75966L60.846874 155.08778Q61.4875 154.71278 62.284374 154.71278Q63.440624 154.71278 64.12813 155.49403Q64.81563 156.25966 64.81563 157.57216Q64.81563 158.88466 64.09688 159.65028Q63.39375 160.41591 62.1125 160.41591Q60.9875 160.41591 60.26875 159.79091Q59.55 159.15028 59.45625 158.04091L60.471874 158.04091Q60.58125 158.77528 61.003124 159.15028Q61.425 159.52528 62.1125 159.52528Q62.8625 159.52528 63.3 159.00966Q63.7375 158.49403 63.7375 157.58778Q63.7375 156.72841 63.26875 156.21278Q62.8 155.69716 62.01875 155.69716Q61.315624 155.69716 60.909374 155.99403L60.628124 156.22841L59.753124 156.00966ZM71.6125 156.65028Q71.6125 158.55653 70.95625 159.49403Q70.31563 160.41591 68.925 160.41591Q67.56563 160.41591 66.90938 159.50966Q66.25313 158.60341 66.22188 156.79091L66.22188 155.35341Q66.22188 153.46278 66.8625 152.55653Q67.51875 151.63466 68.90938 151.63466Q70.28438 151.63466 70.94063 152.52528Q71.59688 153.40028 71.6125 155.24403L71.6125 156.65028ZM70.51875 155.16591Q70.51875 153.79091 70.12813 153.16591Q69.75313 152.52528 68.90938 152.52528Q68.08125 152.52528 67.69063 153.16591Q67.31563 153.79091 67.31563 155.08778L67.31563 156.82216Q67.31563 158.19716 67.70625 158.86903Q68.1125 159.52528 68.925 159.52528Q69.72188 159.52528 70.1125 158.90028Q70.50313 158.27528 70.51875 156.94716L70.51875 155.16591ZM78.6125 156.65028Q78.6125 158.55653 77.95625 159.49403Q77.31563 160.41591 75.925 160.41591Q74.56563 160.41591 73.90938 159.50966Q73.25313 158.60341 73.22188 156.79091L73.22188 155.35341Q73.22188 153.46278 73.8625 152.55653Q74.51875 151.63466 75.90938 151.63466Q77.28438 151.63466 77.94063 152.52528Q78.59688 153.40028 78.6125 155.24403L78.6125 156.65028ZM77.51875 155.16591Q77.51875 153.79091 77.12813 153.16591Q76.75313 152.52528 75.90938 152.52528Q75.08125 152.52528 74.69063 153.16591Q74.31563 153.79091 74.31563 155.08778L74.31563 156.82216Q74.31563 158.19716 74.70625 158.86903Q75.1125 159.52528 75.925 159.52528Q76.72188 159.52528 77.1125 158.90028Q77.50313 158.27528 77.51875 156.94716L77.51875 155.16591ZM85.6125 156.65028Q85.6125 158.55653 84.95625 159.49403Q84.31563 160.41591 82.925 160.41591Q81.56563 160.41591 80.90938 159.50966Q80.25313 158.60341 80.22188 156.79091L80.22188 155.35341Q80.22188 153.46278 80.8625 152.55653Q81.51875 151.63466 82.90938 151.63466Q84.28438 151.63466 84.94063 152.52528Q85.59688 153.40028 85.6125 155.24403L85.6125 156.65028ZM84.51875 155.16591Q84.51875 153.79091 84.12813 153.16591Q83.75313 152.52528 82.90938 152.52528Q82.08125 152.52528 81.69063 153.16591Q81.31563 153.79091 81.31563 155.08778L81.31563 156.82216Q81.31563 158.19716 81.70625 158.86903Q82.1125 159.52528 82.925 159.52528Q83.72188 159.52528 84.1125 158.90028Q84.50313 158.27528 84.51875 156.94716L84.51875 155.16591ZM92.6125 156.65028Q92.6125 158.55653 91.95625 159.49403Q91.31563 160.41591 89.925 160.41591Q88.56563 160.41591 87.90938 159.50966Q87.25313 158.60341 87.22188 156.79091L87.22188 155.35341Q87.22188 153.46278 87.8625 152.55653Q88.51875 151.63466 89.90938 151.63466Q91.28438 151.63466 91.94063 152.52528Q92.59688 153.40028 92.6125 155.24403L92.6125 156.65028ZM91.51875 155.16591Q91.51875 153.79091 91.12813 153.16591Q90.75313 152.52528 89.90938 152.52528Q89.08125 152.52528 88.69063 153.16591Q88.31563 153.79091 88.31563 155.08778L88.31563 156.82216Q88.31563 158.19716 88.70625 158.86903Q89.1125 159.52528 89.925 159.52528Q90.72188 159.52528 91.1125 158.90028Q91.50313 158.27528 91.51875 156.94716L91.51875 155.16591Z" fill-rule="nonzero"/><path fill="#757575" d="M55.815624 129.57095L54.7375 129.57095L54.7375 122.3522L52.55 123.14908L52.55 122.1647L55.659374 120.99283L55.815624 120.99283L55.815624 129.57095ZM64.6125 125.93033Q64.6125 127.83658 63.95625 128.77408Q63.315624 129.69595 61.925 129.69595Q60.565624 129.69595 59.909374 128.7897Q59.253124 127.88345 59.221874 126.07095L59.221874 124.63345Q59.221874 122.74283 59.8625 121.83658Q60.51875 120.9147 61.909374 120.9147Q63.284374 120.9147 63.940624 121.80533Q64.59688 122.68033 64.6125 124.52408L64.6125 125.93033ZM63.51875 124.44595Q63.51875 123.07095 63.128124 122.44595Q62.753124 121.80533 61.909374 121.80533Q61.08125 121.80533 60.690624 122.44595Q60.315624 123.07095 60.315624 124.36783L60.315624 126.1022Q60.315624 127.4772 60.70625 128.14908Q61.1125 128.80533 61.925 128.80533Q62.721874 128.80533 63.1125 128.18033Q63.503124 127.55533 63.51875 126.2272L63.51875 124.44595ZM71.6125 125.93033Q71.6125 127.83658 70.95625 128.77408Q70.31563 129.69595 68.925 129.69595Q67.56563 129.69595 66.90938 128.7897Q66.25313 127.88345 66.22188 126.07095L66.22188 124.63345Q66.22188 122.74283 66.8625 121.83658Q67.51875 120.9147 68.90938 120.9147Q70.28438 120.9147 70.94063 121.80533Q71.59688 122.68033 71.6125 124.52408L71.6125 125.93033ZM70.51875 124.44595Q70.51875 123.07095 70.12813 122.44595Q69.75313 121.80533 68.90938 121.80533Q68.08125 121.80533 67.69063 122.44595Q67.31563 123.07095 67.31563 124.36783L67.31563 126.1022Q67.31563 127.4772 67.70625 128.14908Q68.1125 128.80533 68.925 128.80533Q69.72188 128.80533 70.1125 128.18033Q70.50313 127.55533 70.51875 126.2272L70.51875 124.44595ZM78.6125 125.93033Q78.6125 127.83658 77.95625 128.77408Q77.31563 129.69595 75.925 129.69595Q74.56563 129.69595 73.90938 128.7897Q73.25313 127.88345 73.22188 126.07095L73.22188 124.63345Q73.22188 122.74283 73.8625 121.83658Q74.51875 120.9147 75.90938 120.9147Q77.28438 120.9147 77.94063 121.80533Q78.59688 122.68033 78.6125 124.52408L78.6125 125.93033ZM77.51875 124.44595Q77.51875 123.07095 77.12813 122.44595Q76.75313 121.80533 75.90938 121.80533Q75.08125 121.80533 74.69063 122.44595Q74.31563 123.07095 74.31563 124.36783L74.31563 126.1022Q74.31563 127.4772 74.70625 128.14908Q75.1125 128.80533 75.925 128.80533Q76.72188 128.80533 77.1125 128.18033Q77.50313 127.55533 77.51875 126.2272L77.51875 124.44595ZM85.6125 125.93033Q85.6125 127.83658 84.95625 128.77408Q84.31563 129.69595 82.925 129.69595Q81.56563 129.69595 80.90938 128.7897Q80.25313 127.88345 80.22188 126.07095L80.22188 124.63345Q80.22188 122.74283 80.8625 121.83658Q81.51875 120.9147 82.90938 120.9147Q84.28438 120.9147 84.94063 121.80533Q85.59688 122.68033 85.6125 124.52408L85.6125 125.93033ZM84.51875 124.44595Q84.51875 123.07095 84.12813 122.44595Q83.75313 121.80533 82.90938 121.80533Q82.08125 121.80533 81.69063 122.44595Q81.31563 123.07095 81.31563 124.36783L81.31563 126.1022Q81.31563 127.4772 81.70625 128.14908Q82.1125 128.80533 82.925 128.80533Q83.72188 128.80533 84.1125 128.18033Q84.50313 127.55533 84.51875 126.2272L84.51875 124.44595ZM92.6125 125.93033Q92.6125 127.83658 91.95625 128.77408Q91.31563 129.69595 89.925 129.69595Q88.56563 129.69595 87.90938 128.7897Q87.25313 127.88345 87.22188 126.07095L87.22188 124.63345Q87.22188 122.74283 87.8625 121.83658Q88.51875 120.9147 89.90938 120.9147Q91.28438 120.9147 91.94063 121.80533Q92.59688 122.68033 92.6125 124.52408L92.6125 125.93033ZM91.51875 124.44595Q91.51875 123.07095 91.12813 122.44595Q90.75313 121.80533 89.90938 121.80533Q89.08125 121.80533 88.69063 122.44595Q88.31563 123.07095 88.31563 124.36783L88.31563 126.1022Q88.31563 127.4772 88.70625 128.14908Q89.1125 128.80533 89.925 128.80533Q90.72188 128.80533 91.1125 128.18033Q91.50313 127.55533 91.51875 126.2272L91.51875 124.44595Z" fill-rule="nonzero"/><path fill="#757575" d="M96.81563 316.45L95.7375 316.45L95.7375 309.23126L93.55 310.02814L93.55 309.04376L96.65938 307.8719L96.81563 307.8719L96.81563 316.45ZM105.6125 312.8094Q105.6125 314.71564 104.95625 315.65314Q104.31563 316.575 102.925 316.575Q101.56563 316.575 100.90938 315.66876Q100.25313 314.7625 100.22188 312.95L100.22188 311.5125Q100.22188 309.6219 100.8625 308.71564Q101.51875 307.79376 102.90938 307.79376Q104.28438 307.79376 104.94063 308.6844Q105.59688 309.5594 105.6125 311.40314L105.6125 312.8094ZM104.51875 311.325Q104.51875 309.95 104.12813 309.325Q103.75313 308.6844 102.90938 308.6844Q102.08125 308.6844 101.69063 309.325Q101.31563 309.95 101.31563 311.2469L101.31563 312.98126Q101.31563 314.35626 101.70625 315.02814Q102.1125 315.6844 102.925 315.6844Q103.72188 315.6844 104.1125 315.0594Q104.50313 314.4344 104.51875 313.10626L104.51875 311.325Z" fill-rule="nonzero"/><path fill="#757575" d="M189.69562 316.45L188.6175 316.45L188.6175 309.23126L186.43 310.02814L186.43 309.04376L189.53937 307.8719L189.69562 307.8719L189.69562 316.45ZM198.4925 312.8094Q198.4925 314.71564 197.83624 315.65314Q197.19562 316.575 195.805 316.575Q194.44562 316.575 193.78937 315.66876Q193.13312 314.7625 193.10187 312.95L193.10187 311.5125Q193.10187 309.6219 193.7425 308.71564Q194.39874 307.79376 195.78937 307.79376Q197.16437 307.79376 197.82062 308.6844Q198.47687 309.5594 198.4925 311.40314L198.4925 312.8094ZM197.39874 311.325Q197.39874 309.95 197.00812 309.325Q196.63312 308.6844 195.78937 308.6844Q194.96124 308.6844 194.57062 309.325Q194.19562 309.95 194.19562 311.2469L194.19562 312.98126Q194.19562 314.35626 194.58624 315.02814Q194.9925 315.6844 195.805 315.6844Q196.60187 315.6844 196.9925 315.0594Q197.38312 314.4344 197.39874 313.10626L197.39874 311.325ZM205.4925 312.8094Q205.4925 314.71564 204.83624 315.65314Q204.19562 316.575 202.805 316.575Q201.44562 316.575 200.78937 315.66876Q200.13312 314.7625 200.10187 312.95L200.10187 311.5125Q200.10187 309.6219 200.7425 308.71564Q201.39874 307.79376 202.78937 307.79376Q204.16437 307.79376 204.82062 308.6844Q205.47687 309.5594 205.4925 311.40314L205.4925 312.8094ZM204.39874 311.325Q204.39874 309.95 204.00812 309.325Q203.63312 308.6844 202.78937 308.6844Q201.96124 308.6844 201.57062 309.325Q201.19562 309.95 201.19562 311.2469L201.19562 312.98126Q201.19562 314.35626 201.58624 315.02814Q201.9925 315.6844 202.805 315.6844Q203.60187 315.6844 203.9925 315.0594Q204.38312 314.4344 204.39874 313.10626L204.39874 311.325Z" fill-rule="nonzero"/><path fill="#757575" d="M282.57562 316.45L281.4975 316.45L281.4975 309.23126L279.31 310.02814L279.31 309.04376L282.41937 307.8719L282.57562 307.8719L282.57562 316.45ZM291.3725 312.8094Q291.3725 314.71564 290.71625 315.65314Q290.07562 316.575 288.685 316.575Q287.32562 316.575 286.66937 315.66876Q286.01312 314.7625 285.98187 312.95L285.98187 311.5125Q285.98187 309.6219 286.6225 308.71564Q287.27875 307.79376 288.66937 307.79376Q290.04437 307.79376 290.70062 308.6844Q291.35687 309.5594 291.3725 311.40314L291.3725 312.8094ZM290.27875 311.325Q290.27875 309.95 289.88812 309.325Q289.51312 308.6844 288.66937 308.6844Q287.84125 308.6844 287.45062 309.325Q287.07562 309.95 287.07562 311.2469L287.07562 312.98126Q287.07562 314.35626 287.46625 315.02814Q287.8725 315.6844 288.685 315.6844Q289.48187 315.6844 289.8725 315.0594Q290.26312 314.4344 290.27875 313.10626L290.27875 311.325ZM298.3725 312.8094Q298.3725 314.71564 297.71625 315.65314Q297.07562 316.575 295.685 316.575Q294.32562 316.575 293.66937 315.66876Q293.01312 314.7625 292.98187 312.95L292.98187 311.5125Q292.98187 309.6219 293.6225 308.71564Q294.27875 307.79376 295.66937 307.79376Q297.04437 307.79376 297.70062 308.6844Q298.35687 309.5594 298.3725 311.40314L298.3725 312.8094ZM297.27875 311.325Q297.27875 309.95 296.88812 309.325Q296.51312 308.6844 295.66937 308.6844Q294.84125 308.6844 294.45062 309.325Q294.07562 309.95 294.07562 311.2469L294.07562 312.98126Q294.07562 314.35626 294.46625 315.02814Q294.8725 315.6844 295.685 315.6844Q296.48187 315.6844 296.8725 315.0594Q297.26312 314.4344 297.27875 313.10626L297.27875 311.325ZM305.3725 312.8094Q305.3725 314.71564 304.71625 315.65314Q304.07562 316.575 302.685 316.575Q301.32562 316.575 300.66937 315.66876Q300.01312 314.7625 299.98187 312.95L299.98187 311.5125Q299.98187 309.6219 300.6225 308.71564Q301.27875 307.79376 302.66937 307.79376Q304.04437 307.79376 304.70062 308.6844Q305.35687 309.5594 305.3725 311.40314L305.3725 312.8094ZM304.27875 311.325Q304.27875 309.95 303.88812 309.325Q303.51312 308.6844 302.66937 308.6844Q301.84125 308.6844 301.45062 309.325Q301.07562 309.95 301.07562 311.2469L301.07562 312.98126Q301.07562 314.35626 301.46625 315.02814Q301.8725 315.6844 302.685 315.6844Q303.48187 315.6844 303.8725 315.0594Q304.26312 314.4344 304.27875 313.10626L304.27875 311.325Z" fill-rule="nonzero"/><path fill="#757575" d="M375.45563 316.45L374.3775 316.45L374.3775 309.23126L372.19 310.02814L372.19 309.04376L375.29938 307.8719L375.45563 307.8719L375.45563 316.45ZM384.2525 312.8094Q384.2525 314.71564 383.59625 315.65314Q382.95563 316.575 381.565 316.575Q380.20563 316.575 379.54938 315.66876Q378.89313 314.7625 378.86188 312.95L378.86188 311.5125Q378.86188 309.6219 379.5025 308.71564Q380.15875 307.79376 381.54938 307.79376Q382.92438 307.79376 383.58063 308.6844Q384.23688 309.5594 384.2525 311.40314L384.2525 312.8094ZM383.15875 311.325Q383.15875 309.95 382.76813 309.325Q382.39313 308.6844 381.54938 308.6844Q380.72125 308.6844 380.33063 309.325Q379.95563 309.95 379.95563 311.2469L379.95563 312.98126Q379.95563 314.35626 380.34625 315.02814Q380.7525 315.6844 381.565 315.6844Q382.36188 315.6844 382.7525 315.0594Q383.14313 314.4344 383.15875 313.10626L383.15875 311.325ZM391.2525 312.8094Q391.2525 314.71564 390.59625 315.65314Q389.95563 316.575 388.565 316.575Q387.20563 316.575 386.54938 315.66876Q385.89313 314.7625 385.86188 312.95L385.86188 311.5125Q385.86188 309.6219 386.5025 308.71564Q387.15875 307.79376 388.54938 307.79376Q389.92438 307.79376 390.58063 308.6844Q391.23688 309.5594 391.2525 311.40314L391.2525 312.8094ZM390.15875 311.325Q390.15875 309.95 389.76813 309.325Q389.39313 308.6844 388.54938 308.6844Q387.72125 308.6844 387.33063 309.325Q386.95563 309.95 386.95563 311.2469L386.95563 312.98126Q386.95563 314.35626 387.34625 315.02814Q387.7525 315.6844 388.565 315.6844Q389.36188 315.6844 389.7525 315.0594Q390.14313 314.4344 390.15875 313.10626L390.15875 311.325ZM398.2525 312.8094Q398.2525 314.71564 397.59625 315.65314Q396.95563 316.575 395.565 316.575Q394.20563 316.575 393.54938 315.66876Q392.89313 314.7625 392.86188 312.95L392.86188 311.5125Q392.86188 309.6219 393.5025 308.71564Q394.15875 307.79376 395.54938 307.79376Q396.92438 307.79376 397.58063 308.6844Q398.23688 309.5594 398.2525 311.40314L398.2525 312.8094ZM397.15875 311.325Q397.15875 309.95 396.76813 309.325Q396.39313 308.6844 395.54938 308.6844Q394.72125 308.6844 394.33063 309.325Q393.95563 309.95 393.95563 311.2469L393.95563 312.98126Q393.95563 314.35626 394.34625 315.02814Q394.7525 315.6844 395.565 315.6844Q396.36188 315.6844 396.7525 315.0594Q397.14313 314.4344 397.15875 313.10626L397.15875 311.325ZM405.2525 312.8094Q405.2525 314.71564 404.59625 315.65314Q403.95563 316.575 402.565 316.575Q401.20563 316.575 400.54938 315.66876Q399.89313 314.7625 399.86188 312.95L399.86188 311.5125Q399.86188 309.6219 400.5025 308.71564Q401.15875 307.79376 402.54938 307.79376Q403.92438 307.79376 404.58063 308.6844Q405.23688 309.5594 405.2525 311.40314L405.2525 312.8094ZM404.15875 311.325Q404.15875 309.95 403.76813 309.325Q403.39313 308.6844 402.54938 308.6844Q401.72125 308.6844 401.33063 309.325Q400.95563 309.95 400.95563 311.2469L400.95563 312.98126Q400.95563 314.35626 401.34625 315.02814Q401.7525 315.6844 402.565 315.6844Q403.36188 315.6844 403.7525 315.0594Q404.14313 314.4344 404.15875 313.10626L404.15875 311.325Z" fill-rule="nonzero"/><path fill="#757575" d="M468.33563 316.45L467.2575 316.45L467.2575 309.23126L465.07 310.02814L465.07 309.04376L468.17938 307.8719L468.33563 307.8719L468.33563 316.45ZM477.1325 312.8094Q477.1325 314.71564 476.47626 315.65314Q475.83563 316.575 474.445 316.575Q473.08563 316.575 472.42938 315.66876Q471.77313 314.7625 471.74188 312.95L471.74188 311.5125Q471.74188 309.6219 472.3825 308.71564Q473.03876 307.79376 474.42938 307.79376Q475.80438 307.79376 476.46063 308.6844Q477.11688 309.5594 477.1325 311.40314L477.1325 312.8094ZM476.03876 311.325Q476.03876 309.95 475.64813 309.325Q475.27313 308.6844 474.42938 308.6844Q473.60126 308.6844 473.21063 309.325Q472.83563 309.95 472.83563 311.2469L472.83563 312.98126Q472.83563 314.35626 473.22626 315.02814Q473.6325 315.6844 474.445 315.6844Q475.24188 315.6844 475.6325 315.0594Q476.02313 314.4344 476.03876 313.10626L476.03876 311.325ZM484.1325 312.8094Q484.1325 314.71564 483.47626 315.65314Q482.83563 316.575 481.445 316.575Q480.08563 316.575 479.42938 315.66876Q478.77313 314.7625 478.74188 312.95L478.74188 311.5125Q478.74188 309.6219 479.3825 308.71564Q480.03876 307.79376 481.42938 307.79376Q482.80438 307.79376 483.46063 308.6844Q484.11688 309.5594 484.1325 311.40314L484.1325 312.8094ZM483.03876 311.325Q483.03876 309.95 482.64813 309.325Q482.27313 308.6844 481.42938 308.6844Q480.60126 308.6844 480.21063 309.325Q479.83563 309.95 479.83563 311.2469L479.83563 312.98126Q479.83563 314.35626 480.22626 315.02814Q480.6325 315.6844 481.445 315.6844Q482.24188 315.6844 482.6325 315.0594Q483.02313 314.4344 483.03876 313.10626L483.03876 311.325ZM491.1325 312.8094Q491.1325 314.71564 490.47626 315.65314Q489.83563 316.575 488.445 316.575Q487.08563 316.575 486.42938 315.66876Q485.77313 314.7625 485.74188 312.95L485.74188 311.5125Q485.74188 309.6219 486.3825 308.71564Q487.03876 307.79376 488.42938 307.79376Q489.80438 307.79376 490.46063 308.6844Q491.11688 309.5594 491.1325 311.40314L491.1325 312.8094ZM490.03876 311.325Q490.03876 309.95 489.64813 309.325Q489.27313 308.6844 488.42938 308.6844Q487.60126 308.6844 487.21063 309.325Q486.83563 309.95 486.83563 311.2469L486.83563 312.98126Q486.83563 314.35626 487.22626 315.02814Q487.6325 315.6844 488.445 315.6844Q489.24188 315.6844 489.6325 315.0594Q490.02313 314.4344 490.03876 313.10626L490.03876 311.325ZM498.1325 312.8094Q498.1325 314.71564 497.47626 315.65314Q496.83563 316.575 495.445 316.575Q494.08563 316.575 493.42938 315.66876Q492.77313 314.7625 492.74188 312.95L492.74188 311.5125Q492.74188 309.6219 493.3825 308.71564Q494.03876 307.79376 495.42938 307.79376Q496.80438 307.79376 497.46063 308.6844Q498.11688 309.5594 498.1325 311.40314L498.1325 312.8094ZM497.03876 311.325Q497.03876 309.95 496.64813 309.325Q496.27313 308.6844 495.42938 308.6844Q494.60126 308.6844 494.21063 309.325Q493.83563 309.95 493.83563 311.2469L493.83563 312.98126Q493.83563 314.35626 494.22626 315.02814Q494.6325 315.6844 495.445 315.6844Q496.24188 315.6844 496.6325 315.0594Q497.02313 314.4344 497.03876 313.10626L497.03876 311.325ZM505.1325 312.8094Q505.1325 314.71564 504.47626 315.65314Q503.83563 316.575 502.445 316.575Q501.08563 316.575 500.42938 315.66876Q499.77313 314.7625 499.74188 312.95L499.74188 311.5125Q499.74188 309.6219 500.3825 308.71564Q501.03876 307.79376 502.42938 307.79376Q503.80438 307.79376 504.46063 308.6844Q505.11688 309.5594 505.1325 311.40314L505.1325 312.8094ZM504.03876 311.325Q504.03876 309.95 503.64813 309.325Q503.27313 308.6844 502.42938 308.6844Q501.60126 308.6844 501.21063 309.325Q500.83563 309.95 500.83563 311.2469L500.83563 312.98126Q500.83563 314.35626 501.22626 315.02814Q501.6325 315.6844 502.445 315.6844Q503.24188 315.6844 503.6325 315.0594Q504.02313 314.4344 504.03876 313.10626L504.03876 311.325Z" fill-rule="nonzero"/><path stroke="#4285f4" stroke-width="4.0" stroke-linecap="butt" d="M221.5 62.416668L233.5 62.416668" fill-rule="nonzero"/><path fill="#757575" d="M243.9375 58.385414L246.73438 65.33854L249.51562 58.385414L250.98438 58.385414L250.98438 66.916664L249.85938 66.916664L249.85938 63.58854L249.96875 60.010414L247.15625 66.916664L246.29688 66.916664L243.5 60.02604L243.60938 63.58854L243.60938 66.916664L242.48438 66.916664L242.48438 58.385414L243.9375 58.385414ZM252.03125 63.68229Q252.03125 62.760414 252.39062 62.010414Q252.76562 61.260414 253.42188 60.86979Q254.07812 60.46354 254.90625 60.46354Q256.20312 60.46354 257.0 61.354164Q257.8125 62.24479 257.8125 63.74479L257.8125 63.822914Q257.8125 64.74479 257.45312 65.479164Q257.09375 66.21354 256.4375 66.635414Q255.78125 67.041664 254.92188 67.041664Q253.64062 67.041664 252.82812 66.15104Q252.03125 65.24479 252.03125 63.760414L252.03125 63.68229ZM253.125 63.822914Q253.125 64.86979 253.60938 65.510414Q254.10938 66.15104 254.92188 66.15104Q255.75 66.15104 256.23438 65.510414Q256.71875 64.854164 256.71875 63.68229Q256.71875 62.65104 256.21875 62.010414Q255.73438 61.354164 254.90625 61.354164Q254.10938 61.354164 253.60938 61.99479Q253.125 62.61979 253.125 63.822914ZM259.0625 63.697914Q259.0625 62.229164 259.75 61.354164Q260.4375 60.46354 261.5625 60.46354Q262.67188 60.46354 263.32812 61.21354L263.32812 57.916664L264.40625 57.916664L264.40625 66.916664L263.40625 66.916664L263.35938 66.229164Q262.70312 67.041664 261.54688 67.041664Q260.45312 67.041664 259.75 66.135414Q259.0625 65.229164 259.0625 63.77604L259.0625 63.697914ZM260.14062 63.822914Q260.14062 64.90104 260.57812 65.510414Q261.03125 66.11979 261.8125 66.11979Q262.84375 66.11979 263.32812 65.18229L263.32812 62.27604Q262.84375 61.385414 261.82812 61.385414Q261.03125 61.385414 260.57812 61.99479Q260.14062 62.604164 260.14062 63.822914ZM272.0 63.11979Q270.5625 62.697914 269.89062 62.08854Q269.23438 61.479164 269.23438 60.58854Q269.23438 59.58854 270.03125 58.93229Q270.84375 58.260414 272.14062 58.260414Q273.01562 58.260414 273.70312 58.604164Q274.39062 58.947914 274.76562 59.541664Q275.15625 60.135414 275.15625 60.854164L274.01562 60.854164Q274.01562 60.072914 273.51562 59.635414Q273.03125 59.197914 272.14062 59.197914Q271.3125 59.197914 270.84375 59.572914Q270.375 59.93229 270.375 60.572914Q270.375 61.104164 270.8125 61.46354Q271.26562 61.822914 272.32812 62.11979Q273.39062 62.416664 273.98438 62.77604Q274.59375 63.135414 274.875 63.61979Q275.17188 64.104164 275.17188 64.74479Q275.17188 65.791664 274.35938 66.416664Q273.54688 67.041664 272.20312 67.041664Q271.3125 67.041664 270.54688 66.697914Q269.79688 66.354164 269.375 65.77604Q268.96875 65.18229 268.96875 64.447914L270.09375 64.447914Q270.09375 65.21354 270.67188 65.666664Q271.25 66.11979 272.20312 66.11979Q273.09375 66.11979 273.5625 65.760414Q274.03125 65.385414 274.03125 64.760414Q274.03125 64.135414 273.59375 63.791664Q273.15625 63.447914 272.0 63.11979ZM278.95312 67.041664Q277.65625 67.041664 276.84375 66.197914Q276.04688 65.33854 276.04688 63.916664L276.04688 63.729164Q276.04688 62.77604 276.40625 62.041664Q276.76562 61.291664 277.40625 60.885414Q278.0625 60.46354 278.8125 60.46354Q280.04688 60.46354 280.73438 61.27604Q281.42188 62.08854 281.42188 63.604164L281.42188 64.05729L277.125 64.05729Q277.15625 64.99479 277.67188 65.572914Q278.20312 66.15104 279.01562 66.15104Q279.57812 66.15104 279.96875 65.916664Q280.375 65.68229 280.6875 65.291664L281.34375 65.80729Q280.54688 67.041664 278.95312 67.041664ZM278.8125 61.354164Q278.15625 61.354164 277.70312 61.83854Q277.26562 62.30729 277.17188 63.166664L280.34375 63.166664L280.34375 63.08854Q280.29688 62.260414 279.89062 61.80729Q279.5 61.354164 278.8125 61.354164ZM284.85938 66.15104Q285.4375 66.15104 285.875 65.80729Q286.3125 65.447914 286.35938 64.916664L287.39062 64.916664Q287.35938 65.46354 287.0 65.96354Q286.65625 66.447914 286.07812 66.74479Q285.51562 67.041664 284.85938 67.041664Q283.5625 67.041664 282.79688 66.18229Q282.04688 65.30729 282.04688 63.80729L282.04688 63.61979Q282.04688 62.697914 282.375 61.979164Q282.71875 61.260414 283.34375 60.86979Q283.98438 60.46354 284.85938 60.46354Q285.92188 60.46354 286.625 61.104164Q287.34375 61.729164 287.39062 62.760414L286.35938 62.760414Q286.3125 62.135414 285.89062 61.74479Q285.46875 61.354164 284.85938 61.354164Q284.03125 61.354164 283.57812 61.947914Q283.125 62.541664 283.125 63.666664L283.125 63.86979Q283.125 64.96354 283.57812 65.55729Q284.03125 66.15104 284.85938 66.15104ZM292.23438 66.291664Q291.60938 67.041664 290.375 67.041664Q289.35938 67.041664 288.82812 66.447914Q288.29688 65.854164 288.29688 64.697914L288.29688 60.572914L289.375 60.572914L289.375 64.666664Q289.375 66.11979 290.54688 66.11979Q291.79688 66.11979 292.20312 65.18229L292.20312 60.572914L293.29688 60.572914L293.29688 66.916664L292.26562 66.916664L292.23438 66.291664ZM298.39062 61.541664Q298.14062 61.510414 297.85938 61.510414Q296.78125 61.510414 296.40625 62.416664L296.40625 66.916664L295.32812 66.916664L295.32812 60.572914L296.375 60.572914L296.39062 61.30729Q296.92188 60.46354 297.90625 60.46354Q298.21875 60.46354 298.39062 60.541664L298.39062 61.541664ZM300.5 66.916664L299.42188 66.916664L299.42188 60.572914L300.5 60.572914L300.5 66.916664ZM299.32812 58.90104Q299.32812 58.635414 299.48438 58.447914Q299.65625 58.260414 299.96875 58.260414Q300.28125 58.260414 300.4375 58.447914Q300.60938 58.635414 300.60938 58.90104Q300.60938 59.15104 300.4375 59.33854Q300.28125 59.510414 299.96875 59.510414Q299.65625 59.510414 299.48438 59.33854Q299.32812 59.15104 299.32812 58.90104ZM303.79688 59.041664L303.79688 60.572914L304.96875 60.572914L304.96875 61.416664L303.79688 61.416664L303.79688 65.33854Q303.79688 65.729164 303.95312 65.916664Q304.10938 66.104164 304.48438 66.104164Q304.67188 66.104164 305.0 66.041664L305.0 66.916664Q304.57812 67.041664 304.17188 67.041664Q303.45312 67.041664 303.07812 66.604164Q302.70312 66.15104 302.70312 65.33854L302.70312 61.416664L301.54688 61.416664L301.54688 60.572914L302.70312 60.572914L302.70312 59.041664L303.79688 59.041664ZM308.39062 65.322914L309.875 60.572914L311.03125 60.572914L308.48438 67.90104Q307.89062 69.479164 306.60938 69.479164L306.39062 69.46354L306.0 69.385414L306.0 68.510414L306.28125 68.52604Q306.84375 68.52604 307.14062 68.30729Q307.45312 68.08854 307.65625 67.49479L307.89062 66.83854L305.625 60.572914L306.8125 60.572914L308.39062 65.322914Z" fill-rule="nonzero"/><path stroke="#db4437" stroke-width="4.0" stroke-linecap="butt" d="M327.5 62.416668L339.5 62.416668" fill-rule="nonzero"/><path fill="#757575" d="M350.32812 64.229164L350.5 65.354164L350.73438 64.33854L352.42188 58.385414L353.375 58.385414L355.01562 64.33854L355.25 65.36979L355.4375 64.21354L356.76562 58.385414L357.89062 58.385414L355.82812 66.916664L354.79688 66.916664L353.03125 60.697914L352.90625 60.041664L352.76562 60.697914L350.95312 66.916664L349.92188 66.916664L347.85938 58.385414L348.98438 58.385414L350.32812 64.229164ZM363.23438 66.916664Q363.14062 66.729164 363.07812 66.24479Q362.32812 67.041664 361.28125 67.041664Q360.34375 67.041664 359.73438 66.510414Q359.14062 65.979164 359.14062 65.15104Q359.14062 64.166664 359.89062 63.61979Q360.64062 63.072914 362.01562 63.072914L363.0625 63.072914L363.0625 62.572914Q363.0625 62.010414 362.71875 61.68229Q362.39062 61.33854 361.71875 61.33854Q361.14062 61.33854 360.75 61.635414Q360.35938 61.916664 360.35938 62.33854L359.26562 62.33854Q359.26562 61.854164 359.59375 61.416664Q359.9375 60.979164 360.51562 60.729164Q361.09375 60.46354 361.78125 60.46354Q362.89062 60.46354 363.5 61.010414Q364.125 61.55729 364.15625 62.510414L364.15625 65.43229Q364.15625 66.30729 364.375 66.822914L364.375 66.916664L363.23438 66.916664ZM361.4375 66.08854Q361.95312 66.08854 362.40625 65.822914Q362.85938 65.55729 363.0625 65.135414L363.0625 63.83854L362.21875 63.83854Q360.21875 63.83854 360.21875 65.010414Q360.21875 65.510414 360.5625 65.80729Q360.90625 66.08854 361.4375 66.08854ZM366.85938 66.916664L366.85938 61.416664L365.85938 61.416664L365.85938 60.572914L366.85938 60.572914L366.85938 59.93229Q366.85938 58.90104 367.39062 58.354164Q367.9375 57.791664 368.9375 57.791664Q369.3125 57.791664 369.6875 57.885414L369.625 58.77604Q369.34375 58.71354 369.04688 58.71354Q368.51562 58.71354 368.21875 59.02604Q367.9375 59.33854 367.9375 59.90104L367.9375 60.572914L369.29688 60.572914L369.29688 61.416664L367.9375 61.416664L367.9375 66.916664L366.85938 66.916664ZM371.5 66.916664L370.42188 66.916664L370.42188 57.916664L371.5 57.916664L371.5 66.916664ZM374.34375 66.02604L378.04688 66.02604L378.04688 66.916664L373.01562 66.916664L373.01562 66.11979L376.51562 61.479164L373.0625 61.479164L373.0625 60.572914L377.875 60.572914L377.875 61.33854L374.34375 66.02604Z" fill-rule="nonzero"/><path fill="#757575" d="M22.628124 23.33125L27.26875 34.925L31.925 23.33125L34.346874 23.33125L34.346874 37.55L32.471874 37.55L32.471874 32.01875L32.659374 26.034374L27.9875 37.55L26.55 37.55L21.89375 26.065624L22.08125 32.01875L22.08125 37.55L20.20625 37.55L20.20625 23.33125L22.628124 23.33125ZM41.3 37.753124Q39.159374 37.753124 37.8 36.346874Q36.45625 34.925 36.45625 32.565624L36.45625 32.221874Q36.45625 30.659374 37.05 29.425Q37.659374 28.190624 38.7375 27.4875Q39.815624 26.784374 41.08125 26.784374Q43.14375 26.784374 44.284374 28.14375Q45.425 29.503124 45.425 32.034374L45.425 32.784374L38.26875 32.784374Q38.3 34.346874 39.175 35.315624Q40.05 36.26875 41.39375 36.26875Q42.3625 36.26875 43.01875 35.878124Q43.690624 35.4875 44.190624 34.846874L45.284374 35.70625Q43.95625 37.753124 41.3 37.753124ZM41.08125 28.26875Q39.9875 28.26875 39.2375 29.065624Q38.503124 29.8625 38.33125 31.3L43.6125 31.3L43.6125 31.159374Q43.534374 29.784374 42.8625 29.034374Q42.20625 28.26875 41.08125 28.26875ZM49.6125 26.9875L49.659374 28.159374Q50.83125 26.784374 52.8 26.784374Q55.01875 26.784374 55.815624 28.4875Q56.346874 27.721874 57.190624 27.253124Q58.034374 26.784374 59.190624 26.784374Q62.659374 26.784374 62.721874 30.471874L62.721874 37.55L60.909374 37.55L60.909374 30.58125Q60.909374 29.440624 60.39375 28.878124Q59.878124 28.315624 58.659374 28.315624Q57.659374 28.315624 56.9875 28.925Q56.33125 29.51875 56.221874 30.534374L56.221874 37.55L54.409374 37.55L54.409374 30.628124Q54.409374 28.315624 52.14375 28.315624Q50.3625 28.315624 49.721874 29.83125L49.721874 37.55L47.909374 37.55L47.909374 26.9875L49.6125 26.9875ZM65.44063 32.175Q65.44063 30.6125 66.05 29.378124Q66.65938 28.128124 67.7375 27.45625Q68.83125 26.784374 70.2375 26.784374Q72.39375 26.784374 73.72188 28.284374Q75.06563 29.76875 75.06563 32.253124L75.06563 32.378124Q75.06563 33.925 74.47188 35.159374Q73.87813 36.378124 72.76875 37.065624Q71.675 37.753124 70.25313 37.753124Q68.1125 37.753124 66.76875 36.253124Q65.44063 34.753124 65.44063 32.3L65.44063 32.175ZM67.25313 32.378124Q67.25313 34.14375 68.06563 35.20625Q68.89375 36.26875 70.25313 36.26875Q71.62813 36.26875 72.44063 35.190624Q73.25313 34.1125 73.25313 32.175Q73.25313 30.425 72.425 29.346874Q71.59688 28.26875 70.2375 28.26875Q68.89375 28.26875 68.06563 29.33125Q67.25313 30.39375 67.25313 32.378124ZM82.01875 28.596874Q81.6125 28.534374 81.14375 28.534374Q79.3625 28.534374 78.72188 30.05L78.72188 37.55L76.925 37.55L76.925 26.9875L78.675 26.9875L78.70625 28.20625Q79.59688 26.784374 81.22188 26.784374Q81.75313 26.784374 82.01875 26.925L82.01875 28.596874ZM87.37813 34.909374L89.83125 26.9875L91.76875 26.9875L87.51875 39.175Q86.53438 41.815624 84.39375 41.815624L84.05 41.784374L83.37813 41.659374L83.37813 40.190624L83.8625 40.2375Q84.78438 40.2375 85.28438 39.8625Q85.8 39.4875 86.12813 38.503124L86.53438 37.425L82.76875 26.9875L84.7375 26.9875L87.37813 34.909374ZM108.20625 23.33125L108.20625 33.003124Q108.20625 35.003124 106.94063 36.284374Q105.69063 37.565624 103.55 37.721874L103.05 37.753124Q100.70625 37.753124 99.31563 36.4875Q97.94063 35.221874 97.925 33.01875L97.925 23.33125L99.76875 23.33125L99.76875 32.95625Q99.76875 34.503124 100.6125 35.3625Q101.47188 36.20625 103.05 36.20625Q104.64375 36.20625 105.4875 35.3625Q106.33125 34.51875 106.33125 32.971874L106.33125 23.33125L108.20625 23.33125ZM117.06563 34.753124Q117.06563 34.01875 116.51875 33.6125Q115.97188 33.20625 114.59688 32.909374Q113.22188 32.6125 112.40938 32.20625Q111.6125 31.8 111.22188 31.2375Q110.84688 30.659374 110.84688 29.878124Q110.84688 28.58125 111.94063 27.690624Q113.03438 26.784374 114.75313 26.784374Q116.55 26.784374 117.65938 27.721874Q118.78438 28.64375 118.78438 30.08125L116.95625 30.08125Q116.95625 29.346874 116.33125 28.815624Q115.70625 28.26875 114.75313 28.26875Q113.75313 28.26875 113.19063 28.70625Q112.64375 29.128124 112.64375 29.83125Q112.64375 30.471874 113.15938 30.815624Q113.675 31.14375 115.03438 31.45625Q116.39375 31.753124 117.22188 32.175Q118.06563 32.58125 118.47188 33.175Q118.87813 33.76875 118.87813 34.6125Q118.87813 36.034374 117.7375 36.89375Q116.6125 37.753124 114.8 37.753124Q113.53438 37.753124 112.55 37.3Q111.58125 36.846874 111.01875 36.05Q110.47188 35.2375 110.47188 34.3L112.28438 34.3Q112.33125 35.20625 113.00313 35.7375Q113.69063 36.26875 114.8 36.26875Q115.83125 36.26875 116.44063 35.8625Q117.06563 35.440624 117.06563 34.753124ZM127.44063 37.55Q127.28438 37.2375 127.19063 36.440624Q125.925 37.753124 124.175 37.753124Q122.6125 37.753124 121.6125 36.8625Q120.6125 35.971874 120.6125 34.6125Q120.6125 32.971874 121.8625 32.065624Q123.12813 31.14375 125.39375 31.14375L127.15938 31.14375L127.15938 30.315624Q127.15938 29.3625 126.58125 28.8Q126.01875 28.2375 124.925 28.2375Q123.95625 28.2375 123.3 28.7375Q122.64375 29.221874 122.64375 29.909374L120.83125 29.909374Q120.83125 29.128124 121.39375 28.39375Q121.95625 27.64375 122.90938 27.221874Q123.87813 26.784374 125.03438 26.784374Q126.8625 26.784374 127.89375 27.70625Q128.925 28.6125 128.97188 30.221874L128.97188 35.08125Q128.97188 36.534374 129.33125 37.39375L129.33125 37.55L127.44063 37.55ZM124.44063 36.175Q125.3 36.175 126.05 35.7375Q126.81563 35.3 127.15938 34.596874L127.15938 32.425L125.7375 32.425Q122.425 32.425 122.425 34.3625Q122.425 35.221874 122.9875 35.70625Q123.55 36.175 124.44063 36.175ZM131.4875 32.175Q131.4875 29.70625 132.62813 28.253124Q133.76875 26.784374 135.65938 26.784374Q137.59688 26.784374 138.675 28.159374L138.76875 26.9875L140.40938 26.9875L140.40938 37.3Q140.40938 39.346874 139.19063 40.51875Q137.9875 41.70625 135.925 41.70625Q134.78438 41.70625 133.69063 41.221874Q132.59688 40.7375 132.01875 39.878124L132.95625 38.8Q134.12813 40.2375 135.8 40.2375Q137.12813 40.2375 137.8625 39.4875Q138.59688 38.753124 138.59688 37.409374L138.59688 36.4875Q137.51875 37.753124 135.64375 37.753124Q133.78438 37.753124 132.62813 36.253124Q131.4875 34.753124 131.4875 32.175ZM133.3 32.378124Q133.3 34.175 134.03438 35.190624Q134.76875 36.20625 136.08125 36.20625Q137.8 36.20625 138.59688 34.659374L138.59688 29.83125Q137.76875 28.315624 136.1125 28.315624Q134.78438 28.315624 134.03438 29.346874Q133.3 30.378124 133.3 32.378124ZM147.3 37.753124Q145.15938 37.753124 143.8 36.346874Q142.45625 34.925 142.45625 32.565624L142.45625 32.221874Q142.45625 30.659374 143.05 29.425Q143.65938 28.190624 144.7375 27.4875Q145.81563 26.784374 147.08125 26.784374Q149.14375 26.784374 150.28438 28.14375Q151.425 29.503124 151.425 32.034374L151.425 32.784374L144.26875 32.784374Q144.3 34.346874 145.175 35.315624Q146.05 36.26875 147.39375 36.26875Q148.3625 36.26875 149.01875 35.878124Q149.69063 35.4875 150.19063 34.846874L151.28438 35.70625Q149.95625 37.753124 147.3 37.753124ZM147.08125 28.26875Q145.9875 28.26875 145.2375 29.065624Q144.50313 29.8625 144.33125 31.3L149.6125 31.3L149.6125 31.159374Q149.53438 29.784374 148.8625 29.034374Q148.20625 28.26875 147.08125 28.26875ZM158.84688 31.784374Q158.84688 29.565624 159.44063 27.534374Q160.03438 25.503124 161.20625 23.846874Q162.37813 22.190624 163.62813 21.503124L164.00313 22.690624Q162.58125 23.784374 161.65938 26.034374Q160.75313 28.284374 160.65938 31.065624L160.65938 31.89375Q160.65938 35.659374 162.03438 38.440624Q162.8625 40.096874 164.00313 41.034374L163.62813 42.14375Q162.33125 41.425 161.15938 39.721874Q158.84688 36.39375 158.84688 31.784374ZM168.20625 37.55L166.33125 37.55L166.33125 23.33125L168.20625 23.33125L168.20625 37.55ZM173.08125 31.9875L173.08125 37.55L171.20625 37.55L171.20625 23.33125L176.44063 23.33125Q178.78438 23.33125 180.09688 24.51875Q181.425 25.70625 181.425 27.675Q181.425 29.753124 180.12813 30.878124Q178.83125 31.9875 176.425 31.9875L173.08125 31.9875ZM173.08125 30.45625L176.44063 30.45625Q177.95625 30.45625 178.75313 29.753124Q179.55 29.034374 179.55 27.690624Q179.55 26.425 178.75313 25.675Q177.95625 24.909374 176.55 24.878124L173.08125 24.878124L173.08125 30.45625ZM187.40938 35.096874L190.01875 26.9875L191.8625 26.9875L188.08125 37.55L186.70625 37.55L182.87813 26.9875L184.72188 26.9875L187.40938 35.096874ZM201.3625 32.76875L203.33125 32.76875L203.33125 34.253124L201.3625 34.253124L201.3625 37.55L199.55 37.55L199.55 34.253124L193.06563 34.253124L193.06563 33.190624L199.44063 23.33125L201.3625 23.33125L201.3625 32.76875ZM195.1125 32.76875L199.55 32.76875L199.55 25.8L199.33125 26.190624L195.1125 32.76875ZM209.08125 31.878124Q209.08125 34.05 208.50313 36.05Q207.94063 38.05 206.76875 39.7375Q205.59688 41.425 204.3 42.14375L203.925 41.034374Q205.425 39.878124 206.33125 37.45625Q207.25313 35.034374 207.26875 32.065624L207.26875 31.753124Q207.26875 29.70625 206.83125 27.940624Q206.40938 26.175 205.64375 24.784374Q204.87813 23.39375 203.925 22.6125L204.3 21.503124Q205.59688 22.221874 206.75313 23.89375Q207.925 25.55 208.50313 27.565624Q209.08125 29.58125 209.08125 31.878124Z" fill-rule="nonzero"/></svg>