<svg version="1.1" viewBox="0.0 0.0 600.0 371.0" fill="none" stroke="none" stroke-linecap="square" stroke-miterlimit="10" width="600" height="371" xmlns:xlink="http://www.w3.org/1999/xlink" xmlns="http://www.w3.org/2000/svg"><path fill="#ffffff" d="M0 0L600.0 0L600.0 371.0L0 371.0L0 0Z" fill-rule="nonzero"/><path stroke="#333333" stroke-width="1.0" stroke-linecap="butt" d="M85.5 298.5L581.5 298.5" fill-rule="nonzero"/><path stroke="#cccccc" stroke-width="1.0" stroke-linecap="butt" d="M85.5 246.5L581.5 246.5" fill-rule="nonzero"/><path stroke="#cccccc" stroke-width="1.0" stroke-linecap="butt" d="M85.5 194.5L581.5 194.5" fill-rule="nonzero"/><path stroke="#cccccc" stroke-width="1.0" stroke-linecap="butt" d="M85.5 141.5L581.5 141.5" fill-rule="nonzero"/><path stroke="#cccccc" stroke-width="1.0" stroke-linecap="butt" d="M85.5 89.5L581.5 89.5" fill-rule="nonzero"/><clipPath id="id_0"><path d="M85.55 89.78333L581.45 89.78333L581.45 298.45L85.55 298.45L85.55 89.78333Z" clip-rule="nonzero"/></clipPath><path stroke="#4285f4" stroke-width="2.0" stroke-linecap="butt" clip-path="url(#id_0)" d="M126.875 288.01666L209.525 285.72134L292.175 280.19168L374.825 269.75833L457.475 213.52266L540.125 124.21333" fill-rule="nonzero"/><path stroke="#db4437" stroke-width="2.0" stroke-linecap="butt" clip-path="url(#id_0)" d="M126.875 291.251L209.525 288.85132L292.175 286.13867L374.825 280.71335L457.475 266.524L540.125 178.884" fill-rule="nonzero"/><path fill="#000000" fill-opacity="0.0" clip-path="url(#id_0)" d="M129.875 288.01666C129.875 289.67352 128.53186 291.01666 126.875 291.01666C125.21815 291.01666 123.875 289.67352 123.875 288.01666C123.875 286.3598 125.21815 285.01666 126.875 285.01666C128.53186 285.01666 129.875 286.3598 129.875 288.01666Z" fill-rule="nonzero"/><path fill="#000000" fill-opacity="0.0" clip-path="url(#id_0)" d="M212.525 285.72134C212.525 287.37817 211.18185 288.72134 209.525 288.72134C207.86815 288.72134 206.525 287.37817 206.525 285.72134C206.525 284.06448 207.86815 282.72134 209.525 282.72134C211.18185 282.72134 212.525 284.06448 212.525 285.72134Z" fill-rule="nonzero"/><path fill="#000000" fill-opacity="0.0" clip-path="url(#id_0)" d="M295.175 280.19168C295.175 281.8485 293.83185 283.19168 292.175 283.19168C290.51816 283.19168 289.175 281.8485 289.175 280.19168C289.175 278.53482 290.51816 277.19168 292.175 277.19168C293.83185 277.19168 295.175 278.53482 295.175 280.19168Z" fill-rule="nonzero"/><path fill="#000000" fill-opacity="0.0" clip-path="url(#id_0)" d="M377.825 269.75833C377.825 271.4152 376.48184 272.75833 374.825 272.75833C373.16815 272.75833 371.825 271.4152 371.825 269.75833C371.825 268.10147 373.16815 266.75833 374.825 266.75833C376.48184 266.75833 377.825 268.10147 377.825 269.75833Z" fill-rule="nonzero"/><path fill="#000000" fill-opacity="0.0" clip-path="url(#id_0)" d="M460.475 213.52266C460.475 215.17952 459.13187 216.52266 457.475 216.52266C455.81815 216.52266 454.475 215.17952 454.475 213.52266C454.475 211.86581 455.81815 210.52266 457.475 210.52266C459.13187 210.52266 460.475 211.86581 460.475 213.52266Z" fill-rule="nonzero"/><path fill="#000000" fill-opacity="0.0" clip-path="url(#id_0)" d="M543.125 124.21333C543.125 125.870186 541.78186 127.21333 540.125 127.21333C538.46814 127.21333 537.125 125.870186 537.125 124.21333C537.125 122.55648 538.46814 121.21333 540.125 121.21333C541.78186 121.21333 543.125 122.55648 543.125 124.21333Z" fill-rule="nonzero"/><path fill="#000000" fill-opacity="0.0" clip-path="url(#id_0)" d="M129.875 291.251C129.875 292.90787 128.53186 294.251 126.875 294.251C125.21815 294.251 123.875 292.90787 123.875 291.251C123.875 289.59415 125.21815 288.251 126.875 288.251C128.53186 288.251 129.875 289.59415 129.875 291.251Z" fill-rule="nonzero"/><path fill="#000000" fill-opacity="0.0" clip-path="url(#id_0)" d="M212.525 288.85132C212.525 290.50818 211.18185 291.85132 209.525 291.85132C207.86815 291.85132 206.525 290.50818 206.525 288.85132C206.525 287.1945 207.86815 285.85132 209.525 285.85132C211.18185 285.85132 212.525 287.1945 212.525 288.85132Z" fill-rule="nonzero"/><path fill="#000000" fill-opacity="0.0" clip-path="url(#id_0)" d="M295.175 286.13867C295.175 287.79553 293.83185 289.13867 292.175 289.13867C290.51816 289.13867 289.175 287.79553 289.175 286.13867C289.175 284.4818 290.51816 283.13867 292.175 283.13867C293.83185 283.13867 295.175 284.4818 295.175 286.13867Z" fill-rule="nonzero"/><path fill="#000000" fill-opacity="0.0" clip-path="url(#id_0)" d="M377.825 280.71335C377.825 282.37018 376.48184 283.71335 374.825 283.71335C373.16815 283.71335 371.825 282.37018 371.825 280.71335C371.825 279.0565 373.16815 277.71335 374.825 277.71335C376.48184 277.71335 377.825 279.0565 377.825 280.71335Z" fill-rule="nonzero"/><path fill="#000000" fill-opacity="0.0" clip-path="url(#id_0)" d="M460.475 266.524C460.475 268.18085 459.13187 269.524 457.475 269.524C455.81815 269.524 454.475 268.18085 454.475 266.524C454.475 264.86716 455.81815 263.524 457.475 263.524C459.13187 263.524 460.475 264.86716 460.475 266.524Z" fill-rule="nonzero"/><path fill="#000000" fill-opacity="0.0" clip-path="url(#id_0)" d="M543.125 178.884C543.125 180.54085 541.78186 181.884 540.125 181.884C538.46814 181.884 537.125 180.54085 537.125 178.884C537.125 177.22714 538.46814 175.884 540.125 175.884C541.78186 175.884 543.125 177.22714 543.125 178.884Z" fill-rule="nonzero"/><path fill="#424242" d="M275.54688 349.45L274.42188 349.45L270.125 342.8719L270.125 349.45L268.98438 349.45L268.98438 340.91876L270.125 340.91876L274.42188 347.52814L274.42188 340.91876L275.54688 340.91876L275.54688 349.45ZM281.73438 348.825Q281.10938 349.575 279.875 349.575Q278.85938 349.575 278.32812 348.98126Q277.79688 348.3875 277.79688 347.23126L277.79688 343.10626L278.875 343.10626L278.875 347.2Q278.875 348.65314 280.04688 348.65314Q281.29688 348.65314 281.70312 347.71564L281.70312 343.10626L282.79688 343.10626L282.79688 349.45L281.76562 349.45L281.73438 348.825ZM285.84375 343.10626L285.875 343.8094Q286.5625 342.9969 287.75 342.9969Q289.07812 342.9969 289.5625 344.0125Q289.875 343.5594 290.375 343.27814Q290.89062 342.9969 291.57812 342.9969Q293.67188 342.9969 293.70312 345.2L293.70312 349.45L292.625 349.45L292.625 345.2625Q292.625 344.59064 292.3125 344.2625Q292.0 343.91876 291.26562 343.91876Q290.65625 343.91876 290.25 344.27814Q289.85938 344.6375 289.79688 345.2469L289.79688 349.45L288.71875 349.45L288.71875 345.29376Q288.71875 343.91876 287.35938 343.91876Q286.29688 343.91876 285.90625 344.825L285.90625 349.45L284.8125 349.45L284.8125 343.10626L285.84375 343.10626ZM301.1875 346.35626Q301.1875 347.8094 300.51562 348.7Q299.85938 349.575 298.73438 349.575Q297.53125 349.575 296.875 348.71564L296.8125 349.45L295.82812 349.45L295.82812 340.45L296.90625 340.45L296.90625 343.8094Q297.5625 342.9969 298.71875 342.9969Q299.875 342.9969 300.53125 343.8719Q301.1875 344.73126 301.1875 346.2625L301.1875 346.35626ZM300.10938 346.23126Q300.10938 345.1219 299.67188 344.52814Q299.25 343.91876 298.45312 343.91876Q297.375 343.91876 296.90625 344.90314L296.90625 347.65314Q297.40625 348.65314 298.45312 348.65314Q299.23438 348.65314 299.67188 348.04376Q300.10938 347.4344 300.10938 346.23126ZM305.45312 349.575Q304.15625 349.575 303.34375 348.73126Q302.54688 347.8719 302.54688 346.45L302.54688 346.2625Q302.54688 345.3094 302.90625 344.575Q303.26562 343.825 303.90625 343.41876Q304.5625 342.9969 305.3125 342.9969Q306.54688 342.9969 307.23438 343.8094Q307.92188 344.6219 307.92188 346.1375L307.92188 346.59064L303.625 346.59064Q303.65625 347.52814 304.17188 348.10626Q304.70312 348.6844 305.51562 348.6844Q306.07812 348.6844 306.46875 348.45Q306.875 348.21564 307.1875 347.825L307.84375 348.34064Q307.04688 349.575 305.45312 349.575ZM305.3125 343.8875Q304.65625 343.8875 304.20312 344.3719Q303.76562 344.84064 303.67188 345.7L306.84375 345.7L306.84375 345.6219Q306.79688 344.79376 306.39062 344.34064Q306.0 343.8875 305.3125 343.8875ZM311.89062 344.075Q311.64062 344.04376 311.35938 344.04376Q310.28125 344.04376 309.90625 344.95L309.90625 349.45L308.82812 349.45L308.82812 343.10626L309.875 343.10626L309.89062 343.84064Q310.42188 342.9969 311.40625 342.9969Q311.71875 342.9969 311.89062 343.075L311.89062 344.075ZM315.53125 346.21564Q315.53125 345.29376 315.89062 344.54376Q316.26562 343.79376 316.92188 343.40314Q317.57812 342.9969 318.40625 342.9969Q319.70312 342.9969 320.5 343.8875Q321.3125 344.77814 321.3125 346.27814L321.3125 346.35626Q321.3125 347.27814 320.95312 348.0125Q320.59375 348.7469 319.9375 349.16876Q319.28125 349.575 318.42188 349.575Q317.14062 349.575 316.32812 348.6844Q315.53125 347.77814 315.53125 346.29376L315.53125 346.21564ZM316.625 346.35626Q316.625 347.40314 317.10938 348.04376Q317.60938 348.6844 318.42188 348.6844Q319.25 348.6844 319.73438 348.04376Q320.21875 347.3875 320.21875 346.21564Q320.21875 345.1844 319.71875 344.54376Q319.23438 343.8875 318.40625 343.8875Q317.60938 343.8875 317.10938 344.52814Q316.625 345.15314 316.625 346.35626ZM323.35938 349.45L323.35938 343.95L322.35938 343.95L322.35938 343.10626L323.35938 343.10626L323.35938 342.46564Q323.35938 341.4344 323.89062 340.8875Q324.4375 340.325 325.4375 340.325Q325.8125 340.325 326.1875 340.41876L326.125 341.3094Q325.84375 341.2469 325.54688 341.2469Q325.01562 341.2469 324.71875 341.5594Q324.4375 341.8719 324.4375 342.4344L324.4375 343.10626L325.79688 343.10626L325.79688 343.95L324.4375 343.95L324.4375 349.45L323.35938 349.45ZM331.20312 349.45L330.07812 349.45L330.07812 340.91876L331.20312 340.91876L331.20312 349.45ZM334.10938 346.10626L334.10938 349.45L332.98438 349.45L332.98438 340.91876L336.14062 340.91876Q337.53125 340.91876 338.32812 341.6375Q339.125 342.34064 339.125 343.52814Q339.125 344.7625 338.34375 345.4344Q337.57812 346.10626 336.125 346.10626L334.10938 346.10626ZM334.10938 345.1844L336.14062 345.1844Q337.04688 345.1844 337.51562 344.7625Q338.0 344.34064 338.0 343.54376Q338.0 342.77814 337.51562 342.325Q337.04688 341.85626 336.20312 341.84064L334.10938 341.84064L334.10938 345.1844ZM342.90625 347.98126L344.48438 343.10626L345.59375 343.10626L343.3125 349.45L342.48438 349.45L340.1875 343.10626L341.29688 343.10626L342.90625 347.98126ZM351.28125 346.59064L352.46875 346.59064L352.46875 347.46564L351.28125 347.46564L351.28125 349.45L350.20312 349.45L350.20312 347.46564L346.3125 347.46564L346.3125 346.825L350.125 340.91876L351.28125 340.91876L351.28125 346.59064ZM347.54688 346.59064L350.20312 346.59064L350.20312 342.40314L350.0625 342.6375L347.54688 346.59064ZM360.73438 349.45Q360.64062 349.2625 360.57812 348.77814Q359.82812 349.575 358.78125 349.575Q357.84375 349.575 357.23438 349.04376Q356.64062 348.5125 356.64062 347.6844Q356.64062 346.7 357.39062 346.15314Q358.14062 345.60626 359.51562 345.60626L360.5625 345.60626L360.5625 345.10626Q360.5625 344.54376 360.21875 344.21564Q359.89062 343.8719 359.21875 343.8719Q358.64062 343.8719 358.25 344.16876Q357.85938 344.45 357.85938 344.8719L356.76562 344.8719Q356.76562 344.3875 357.09375 343.95Q357.4375 343.5125 358.01562 343.2625Q358.59375 342.9969 359.28125 342.9969Q360.39062 342.9969 361.0 343.54376Q361.625 344.09064 361.65625 345.04376L361.65625 347.96564Q361.65625 348.84064 361.875 349.35626L361.875 349.45L360.73438 349.45ZM358.9375 348.6219Q359.45312 348.6219 359.90625 348.35626Q360.35938 348.09064 360.5625 347.66876L360.5625 346.3719L359.71875 346.3719Q357.71875 346.3719 357.71875 347.54376Q357.71875 348.04376 358.0625 348.34064Q358.40625 348.6219 358.9375 348.6219ZM363.5625 346.23126Q363.5625 344.7625 364.25 343.8875Q364.9375 342.9969 366.0625 342.9969Q367.17188 342.9969 367.82812 343.7469L367.82812 340.45L368.90625 340.45L368.90625 349.45L367.90625 349.45L367.85938 348.7625Q367.20312 349.575 366.04688 349.575Q364.95312 349.575 364.25 348.66876Q363.5625 347.7625 363.5625 346.3094L363.5625 346.23126ZM364.64062 346.35626Q364.64062 347.4344 365.07812 348.04376Q365.53125 348.65314 366.3125 348.65314Q367.34375 348.65314 367.82812 347.71564L367.82812 344.8094Q367.34375 343.91876 366.32812 343.91876Q365.53125 343.91876 365.07812 344.52814Q364.64062 345.1375 364.64062 346.35626ZM370.5625 346.23126Q370.5625 344.7625 371.25 343.8875Q371.9375 342.9969 373.0625 342.9969Q374.17188 342.9969 374.82812 343.7469L374.82812 340.45L375.90625 340.45L375.90625 349.45L374.90625 349.45L374.85938 348.7625Q374.20312 349.575 373.04688 349.575Q371.95312 349.575 371.25 348.66876Q370.5625 347.7625 370.5625 346.3094L370.5625 346.23126ZM371.64062 346.35626Q371.64062 347.4344 372.07812 348.04376Q372.53125 348.65314 373.3125 348.65314Q374.34375 348.65314 374.82812 347.71564L374.82812 344.8094Q374.34375 343.91876 373.32812 343.91876Q372.53125 343.91876 372.07812 344.52814Q371.64062 345.1375 371.64062 346.35626ZM380.89062 344.075Q380.64062 344.04376 380.35938 344.04376Q379.28125 344.04376 378.90625 344.95L378.90625 349.45L377.82812 349.45L377.82812 343.10626L378.875 343.10626L378.89062 343.84064Q379.42188 342.9969 380.40625 342.9969Q380.71875 342.9969 380.89062 343.075L380.89062 344.075ZM384.45312 349.575Q383.15625 349.575 382.34375 348.73126Q381.54688 347.8719 381.54688 346.45L381.54688 346.2625Q381.54688 345.3094 381.90625 344.575Q382.26562 343.825 382.90625 343.41876Q383.5625 342.9969 384.3125 342.9969Q385.54688 342.9969 386.23438 343.8094Q386.92188 344.6219 386.92188 346.1375L386.92188 346.59064L382.625 346.59064Q382.65625 347.52814 383.17188 348.10626Q383.70312 348.6844 384.51562 348.6844Q385.07812 348.6844 385.46875 348.45Q385.875 348.21564 386.1875 347.825L386.84375 348.34064Q386.04688 349.575 384.45312 349.575ZM384.3125 343.8875Q383.65625 343.8875 383.20312 344.3719Q382.76562 344.84064 382.67188 345.7L385.84375 345.7L385.84375 345.6219Q385.79688 344.79376 385.39062 344.34064Q385.0 343.8875 384.3125 343.8875ZM391.51562 347.7625Q391.51562 347.325 391.17188 347.09064Q390.84375 346.84064 390.01562 346.66876Q389.20312 346.4969 388.71875 346.2469Q388.23438 345.9969 388.0 345.66876Q387.78125 345.325 387.78125 344.85626Q387.78125 344.075 388.4375 343.54376Q389.09375 342.9969 390.125 342.9969Q391.20312 342.9969 391.85938 343.5594Q392.53125 344.10626 392.53125 344.96564L391.45312 344.96564Q391.45312 344.52814 391.0625 344.21564Q390.6875 343.8875 390.125 343.8875Q389.53125 343.8875 389.1875 344.15314Q388.85938 344.40314 388.85938 344.8094Q388.85938 345.2 389.17188 345.40314Q389.48438 345.60626 390.29688 345.79376Q391.10938 345.96564 391.60938 346.21564Q392.10938 346.46564 392.34375 346.825Q392.59375 347.1844 392.59375 347.6844Q392.59375 348.54376 391.90625 349.0594Q391.23438 349.575 390.15625 349.575Q389.39062 349.575 388.79688 349.3094Q388.21875 349.02814 387.89062 348.54376Q387.5625 348.0594 387.5625 347.4969L388.64062 347.4969Q388.67188 348.04376 389.07812 348.3719Q389.48438 348.6844 390.15625 348.6844Q390.76562 348.6844 391.14062 348.4344Q391.51562 348.1844 391.51562 347.7625ZM397.51562 347.7625Q397.51562 347.325 397.17188 347.09064Q396.84375 346.84064 396.01562 346.66876Q395.20312 346.4969 394.71875 346.2469Q394.23438 345.9969 394.0 345.66876Q393.78125 345.325 393.78125 344.85626Q393.78125 344.075 394.4375 343.54376Q395.09375 342.9969 396.125 342.9969Q397.20312 342.9969 397.85938 343.5594Q398.53125 344.10626 398.53125 344.96564L397.45312 344.96564Q397.45312 344.52814 397.0625 344.21564Q396.6875 343.8875 396.125 343.8875Q395.53125 343.8875 395.1875 344.15314Q394.85938 344.40314 394.85938 344.8094Q394.85938 345.2 395.17188 345.40314Q395.48438 345.60626 396.29688 345.79376Q397.10938 345.96564 397.60938 346.21564Q398.10938 346.46564 398.34375 346.825Q398.59375 347.1844 398.59375 347.6844Q398.59375 348.54376 397.90625 349.0594Q397.23438 349.575 396.15625 349.575Q395.39062 349.575 394.79688 349.3094Q394.21875 349.02814 393.89062 348.54376Q393.5625 348.0594 393.5625 347.4969L394.64062 347.4969Q394.67188 348.04376 395.07812 348.3719Q395.48438 348.6844 396.15625 348.6844Q396.76562 348.6844 397.14062 348.4344Q397.51562 348.1844 397.51562 347.7625Z" fill-rule="nonzero"/><path fill="#424242" d="M22.940638 233.47604L22.940638 236.22604L30.550013 236.22604L30.550013 237.33542L22.940638 237.33542L22.940638 240.08542L22.018763 240.08542L22.018763 233.47604L22.940638 233.47604ZM30.550013 231.36667L30.550013 232.4448L24.206263 232.4448L24.206263 231.36667L30.550013 231.36667ZM22.534388 232.53854Q22.268763 232.53854 22.081263 232.3823Q21.893763 232.21042 21.893763 231.89792Q21.893763 231.58542 22.081263 231.42917Q22.268763 231.2573 22.534388 231.2573Q22.784388 231.2573 22.971888 231.42917Q23.143763 231.58542 23.143763 231.89792Q23.143763 232.21042 22.971888 232.3823Q22.784388 232.53854 22.534388 232.53854ZM24.206263 228.52292L24.909388 228.49167Q24.096888 227.80417 24.096888 226.61667Q24.096888 225.28854 25.112513 224.80417Q24.659388 224.49167 24.378138 223.99167Q24.096888 223.47604 24.096888 222.78854Q24.096888 220.6948 26.300013 220.66354L30.550013 220.66354L30.550013 221.74167L26.362513 221.74167Q25.690638 221.74167 25.362513 222.05417Q25.018763 222.36667 25.018763 223.10104Q25.018763 223.71042 25.378138 224.11667Q25.737513 224.5073 26.346888 224.5698L30.550013 224.5698L30.550013 225.64792L26.393763 225.64792Q25.018763 225.64792 25.018763 227.0073Q25.018763 228.0698 25.925013 228.46042L30.550013 228.46042L30.550013 229.55417L24.206263 229.55417L24.206263 228.52292ZM30.675013 215.91354Q30.675013 217.21042 29.831263 218.02292Q28.971888 218.8198 27.550013 218.8198L27.362513 218.8198Q26.409388 218.8198 25.675013 218.46042Q24.925013 218.10104 24.518763 217.46042Q24.096888 216.80417 24.096888 216.05417Q24.096888 214.8198 24.909388 214.1323Q25.721888 213.4448 27.237513 213.4448L27.690638 213.4448L27.690638 217.74167Q28.628138 217.71042 29.206263 217.1948Q29.784388 216.66354 29.784388 215.85104Q29.784388 215.28854 29.550013 214.89792Q29.315638 214.49167 28.925013 214.17917L29.440638 213.52292Q30.675013 214.3198 30.675013 215.91354ZM24.987513 216.05417Q24.987513 216.71042 25.471888 217.16354Q25.940638 217.60104 26.800013 217.6948L26.800013 214.52292L26.721888 214.52292Q25.893763 214.5698 25.440638 214.97604Q24.987513 215.36667 24.987513 216.05417ZM27.081263 212.58542Q25.768763 212.58542 24.550013 212.24167Q23.331263 211.8823 22.331263 211.17917Q21.331263 210.47604 20.925013 209.71042L21.643763 209.49167Q22.300013 210.35104 23.643763 210.89792Q24.987513 211.4448 26.659388 211.49167L27.159388 211.5073Q29.425013 211.5073 31.081263 210.67917Q32.08126 210.17917 32.64376 209.49167L33.30001 209.71042Q32.878136 210.49167 31.846888 211.21042Q29.862513 212.58542 27.081263 212.58542ZM24.206263 207.52292L24.909388 207.49167Q24.096888 206.80417 24.096888 205.61667Q24.096888 204.28854 25.112513 203.80417Q24.659388 203.49167 24.378138 202.99167Q24.096888 202.47604 24.096888 201.78854Q24.096888 199.6948 26.300013 199.66354L30.550013 199.66354L30.550013 200.74167L26.362513 200.74167Q25.690638 200.74167 25.362513 201.05417Q25.018763 201.36667 25.018763 202.10104Q25.018763 202.71042 25.378138 203.11667Q25.737513 203.5073 26.346888 203.5698L30.550013 203.5698L30.550013 204.64792L26.393763 204.64792Q25.018763 204.64792 25.018763 206.0073Q25.018763 207.0698 25.925013 207.46042L30.550013 207.46042L30.550013 208.55417L24.206263 208.55417L24.206263 207.52292ZM30.550013 196.36667L30.550013 197.4448L24.206263 197.4448L24.206263 196.36667L30.550013 196.36667ZM22.534388 197.53854Q22.268763 197.53854 22.081263 197.3823Q21.893763 197.21042 21.893763 196.89792Q21.893763 196.58542 22.081263 196.42917Q22.268763 196.2573 22.534388 196.2573Q22.784388 196.2573 22.971888 196.42917Q23.143763 196.58542 23.143763 196.89792Q23.143763 197.21042 22.971888 197.3823Q22.784388 197.53854 22.534388 197.53854ZM30.550013 193.36667L30.550013 194.4448L21.550013 194.4448L21.550013 193.36667L30.550013 193.36667ZM30.550013 190.36667L30.550013 191.4448L21.550013 191.4448L21.550013 190.36667L30.550013 190.36667ZM30.550013 187.36667L30.550013 188.4448L24.206263 188.4448L24.206263 187.36667L30.550013 187.36667ZM22.534388 188.53854Q22.268763 188.53854 22.081263 188.3823Q21.893763 188.21042 21.893763 187.89792Q21.893763 187.58542 22.081263 187.42917Q22.268763 187.2573 22.534388 187.2573Q22.784388 187.2573 22.971888 187.42917Q23.143763 187.58542 23.143763 187.89792Q23.143763 188.21042 22.971888 188.3823Q22.784388 188.53854 22.534388 188.53854ZM28.862513 178.85104Q28.425013 178.85104 28.190638 179.1948Q27.940638 179.52292 27.768763 180.35104Q27.596888 181.16354 27.346888 181.64792Q27.096888 182.1323 26.768763 182.36667Q26.425013 182.58542 25.956263 182.58542Q25.175013 182.58542 24.643763 181.92917Q24.096888 181.27292 24.096888 180.24167Q24.096888 179.16354 24.659388 178.5073Q25.206263 177.83542 26.065638 177.83542L26.065638 178.91354Q25.628138 178.91354 25.315638 179.30417Q24.987513 179.67917 24.987513 180.24167Q24.987513 180.83542 25.253138 181.17917Q25.503138 181.5073 25.909388 181.5073Q26.300013 181.5073 26.503138 181.1948Q26.706263 180.8823 26.893763 180.0698Q27.065638 179.2573 27.315638 178.7573Q27.565638 178.2573 27.925013 178.02292Q28.284388 177.77292 28.784388 177.77292Q29.643763 177.77292 30.159388 178.46042Q30.675013 179.1323 30.675013 180.21042Q30.675013 180.97604 30.409388 181.5698Q30.128138 182.14792 29.643763 182.47604Q29.159388 182.80417 28.596888 182.80417L28.596888 181.72604Q29.143763 181.6948 29.471888 181.28854Q29.784388 180.8823 29.784388 180.21042Q29.784388 179.60104 29.534388 179.22604Q29.284388 178.85104 28.862513 178.85104ZM30.675013 173.91354Q30.675013 175.21042 29.831263 176.02292Q28.971888 176.8198 27.550013 176.8198L27.362513 176.8198Q26.409388 176.8198 25.675013 176.46042Q24.925013 176.10104 24.518763 175.46042Q24.096888 174.80417 24.096888 174.05417Q24.096888 172.8198 24.909388 172.1323Q25.721888 171.4448 27.237513 171.4448L27.690638 171.4448L27.690638 175.74167Q28.628138 175.71042 29.206263 175.1948Q29.784388 174.66354 29.784388 173.85104Q29.784388 173.28854 29.550013 172.89792Q29.315638 172.49167 28.925013 172.17917L29.440638 171.52292Q30.675013 172.3198 30.675013 173.91354ZM24.987513 174.05417Q24.987513 174.71042 25.471888 175.16354Q25.940638 175.60104 26.800013 175.6948L26.800013 172.52292L26.721888 172.52292Q25.893763 172.5698 25.440638 172.97604Q24.987513 173.36667 24.987513 174.05417ZM29.784388 168.0073Q29.784388 167.42917 29.440638 166.99167Q29.081263 166.55417 28.550013 166.5073L28.550013 165.47604Q29.096888 165.5073 29.596888 165.86667Q30.081263 166.21042 30.378138 166.78854Q30.675013 167.35104 30.675013 168.0073Q30.675013 169.30417 29.815638 170.0698Q28.940638 170.8198 27.440638 170.8198L27.253138 170.8198Q26.331263 170.8198 25.612513 170.49167Q24.893763 170.14792 24.503138 169.52292Q24.096888 168.8823 24.096888 168.0073Q24.096888 166.9448 24.737513 166.24167Q25.362513 165.52292 26.393763 165.47604L26.393763 166.5073Q25.768763 166.55417 25.378138 166.97604Q24.987513 167.39792 24.987513 168.0073Q24.987513 168.83542 25.581263 169.28854Q26.175013 169.74167 27.300013 169.74167L27.503138 169.74167Q28.596888 169.74167 29.190638 169.28854Q29.784388 168.83542 29.784388 168.0073ZM27.143763 162.03854Q28.456263 162.03854 29.659388 162.3823Q30.846888 162.72604 31.862513 163.4448Q32.878136 164.14792 33.30001 164.91354L32.64376 165.14792Q31.956263 164.24167 30.503138 163.6948Q29.034388 163.14792 27.268763 163.1323L27.081263 163.1323Q25.846888 163.1323 24.784388 163.39792Q23.721888 163.64792 22.893763 164.11667Q22.050013 164.5698 21.581263 165.14792L20.925013 164.91354Q21.346888 164.14792 22.346888 163.4448Q23.346888 162.74167 24.565638 162.39792Q25.768763 162.03854 27.143763 162.03854Z" fill-rule="nonzero"/><path fill="#757575" d="M78.6125 299.3094Q78.6125 301.21564 77.95625 302.15314Q77.31563 303.075 75.925 303.075Q74.56563 303.075 73.90938 302.16876Q73.25313 301.2625 73.22188 299.45L73.22188 298.0125Q73.22188 296.1219 73.8625 295.21564Q74.51875 294.29376 75.90938 294.29376Q77.28438 294.29376 77.94063 295.1844Q78.59688 296.0594 78.6125 297.90314L78.6125 299.3094ZM77.51875 297.825Q77.51875 296.45 77.12813 295.825Q76.75313 295.1844 75.90938 295.1844Q75.08125 295.1844 74.69063 295.825Q74.31563 296.45 74.31563 297.7469L74.31563 299.48126Q74.31563 300.85626 74.70625 301.52814Q75.1125 302.1844 75.925 302.1844Q76.72188 302.1844 77.1125 301.5594Q77.50313 300.9344 77.51875 299.60626L77.51875 297.825Z" fill-rule="nonzero"/><path fill="#757575" d="M59.753124 246.50209L60.190624 242.25209L64.56563 242.25209L64.56563 243.25209L61.1125 243.25209L60.846874 245.58022Q61.4875 245.20522 62.284374 245.20522Q63.440624 245.20522 64.12813 245.98647Q64.81563 246.75209 64.81563 248.06459Q64.81563 249.37709 64.09688 250.14272Q63.39375 250.90834 62.1125 250.90834Q60.9875 250.90834 60.26875 250.28334Q59.55 249.64272 59.45625 248.53334L60.471874 248.53334Q60.58125 249.26772 61.003124 249.64272Q61.425 250.01772 62.1125 250.01772Q62.8625 250.01772 63.3 249.50209Q63.7375 248.98647 63.7375 248.08022Q63.7375 247.22084 63.26875 246.70522Q62.8 246.18959 62.01875 246.18959Q61.315624 246.18959 60.909374 246.48647L60.628124 246.72084L59.753124 246.50209ZM71.6125 247.14272Q71.6125 249.04897 70.95625 249.98647Q70.31563 250.90834 68.925 250.90834Q67.56563 250.90834 66.90938 250.00209Q66.25313 249.09584 66.22188 247.28334L66.22188 245.84584Q66.22188 243.95522 66.8625 243.04897Q67.51875 242.12709 68.90938 242.12709Q70.28438 242.12709 70.94063 243.01772Q71.59688 243.89272 71.6125 245.73647L71.6125 247.14272ZM70.51875 245.65834Q70.51875 244.28334 70.12813 243.65834Q69.75313 243.01772 68.90938 243.01772Q68.08125 243.01772 67.69063 243.65834Q67.31563 244.28334 67.31563 245.58022L67.31563 247.31459Q67.31563 248.68959 67.70625 249.36147Q68.1125 250.01772 68.925 250.01772Q69.72188 250.01772 70.1125 249.39272Q70.50313 248.76772 70.51875 247.43959L70.51875 245.65834ZM78.6125 247.14272Q78.6125 249.04897 77.95625 249.98647Q77.31563 250.90834 75.925 250.90834Q74.56563 250.90834 73.90938 250.00209Q73.25313 249.09584 73.22188 247.28334L73.22188 245.84584Q73.22188 243.95522 73.8625 243.04897Q74.51875 242.12709 75.90938 242.12709Q77.28438 242.12709 77.94063 243.01772Q78.59688 243.89272 78.6125 245.73647L78.6125 247.14272ZM77.51875 245.65834Q77.51875 244.28334 77.12813 243.65834Q76.75313 243.01772 75.90938 243.01772Q75.08125 243.01772 74.69063 243.65834Q74.31563 244.28334 74.31563 245.58022L74.31563 247.31459Q74.31563 248.68959 74.70625 249.36147Q75.1125 250.01772 75.925 250.01772Q76.72188 250.01772 77.1125 249.39272Q77.50313 248.76772 77.51875 247.43959L77.51875 245.65834Z" fill-rule="nonzero"/><path fill="#757575" d="M55.815624 198.61667L54.7375 198.61667L54.7375 191.39792L52.55 192.1948L52.55 191.21042L55.659374 190.03854L55.815624 190.03854L55.815624 198.61667ZM64.6125 194.97604Q64.6125 196.8823 63.95625 197.8198Q63.315624 198.74167 61.925 198.74167Q60.565624 198.74167 59.909374 197.83542Q59.253124 196.92917 59.221874 195.11667L59.221874 193.67917Q59.221874 191.78854 59.8625 190.8823Q60.51875 189.96042 61.909374 189.96042Q63.284374 189.96042 63.940624 190.85104Q64.59688 191.72604 64.6125 193.5698L64.6125 194.97604ZM63.51875 193.49167Q63.51875 192.11667 63.128124 191.49167Q62.753124 190.85104 61.909374 190.85104Q61.08125 190.85104 60.690624 191.49167Q60.315624 192.11667 60.315624 193.41354L60.315624 195.14792Q60.315624 196.52292 60.70625 197.1948Q61.1125 197.85104 61.925 197.85104Q62.721874 197.85104 63.1125 197.22604Q63.503124 196.60104 63.51875 195.27292L63.51875 193.49167ZM71.6125 194.97604Q71.6125 196.8823 70.95625 197.8198Q70.31563 198.74167 68.925 198.74167Q67.56563 198.74167 66.90938 197.83542Q66.25313 196.92917 66.22188 195.11667L66.22188 193.67917Q66.22188 191.78854 66.8625 190.8823Q67.51875 189.96042 68.90938 189.96042Q70.28438 189.96042 70.94063 190.85104Q71.59688 191.72604 71.6125 193.5698L71.6125 194.97604ZM70.51875 193.49167Q70.51875 192.11667 70.12813 191.49167Q69.75313 190.85104 68.90938 190.85104Q68.08125 190.85104 67.69063 191.49167Q67.31563 192.11667 67.31563 193.41354L67.31563 195.14792Q67.31563 196.52292 67.70625 197.1948Q68.1125 197.85104 68.925 197.85104Q69.72188 197.85104 70.1125 197.22604Q70.50313 196.60104 70.51875 195.27292L70.51875 193.49167ZM78.6125 194.97604Q78.6125 196.8823 77.95625 197.8198Q77.31563 198.74167 75.925 198.74167Q74.56563 198.74167 73.90938 197.83542Q73.25313 196.92917 73.22188 195.11667L73.22188 193.67917Q73.22188 191.78854 73.8625 190.8823Q74.51875 189.96042 75.90938 189.96042Q77.28438 189.96042 77.94063 190.85104Q78.59688 191.72604 78.6125 193.5698L78.6125 194.97604ZM77.51875 193.49167Q77.51875 192.11667 77.12813 191.49167Q76.75313 190.85104 75.90938 190.85104Q75.08125 190.85104 74.69063 191.49167Q74.31563 192.11667 74.31563 193.41354L74.31563 195.14792Q74.31563 196.52292 74.70625 197.1948Q75.1125 197.85104 75.925 197.85104Q76.72188 197.85104 77.1125 197.22604Q77.50313 196.60104 77.51875 195.27292L77.51875 193.49167Z" fill-rule="nonzero"/><path fill="#757575" d="M55.815624 146.45L54.7375 146.45L54.7375 139.23125L52.55 140.02812L52.55 139.04375L55.659374 137.87187L55.815624 137.87187L55.815624 146.45ZM59.753124 142.16875L60.190624 137.91875L64.56563 137.91875L64.56563 138.91875L61.1125 138.91875L60.846874 141.24687Q61.4875 140.87187 62.284374 140.87187Q63.440624 140.87187 64.12813 141.65312Q64.81563 142.41875 64.81563 143.73125Q64.81563 145.04375 64.09688 145.80937Q63.39375 146.575 62.1125 146.575Q60.9875 146.575 60.26875 145.95Q59.55 145.30937 59.45625 144.2L60.471874 144.2Q60.58125 144.93437 61.003124 145.30937Q61.425 145.68437 62.1125 145.68437Q62.8625 145.68437 63.3 145.16875Q63.7375 144.65312 63.7375 143.74687Q63.7375 142.8875 63.26875 142.37187Q62.8 141.85625 62.01875 141.85625Q61.315624 141.85625 60.909374 142.15312L60.628124 142.3875L59.753124 142.16875ZM71.6125 142.80937Q71.6125 144.71562 70.95625 145.65312Q70.31563 146.575 68.925 146.575Q67.56563 146.575 66.90938 145.66875Q66.25313 144.7625 66.22188 142.95L66.22188 141.5125Q66.22188 139.62187 66.8625 138.71562Q67.51875 137.79375 68.90938 137.79375Q70.28438 137.79375 70.94063 138.68437Q71.59688 139.55937 71.6125 141.40312L71.6125 142.80937ZM70.51875 141.325Q70.51875 139.95 70.12813 139.325Q69.75313 138.68437 68.90938 138.68437Q68.08125 138.68437 67.69063 139.325Q67.31563 139.95 67.31563 141.24687L67.31563 142.98125Q67.31563 144.35625 67.70625 145.02812Q68.1125 145.68437 68.925 145.68437Q69.72188 145.68437 70.1125 145.05937Q70.50313 144.43437 70.51875 143.10625L70.51875 141.325ZM78.6125 142.80937Q78.6125 144.71562 77.95625 145.65312Q77.31563 146.575 75.925 146.575Q74.56563 146.575 73.90938 145.66875Q73.25313 144.7625 73.22188 142.95L73.22188 141.5125Q73.22188 139.62187 73.8625 138.71562Q74.51875 137.79375 75.90938 137.79375Q77.28438 137.79375 77.94063 138.68437Q78.59688 139.55937 78.6125 141.40312L78.6125 142.80937ZM77.51875 141.325Q77.51875 139.95 77.12813 139.325Q76.75313 138.68437 75.90938 138.68437Q75.08125 138.68437 74.69063 139.325Q74.31563 139.95 74.31563 141.24687L74.31563 142.98125Q74.31563 144.35625 74.70625 145.02812Q75.1125 145.68437 75.925 145.68437Q76.72188 145.68437 77.1125 145.05937Q77.50313 144.43437 77.51875 143.10625L77.51875 141.325Z" fill-rule="nonzero"/><path fill="#757575" d="M57.846874 94.28333L52.253124 94.28333L52.253124 93.50208L55.20625 90.22083Q55.8625 89.47083 56.1125 89.01771Q56.3625 88.54896 56.3625 88.04896Q56.3625 87.37708 55.95625 86.95521Q55.565624 86.51771 54.878124 86.51771Q54.08125 86.51771 53.628124 86.98646Q53.175 87.43958 53.175 88.26771L52.096874 88.26771Q52.096874 87.08021 52.846874 86.36146Q53.6125 85.62708 54.878124 85.62708Q56.08125 85.62708 56.76875 86.25208Q57.45625 86.87708 57.45625 87.92396Q57.45625 89.17396 55.846874 90.92396L53.565624 93.39271L57.846874 93.39271L57.846874 94.28333ZM64.6125 90.64271Q64.6125 92.54896 63.95625 93.48646Q63.315624 94.40833 61.925 94.40833Q60.565624 94.40833 59.909374 93.50208Q59.253124 92.59583 59.221874 90.78333L59.221874 89.34583Q59.221874 87.45521 59.8625 86.54896Q60.51875 85.62708 61.909374 85.62708Q63.284374 85.62708 63.940624 86.51771Q64.59688 87.39271 64.6125 89.23646L64.6125 90.64271ZM63.51875 89.15833Q63.51875 87.78333 63.128124 87.15833Q62.753124 86.51771 61.909374 86.51771Q61.08125 86.51771 60.690624 87.15833Q60.315624 87.78333 60.315624 89.08021L60.315624 90.81458Q60.315624 92.18958 60.70625 92.86146Q61.1125 93.51771 61.925 93.51771Q62.721874 93.51771 63.1125 92.89271Q63.503124 92.26771 63.51875 90.93958L63.51875 89.15833ZM71.6125 90.64271Q71.6125 92.54896 70.95625 93.48646Q70.31563 94.40833 68.925 94.40833Q67.56563 94.40833 66.90938 93.50208Q66.25313 92.59583 66.22188 90.78333L66.22188 89.34583Q66.22188 87.45521 66.8625 86.54896Q67.51875 85.62708 68.90938 85.62708Q70.28438 85.62708 70.94063 86.51771Q71.59688 87.39271 71.6125 89.23646L71.6125 90.64271ZM70.51875 89.15833Q70.51875 87.78333 70.12813 87.15833Q69.75313 86.51771 68.90938 86.51771Q68.08125 86.51771 67.69063 87.15833Q67.31563 87.78333 67.31563 89.08021L67.31563 90.81458Q67.31563 92.18958 67.70625 92.86146Q68.1125 93.51771 68.925 93.51771Q69.72188 93.51771 70.1125 92.89271Q70.50313 92.26771 70.51875 90.93958L70.51875 89.15833ZM78.6125 90.64271Q78.6125 92.54896 77.95625 93.48646Q77.31563 94.40833 75.925 94.40833Q74.56563 94.40833 73.90938 93.50208Q73.25313 92.59583 73.22188 90.78333L73.22188 89.34583Q73.22188 87.45521 73.8625 86.54896Q74.51875 85.62708 75.90938 85.62708Q77.28438 85.62708 77.94063 86.51771Q78.59688 87.39271 78.6125 89.23646L78.6125 90.64271ZM77.51875 89.15833Q77.51875 87.78333 77.12813 87.15833Q76.75313 86.51771 75.90938 86.51771Q75.08125 86.51771 74.69063 87.15833Q74.31563 87.78333 74.31563 89.08021L74.31563 90.81458Q74.31563 92.18958 74.70625 92.86146Q75.1125 93.51771 75.925 93.51771Q76.72188 93.51771 77.1125 92.89271Q77.50313 92.26771 77.51875 90.93958L77.51875 89.15833Z" fill-rule="nonzero"/><path fill="#757575" d="M124.140625 316.45L123.0625 316.45L123.0625 309.23126L120.875 310.02814L120.875 309.04376L123.984375 307.8719L124.140625 307.8719L124.140625 316.45ZM132.9375 312.8094Q132.9375 314.71564 132.28125 315.65314Q131.64062 316.575 130.25 316.575Q128.89062 316.575 128.23438 315.66876Q127.578125 314.7625 127.546875 312.95L127.546875 311.5125Q127.546875 309.6219 128.1875 308.71564Q128.84375 307.79376 130.23438 307.79376Q131.60938 307.79376 132.26562 308.6844Q132.92188 309.5594 132.9375 311.40314L132.9375 312.8094ZM131.84375 311.325Q131.84375 309.95 131.45312 309.325Q131.07812 308.6844 130.23438 308.6844Q129.40625 308.6844 129.01562 309.325Q128.64062 309.95 128.64062 311.2469L128.64062 312.98126Q128.64062 314.35626 129.03125 315.02814Q129.4375 315.6844 130.25 315.6844Q131.04688 315.6844 131.4375 315.0594Q131.82812 314.4344 131.84375 313.10626L131.84375 311.325Z" fill-rule="nonzero"/><path fill="#757575" d="M203.29062 316.45L202.2125 316.45L202.2125 309.23126L200.025 310.02814L200.025 309.04376L203.13437 307.8719L203.29062 307.8719L203.29062 316.45ZM212.0875 312.8094Q212.0875 314.71564 211.43124 315.65314Q210.79062 316.575 209.4 316.575Q208.04062 316.575 207.38437 315.66876Q206.72812 314.7625 206.69687 312.95L206.69687 311.5125Q206.69687 309.6219 207.3375 308.71564Q207.99374 307.79376 209.38437 307.79376Q210.75937 307.79376 211.41562 308.6844Q212.07187 309.5594 212.0875 311.40314L212.0875 312.8094ZM210.99374 311.325Q210.99374 309.95 210.60312 309.325Q210.22812 308.6844 209.38437 308.6844Q208.55624 308.6844 208.16562 309.325Q207.79062 309.95 207.79062 311.2469L207.79062 312.98126Q207.79062 314.35626 208.18124 315.02814Q208.5875 315.6844 209.4 315.6844Q210.19687 315.6844 210.5875 315.0594Q210.97812 314.4344 210.99374 313.10626L210.99374 311.325ZM219.0875 312.8094Q219.0875 314.71564 218.43124 315.65314Q217.79062 316.575 216.4 316.575Q215.04062 316.575 214.38437 315.66876Q213.72812 314.7625 213.69687 312.95L213.69687 311.5125Q213.69687 309.6219 214.3375 308.71564Q214.99374 307.79376 216.38437 307.79376Q217.75937 307.79376 218.41562 308.6844Q219.07187 309.5594 219.0875 311.40314L219.0875 312.8094ZM217.99374 311.325Q217.99374 309.95 217.60312 309.325Q217.22812 308.6844 216.38437 308.6844Q215.55624 308.6844 215.16562 309.325Q214.79062 309.95 214.79062 311.2469L214.79062 312.98126Q214.79062 314.35626 215.18124 315.02814Q215.5875 315.6844 216.4 315.6844Q217.19687 315.6844 217.5875 315.0594Q217.97812 314.4344 217.99374 313.10626L217.99374 311.325Z" fill-rule="nonzero"/><path fill="#757575" d="M282.4406 316.45L281.3625 316.45L281.3625 309.23126L279.175 310.02814L279.175 309.04376L282.28436 307.8719L282.4406 307.8719L282.4406 316.45ZM291.2375 312.8094Q291.2375 314.71564 290.58124 315.65314Q289.9406 316.575 288.55 316.575Q287.1906 316.575 286.53436 315.66876Q285.8781 314.7625 285.84686 312.95L285.84686 311.5125Q285.84686 309.6219 286.4875 308.71564Q287.14374 307.79376 288.53436 307.79376Q289.90936 307.79376 290.5656 308.6844Q291.22186 309.5594 291.2375 311.40314L291.2375 312.8094ZM290.14374 311.325Q290.14374 309.95 289.7531 309.325Q289.3781 308.6844 288.53436 308.6844Q287.70624 308.6844 287.3156 309.325Q286.9406 309.95 286.9406 311.2469L286.9406 312.98126Q286.9406 314.35626 287.33124 315.02814Q287.7375 315.6844 288.55 315.6844Q289.34686 315.6844 289.7375 315.0594Q290.1281 314.4344 290.14374 313.10626L290.14374 311.325ZM298.2375 312.8094Q298.2375 314.71564 297.58124 315.65314Q296.9406 316.575 295.55 316.575Q294.1906 316.575 293.53436 315.66876Q292.8781 314.7625 292.84686 312.95L292.84686 311.5125Q292.84686 309.6219 293.4875 308.71564Q294.14374 307.79376 295.53436 307.79376Q296.90936 307.79376 297.5656 308.6844Q298.22186 309.5594 298.2375 311.40314L298.2375 312.8094ZM297.14374 311.325Q297.14374 309.95 296.7531 309.325Q296.3781 308.6844 295.53436 308.6844Q294.70624 308.6844 294.3156 309.325Q293.9406 309.95 293.9406 311.2469L293.9406 312.98126Q293.9406 314.35626 294.33124 315.02814Q294.7375 315.6844 295.55 315.6844Q296.34686 315.6844 296.7375 315.0594Q297.1281 314.4344 297.14374 313.10626L297.14374 311.325ZM305.2375 312.8094Q305.2375 314.71564 304.58124 315.65314Q303.9406 316.575 302.55 316.575Q301.1906 316.575 300.53436 315.66876Q299.8781 314.7625 299.84686 312.95L299.84686 311.5125Q299.84686 309.6219 300.4875 308.71564Q301.14374 307.79376 302.53436 307.79376Q303.90936 307.79376 304.5656 308.6844Q305.22186 309.5594 305.2375 311.40314L305.2375 312.8094ZM304.14374 311.325Q304.14374 309.95 303.7531 309.325Q303.3781 308.6844 302.53436 308.6844Q301.70624 308.6844 301.3156 309.325Q300.9406 309.95 300.9406 311.2469L300.9406 312.98126Q300.9406 314.35626 301.33124 315.02814Q301.7375 315.6844 302.55 315.6844Q303.34686 315.6844 303.7375 315.0594Q304.1281 314.4344 304.14374 313.10626L304.14374 311.325Z" fill-rule="nonzero"/><path fill="#757575" d="M361.59064 316.45L360.5125 316.45L360.5125 309.23126L358.325 310.02814L358.325 309.04376L361.4344 307.8719L361.59064 307.8719L361.59064 316.45ZM370.3875 312.8094Q370.3875 314.71564 369.73126 315.65314Q369.09064 316.575 367.7 316.575Q366.34064 316.575 365.6844 315.66876Q365.02814 314.7625 364.9969 312.95L364.9969 311.5125Q364.9969 309.6219 365.6375 308.71564Q366.29376 307.79376 367.6844 307.79376Q369.0594 307.79376 369.71564 308.6844Q370.3719 309.5594 370.3875 311.40314L370.3875 312.8094ZM369.29376 311.325Q369.29376 309.95 368.90314 309.325Q368.52814 308.6844 367.6844 308.6844Q366.85626 308.6844 366.46564 309.325Q366.09064 309.95 366.09064 311.2469L366.09064 312.98126Q366.09064 314.35626 366.48126 315.02814Q366.8875 315.6844 367.7 315.6844Q368.4969 315.6844 368.8875 315.0594Q369.27814 314.4344 369.29376 313.10626L369.29376 311.325ZM377.3875 312.8094Q377.3875 314.71564 376.73126 315.65314Q376.09064 316.575 374.7 316.575Q373.34064 316.575 372.6844 315.66876Q372.02814 314.7625 371.9969 312.95L371.9969 311.5125Q371.9969 309.6219 372.6375 308.71564Q373.29376 307.79376 374.6844 307.79376Q376.0594 307.79376 376.71564 308.6844Q377.3719 309.5594 377.3875 311.40314L377.3875 312.8094ZM376.29376 311.325Q376.29376 309.95 375.90314 309.325Q375.52814 308.6844 374.6844 308.6844Q373.85626 308.6844 373.46564 309.325Q373.09064 309.95 373.09064 311.2469L373.09064 312.98126Q373.09064 314.35626 373.48126 315.02814Q373.8875 315.6844 374.7 315.6844Q375.4969 315.6844 375.8875 315.0594Q376.27814 314.4344 376.29376 313.10626L376.29376 311.325ZM384.3875 312.8094Q384.3875 314.71564 383.73126 315.65314Q383.09064 316.575 381.7 316.575Q380.34064 316.575 379.6844 315.66876Q379.02814 314.7625 378.9969 312.95L378.9969 311.5125Q378.9969 309.6219 379.6375 308.71564Q380.29376 307.79376 381.6844 307.79376Q383.0594 307.79376 383.71564 308.6844Q384.3719 309.5594 384.3875 311.40314L384.3875 312.8094ZM383.29376 311.325Q383.29376 309.95 382.90314 309.325Q382.52814 308.6844 381.6844 308.6844Q380.85626 308.6844 380.46564 309.325Q380.09064 309.95 380.09064 311.2469L380.09064 312.98126Q380.09064 314.35626 380.48126 315.02814Q380.8875 315.6844 381.7 315.6844Q382.4969 315.6844 382.8875 315.0594Q383.27814 314.4344 383.29376 313.10626L383.29376 311.325ZM391.3875 312.8094Q391.3875 314.71564 390.73126 315.65314Q390.09064 316.575 388.7 316.575Q387.34064 316.575 386.6844 315.66876Q386.02814 314.7625 385.9969 312.95L385.9969 311.5125Q385.9969 309.6219 386.6375 308.71564Q387.29376 307.79376 388.6844 307.79376Q390.0594 307.79376 390.71564 308.6844Q391.3719 309.5594 391.3875 311.40314L391.3875 312.8094ZM390.29376 311.325Q390.29376 309.95 389.90314 309.325Q389.52814 308.6844 388.6844 308.6844Q387.85626 308.6844 387.46564 309.325Q387.09064 309.95 387.09064 311.2469L387.09064 312.98126Q387.09064 314.35626 387.48126 315.02814Q387.8875 315.6844 388.7 315.6844Q389.4969 315.6844 389.8875 315.0594Q390.27814 314.4344 390.29376 313.10626L390.29376 311.325Z" fill-rule="nonzero"/><path fill="#757575" d="M440.74063 316.45L439.6625 316.45L439.6625 309.23126L437.475 310.02814L437.475 309.04376L440.58438 307.8719L440.74063 307.8719L440.74063 316.45ZM449.5375 312.8094Q449.5375 314.71564 448.88126 315.65314Q448.24063 316.575 446.85 316.575Q445.49063 316.575 444.83438 315.66876Q444.17813 314.7625 444.14688 312.95L444.14688 311.5125Q444.14688 309.6219 444.7875 308.71564Q445.44376 307.79376 446.83438 307.79376Q448.20938 307.79376 448.86563 308.6844Q449.52188 309.5594 449.5375 311.40314L449.5375 312.8094ZM448.44376 311.325Q448.44376 309.95 448.05313 309.325Q447.67813 308.6844 446.83438 308.6844Q446.00626 308.6844 445.61563 309.325Q445.24063 309.95 445.24063 311.2469L445.24063 312.98126Q445.24063 314.35626 445.63126 315.02814Q446.0375 315.6844 446.85 315.6844Q447.64688 315.6844 448.0375 315.0594Q448.42813 314.4344 448.44376 313.10626L448.44376 311.325ZM456.5375 312.8094Q456.5375 314.71564 455.88126 315.65314Q455.24063 316.575 453.85 316.575Q452.49063 316.575 451.83438 315.66876Q451.17813 314.7625 451.14688 312.95L451.14688 311.5125Q451.14688 309.6219 451.7875 308.71564Q452.44376 307.79376 453.83438 307.79376Q455.20938 307.79376 455.86563 308.6844Q456.52188 309.5594 456.5375 311.40314L456.5375 312.8094ZM455.44376 311.325Q455.44376 309.95 455.05313 309.325Q454.67813 308.6844 453.83438 308.6844Q453.00626 308.6844 452.61563 309.325Q452.24063 309.95 452.24063 311.2469L452.24063 312.98126Q452.24063 314.35626 452.63126 315.02814Q453.0375 315.6844 453.85 315.6844Q454.64688 315.6844 455.0375 315.0594Q455.42813 314.4344 455.44376 313.10626L455.44376 311.325ZM463.5375 312.8094Q463.5375 314.71564 462.88126 315.65314Q462.24063 316.575 460.85 316.575Q459.49063 316.575 458.83438 315.66876Q458.17813 314.7625 458.14688 312.95L458.14688 311.5125Q458.14688 309.6219 458.7875 308.71564Q459.44376 307.79376 460.83438 307.79376Q462.20938 307.79376 462.86563 308.6844Q463.52188 309.5594 463.5375 311.40314L463.5375 312.8094ZM462.44376 311.325Q462.44376 309.95 462.05313 309.325Q461.67813 308.6844 460.83438 308.6844Q460.00626 308.6844 459.61563 309.325Q459.24063 309.95 459.24063 311.2469L459.24063 312.98126Q459.24063 314.35626 459.63126 315.02814Q460.0375 315.6844 460.85 315.6844Q461.64688 315.6844 462.0375 315.0594Q462.42813 314.4344 462.44376 313.10626L462.44376 311.325ZM470.5375 312.8094Q470.5375 314.71564 469.88126 315.65314Q469.24063 316.575 467.85 316.575Q466.49063 316.575 465.83438 315.66876Q465.17813 314.7625 465.14688 312.95L465.14688 311.5125Q465.14688 309.6219 465.7875 308.71564Q466.44376 307.79376 467.83438 307.79376Q469.20938 307.79376 469.86563 308.6844Q470.52188 309.5594 470.5375 311.40314L470.5375 312.8094ZM469.44376 311.325Q469.44376 309.95 469.05313 309.325Q468.67813 308.6844 467.83438 308.6844Q467.00626 308.6844 466.61563 309.325Q466.24063 309.95 466.24063 311.2469L466.24063 312.98126Q466.24063 314.35626 466.63126 315.02814Q467.0375 315.6844 467.85 315.6844Q468.64688 315.6844 469.0375 315.0594Q469.42813 314.4344 469.44376 313.10626L469.44376 311.325ZM477.5375 312.8094Q477.5375 314.71564 476.88126 315.65314Q476.24063 316.575 474.85 316.575Q473.49063 316.575 472.83438 315.66876Q472.17813 314.7625 472.14688 312.95L472.14688 311.5125Q472.14688 309.6219 472.7875 308.71564Q473.44376 307.79376 474.83438 307.79376Q476.20938 307.79376 476.86563 308.6844Q477.52188 309.5594 477.5375 311.40314L477.5375 312.8094ZM476.44376 311.325Q476.44376 309.95 476.05313 309.325Q475.67813 308.6844 474.83438 308.6844Q474.00626 308.6844 473.61563 309.325Q473.24063 309.95 473.24063 311.2469L473.24063 312.98126Q473.24063 314.35626 473.63126 315.02814Q474.0375 315.6844 474.85 315.6844Q475.64688 315.6844 476.0375 315.0594Q476.42813 314.4344 476.44376 313.10626L476.44376 311.325Z" fill-rule="nonzero"/><path fill="#757575" d="M519.8906 316.45L518.8125 316.45L518.8125 309.23126L516.625 310.02814L516.625 309.04376L519.7344 307.8719L519.8906 307.8719L519.8906 316.45ZM528.6875 312.8094Q528.6875 314.71564 528.03125 315.65314Q527.3906 316.575 526.0 316.575Q524.6406 316.575 523.9844 315.66876Q523.3281 314.7625 523.2969 312.95L523.2969 311.5125Q523.2969 309.6219 523.9375 308.71564Q524.59375 307.79376 525.9844 307.79376Q527.3594 307.79376 528.0156 308.6844Q528.6719 309.5594 528.6875 311.40314L528.6875 312.8094ZM527.59375 311.325Q527.59375 309.95 527.2031 309.325Q526.8281 308.6844 525.9844 308.6844Q525.15625 308.6844 524.7656 309.325Q524.3906 309.95 524.3906 311.2469L524.3906 312.98126Q524.3906 314.35626 524.78125 315.02814Q525.1875 315.6844 526.0 315.6844Q526.7969 315.6844 527.1875 315.0594Q527.5781 314.4344 527.59375 313.10626L527.59375 311.325ZM535.6875 312.8094Q535.6875 314.71564 535.03125 315.65314Q534.3906 316.575 533.0 316.575Q531.6406 316.575 530.9844 315.66876Q530.3281 314.7625 530.2969 312.95L530.2969 311.5125Q530.2969 309.6219 530.9375 308.71564Q531.59375 307.79376 532.9844 307.79376Q534.3594 307.79376 535.0156 308.6844Q535.6719 309.5594 535.6875 311.40314L535.6875 312.8094ZM534.59375 311.325Q534.59375 309.95 534.2031 309.325Q533.8281 308.6844 532.9844 308.6844Q532.15625 308.6844 531.7656 309.325Q531.3906 309.95 531.3906 311.2469L531.3906 312.98126Q531.3906 314.35626 531.78125 315.02814Q532.1875 315.6844 533.0 315.6844Q533.7969 315.6844 534.1875 315.0594Q534.5781 314.4344 534.59375 313.10626L534.59375 311.325ZM542.6875 312.8094Q542.6875 314.71564 542.03125 315.65314Q541.3906 316.575 540.0 316.575Q538.6406 316.575 537.9844 315.66876Q537.3281 314.7625 537.2969 312.95L537.2969 311.5125Q537.2969 309.6219 537.9375 308.71564Q538.59375 307.79376 539.9844 307.79376Q541.3594 307.79376 542.0156 308.6844Q542.6719 309.5594 542.6875 311.40314L542.6875 312.8094ZM541.59375 311.325Q541.59375 309.95 541.2031 309.325Q540.8281 308.6844 539.9844 308.6844Q539.15625 308.6844 538.7656 309.325Q538.3906 309.95 538.3906 311.2469L538.3906 312.98126Q538.3906 314.35626 538.78125 315.02814Q539.1875 315.6844 540.0 315.6844Q540.7969 315.6844 541.1875 315.0594Q541.5781 314.4344 541.59375 313.10626L541.59375 311.325ZM549.6875 312.8094Q549.6875 314.71564 549.03125 315.65314Q548.3906 316.575 547.0 316.575Q545.6406 316.575 544.9844 315.66876Q544.3281 314.7625 544.2969 312.95L544.2969 311.5125Q544.2969 309.6219 544.9375 308.71564Q545.59375 307.79376 546.9844 307.79376Q548.3594 307.79376 549.0156 308.6844Q549.6719 309.5594 549.6875 311.40314L549.6875 312.8094ZM548.59375 311.325Q548.59375 309.95 548.2031 309.325Q547.8281 308.6844 546.9844 308.6844Q546.15625 308.6844 545.7656 309.325Q545.3906 309.95 545.3906 311.2469L545.3906 312.98126Q545.3906 314.35626 545.78125 315.02814Q546.1875 315.6844 547.0 315.6844Q547.7969 315.6844 548.1875 315.0594Q548.5781 314.4344 548.59375 313.10626L548.59375 311.325ZM556.6875 312.8094Q556.6875 314.71564 556.03125 315.65314Q555.3906 316.575 554.0 316.575Q552.6406 316.575 551.9844 315.66876Q551.3281 314.7625 551.2969 312.95L551.2969 311.5125Q551.2969 309.6219 551.9375 308.71564Q552.59375 307.79376 553.9844 307.79376Q555.3594 307.79376 556.0156 308.6844Q556.6719 309.5594 556.6875 311.40314L556.6875 312.8094ZM555.59375 311.325Q555.59375 309.95 555.2031 309.325Q554.8281 308.6844 553.9844 308.6844Q553.15625 308.6844 552.7656 309.325Q552.3906 309.95 552.3906 311.2469L552.3906 312.98126Q552.3906 314.35626 552.78125 315.02814Q553.1875 315.6844 554.0 315.6844Q554.7969 315.6844 555.1875 315.0594Q555.5781 314.4344 555.59375 313.10626L555.59375 311.325ZM563.6875 312.8094Q563.6875 314.71564 563.03125 315.65314Q562.3906 316.575 561.0 316.575Q559.6406 316.575 558.9844 315.66876Q558.3281 314.7625 558.2969 312.95L558.2969 311.5125Q558.2969 309.6219 558.9375 308.71564Q559.59375 307.79376 560.9844 307.79376Q562.3594 307.79376 563.0156 308.6844Q563.6719 309.5594 563.6875 311.40314L563.6875 312.8094ZM562.59375 311.325Q562.59375 309.95 562.2031 309.325Q561.8281 308.6844 560.9844 308.6844Q560.15625 308.6844 559.7656 309.325Q559.3906 309.95 559.3906 311.2469L559.3906 312.98126Q559.3906 314.35626 559.78125 315.02814Q560.1875 315.6844 561.0 315.6844Q561.7969 315.6844 562.1875 315.0594Q562.5781 314.4344 562.59375 313.10626L562.59375 311.325Z" fill-rule="nonzero"/><path stroke="#4285f4" stroke-width="4.0" stroke-linecap="butt" d="M221.5 62.416668L233.5 62.416668" fill-rule="nonzero"/><path fill="#757575" d="M243.9375 58.385414L246.73438 65.33854L249.51562 58.385414L250.98438 58.385414L250.98438 66.916664L249.85938 66.916664L249.85938 63.58854L249.96875 60.010414L247.15625 66.916664L246.29688 66.916664L243.5 60.02604L243.60938 63.58854L243.60938 66.916664L242.48438 66.916664L242.48438 58.385414L243.9375 58.385414ZM252.03125 63.68229Q252.03125 62.760414 252.39062 62.010414Q252.76562 61.260414 253.42188 60.86979Q254.07812 60.46354 254.90625 60.46354Q256.20312 60.46354 257.0 61.354164Q257.8125 62.24479 257.8125 63.74479L257.8125 63.822914Q257.8125 64.74479 257.45312 65.479164Q257.09375 66.21354 256.4375 66.635414Q255.78125 67.041664 254.92188 67.041664Q253.64062 67.041664 252.82812 66.15104Q252.03125 65.24479 252.03125 63.760414L252.03125 63.68229ZM253.125 63.822914Q253.125 64.86979 253.60938 65.510414Q254.10938 66.15104 254.92188 66.15104Q255.75 66.15104 256.23438 65.510414Q256.71875 64.854164 256.71875 63.68229Q256.71875 62.65104 256.21875 62.010414Q255.73438 61.354164 254.90625 61.354164Q254.10938 61.354164 253.60938 61.99479Q253.125 62.61979 253.125 63.822914ZM259.0625 63.697914Q259.0625 62.229164 259.75 61.354164Q260.4375 60.46354 261.5625 60.46354Q262.67188 60.46354 263.32812 61.21354L263.32812 57.916664L264.40625 57.916664L264.40625 66.916664L263.40625 66.916664L263.35938 66.229164Q262.70312 67.041664 261.54688 67.041664Q260.45312 67.041664 259.75 66.135414Q259.0625 65.229164 259.0625 63.77604L259.0625 63.697914ZM260.14062 63.822914Q260.14062 64.90104 260.57812 65.510414Q261.03125 66.11979 261.8125 66.11979Q262.84375 66.11979 263.32812 65.18229L263.32812 62.27604Q262.84375 61.385414 261.82812 61.385414Q261.03125 61.385414 260.57812 61.99479Q260.14062 62.604164 260.14062 63.822914ZM272.0 63.11979Q270.5625 62.697914 269.89062 62.08854Q269.23438 61.479164 269.23438 60.58854Q269.23438 59.58854 270.03125 58.93229Q270.84375 58.260414 272.14062 58.260414Q273.01562 58.260414 273.70312 58.604164Q274.39062 58.947914 274.76562 59.541664Q275.15625 60.135414 275.15625 60.854164L274.01562 60.854164Q274.01562 60.072914 273.51562 59.635414Q273.03125 59.197914 272.14062 59.197914Q271.3125 59.197914 270.84375 59.572914Q270.375 59.93229 270.375 60.572914Q270.375 61.104164 270.8125 61.46354Q271.26562 61.822914 272.32812 62.11979Q273.39062 62.416664 273.98438 62.77604Q274.59375 63.135414 274.875 63.61979Q275.17188 64.104164 275.17188 64.74479Q275.17188 65.791664 274.35938 66.416664Q273.54688 67.041664 272.20312 67.041664Q271.3125 67.041664 270.54688 66.697914Q269.79688 66.354164 269.375 65.77604Q268.96875 65.18229 268.96875 64.447914L270.09375 64.447914Q270.09375 65.21354 270.67188 65.666664Q271.25 66.11979 272.20312 66.11979Q273.09375 66.11979 273.5625 65.760414Q274.03125 65.385414 274.03125 64.760414Q274.03125 64.135414 273.59375 63.791664Q273.15625 63.447914 272.0 63.11979ZM278.95312 67.041664Q277.65625 67.041664 276.84375 66.197914Q276.04688 65.33854 276.04688 63.916664L276.04688 63.729164Q276.04688 62.77604 276.40625 62.041664Q276.76562 61.291664 277.40625 60.885414Q278.0625 60.46354 278.8125 60.46354Q280.04688 60.46354 280.73438 61.27604Q281.42188 62.08854 281.42188 63.604164L281.42188 64.05729L277.125 64.05729Q277.15625 64.99479 277.67188 65.572914Q278.20312 66.15104 279.01562 66.15104Q279.57812 66.15104 279.96875 65.916664Q280.375 65.68229 280.6875 65.291664L281.34375 65.80729Q280.54688 67.041664 278.95312 67.041664ZM278.8125 61.354164Q278.15625 61.354164 277.70312 61.83854Q277.26562 62.30729 277.17188 63.166664L280.34375 63.166664L280.34375 63.08854Q280.29688 62.260414 279.89062 61.80729Q279.5 61.354164 278.8125 61.354164ZM284.85938 66.15104Q285.4375 66.15104 285.875 65.80729Q286.3125 65.447914 286.35938 64.916664L287.39062 64.916664Q287.35938 65.46354 287.0 65.96354Q286.65625 66.447914 286.07812 66.74479Q285.51562 67.041664 284.85938 67.041664Q283.5625 67.041664 282.79688 66.18229Q282.04688 65.30729 282.04688 63.80729L282.04688 63.61979Q282.04688 62.697914 282.375 61.979164Q282.71875 61.260414 283.34375 60.86979Q283.98438 60.46354 284.85938 60.46354Q285.92188 60.46354 286.625 61.104164Q287.34375 61.729164 287.39062 62.760414L286.35938 62.760414Q286.3125 62.135414 285.89062 61.74479Q285.46875 61.354164 284.85938 61.354164Q284.03125 61.354164 283.57812 61.947914Q283.125 62.541664 283.125 63.666664L283.125 63.86979Q283.125 64.96354 283.57812 65.55729Q284.03125 66.15104 284.85938 66.15104ZM292.23438 66.291664Q291.60938 67.041664 290.375 67.041664Q289.35938 67.041664 288.82812 66.447914Q288.29688 65.854164 288.29688 64.697914L288.29688 60.572914L289.375 60.572914L289.375 64.666664Q289.375 66.11979 290.54688 66.11979Q291.79688 66.11979 292.20312 65.18229L292.20312 60.572914L293.29688 60.572914L293.29688 66.916664L292.26562 66.916664L292.23438 66.291664ZM298.39062 61.541664Q298.14062 61.510414 297.85938 61.510414Q296.78125 61.510414 296.40625 62.416664L296.40625 66.916664L295.32812 66.916664L295.32812 60.572914L296.375 60.572914L296.39062 61.30729Q296.92188 60.46354 297.90625 60.46354Q298.21875 60.46354 298.39062 60.541664L298.39062 61.541664ZM300.5 66.916664L299.42188 66.916664L299.42188 60.572914L300.5 60.572914L300.5 66.916664ZM299.32812 58.90104Q299.32812 58.635414 299.48438 58.447914Q299.65625 58.260414 299.96875 58.260414Q300.28125 58.260414 300.4375 58.447914Q300.60938 58.635414 300.60938 58.90104Q300.60938 59.15104 300.4375 59.33854Q300.28125 59.510414 299.96875 59.510414Q299.65625 59.510414 299.48438 59.33854Q299.32812 59.15104 299.32812 58.90104ZM303.79688 59.041664L303.79688 60.572914L304.96875 60.572914L304.96875 61.416664L303.79688 61.416664L303.79688 65.33854Q303.79688 65.729164 303.95312 65.916664Q304.10938 66.104164 304.48438 66.104164Q304.67188 66.104164 305.0 66.041664L305.0 66.916664Q304.57812 67.041664 304.17188 67.041664Q303.45312 67.041664 303.07812 66.604164Q302.70312 66.15104 302.70312 65.33854L302.70312 61.416664L301.54688 61.416664L301.54688 60.572914L302.70312 60.572914L302.70312 59.041664L303.79688 59.041664ZM308.39062 65.322914L309.875 60.572914L311.03125 60.572914L308.48438 67.90104Q307.89062 69.479164 306.60938 69.479164L306.39062 69.46354L306.0 69.385414L306.0 68.510414L306.28125 68.52604Q306.84375 68.52604 307.14062 68.30729Q307.45312 68.08854 307.65625 67.49479L307.89062 66.83854L305.625 60.572914L306.8125 60.572914L308.39062 65.322914Z" fill-rule="nonzero"/><path stroke="#db4437" stroke-width="4.0" stroke-linecap="butt" d="M327.5 62.416668L339.5 62.416668" fill-rule="nonzero"/><path fill="#757575" d="M350.32812 64.229164L350.5 65.354164L350.73438 64.33854L352.42188 58.385414L353.375 58.385414L355.01562 64.33854L355.25 65.36979L355.4375 64.21354L356.76562 58.385414L357.89062 58.385414L355.82812 66.916664L354.79688 66.916664L353.03125 60.697914L352.90625 60.041664L352.76562 60.697914L350.95312 66.916664L349.92188 66.916664L347.85938 58.385414L348.98438 58.385414L350.32812 64.229164ZM363.23438 66.916664Q363.14062 66.729164 363.07812 66.24479Q362.32812 67.041664 361.28125 67.041664Q360.34375 67.041664 359.73438 66.510414Q359.14062 65.979164 359.14062 65.15104Q359.14062 64.166664 359.89062 63.61979Q360.64062 63.072914 362.01562 63.072914L363.0625 63.072914L363.0625 62.572914Q363.0625 62.010414 362.71875 61.68229Q362.39062 61.33854 361.71875 61.33854Q361.14062 61.33854 360.75 61.635414Q360.35938 61.916664 360.35938 62.33854L359.26562 62.33854Q359.26562 61.854164 359.59375 61.416664Q359.9375 60.979164 360.51562 60.729164Q361.09375 60.46354 361.78125 60.46354Q362.89062 60.46354 363.5 61.010414Q364.125 61.55729 364.15625 62.510414L364.15625 65.43229Q364.15625 66.30729 364.375 66.822914L364.375 66.916664L363.23438 66.916664ZM361.4375 66.08854Q361.95312 66.08854 362.40625 65.822914Q362.85938 65.55729 363.0625 65.135414L363.0625 63.83854L362.21875 63.83854Q360.21875 63.83854 360.21875 65.010414Q360.21875 65.510414 360.5625 65.80729Q360.90625 66.08854 361.4375 66.08854ZM366.85938 66.916664L366.85938 61.416664L365.85938 61.416664L365.85938 60.572914L366.85938 60.572914L366.85938 59.93229Q366.85938 58.90104 367.39062 58.354164Q367.9375 57.791664 368.9375 57.791664Q369.3125 57.791664 369.6875 57.885414L369.625 58.77604Q369.34375 58.71354 369.04688 58.71354Q368.51562 58.71354 368.21875 59.02604Q367.9375 59.33854 367.9375 59.90104L367.9375 60.572914L369.29688 60.572914L369.29688 61.416664L367.9375 61.416664L367.9375 66.916664L366.85938 66.916664ZM371.5 66.916664L370.42188 66.916664L370.42188 57.916664L371.5 57.916664L371.5 66.916664ZM374.34375 66.02604L378.04688 66.02604L378.04688 66.916664L373.01562 66.916664L373.01562 66.11979L376.51562 61.479164L373.0625 61.479164L373.0625 60.572914L377.875 60.572914L377.875 61.33854L374.34375 66.02604Z" fill-rule="nonzero"/><path fill="#757575" d="M30.01875 24.878124L25.45625 24.878124L25.45625 37.55L23.596874 37.55L23.596874 24.878124L19.034374 24.878124L19.034374 23.33125L30.01875 23.33125L30.01875 24.878124ZM33.878124 37.55L32.08125 37.55L32.08125 26.9875L33.878124 26.9875L33.878124 37.55ZM31.925 24.175Q31.925 23.7375 32.190624 23.440624Q32.471874 23.128124 32.9875 23.128124Q33.51875 23.128124 33.784374 23.440624Q34.065624 23.7375 34.065624 24.175Q34.065624 24.6125 33.784374 24.909374Q33.51875 25.20625 32.9875 25.20625Q32.471874 25.20625 32.190624 24.909374Q31.925 24.6125 31.925 24.175ZM38.6125 26.9875L38.659374 28.159374Q39.83125 26.784374 41.8 26.784374Q44.01875 26.784374 44.815624 28.4875Q45.346874 27.721874 46.190624 27.253124Q47.034374 26.784374 48.190624 26.784374Q51.659374 26.784374 51.721874 30.471874L51.721874 37.55L49.909374 37.55L49.909374 30.58125Q49.909374 29.440624 49.39375 28.878124Q48.878124 28.315624 47.659374 28.315624Q46.659374 28.315624 45.9875 28.925Q45.33125 29.51875 45.221874 30.534374L45.221874 37.55L43.409374 37.55L43.409374 30.628124Q43.409374 28.315624 41.14375 28.315624Q39.3625 28.315624 38.721874 29.83125L38.721874 37.55L36.909374 37.55L36.909374 26.9875L38.6125 26.9875ZM59.3 37.753124Q57.159374 37.753124 55.8 36.346874Q54.45625 34.925 54.45625 32.565624L54.45625 32.221874Q54.45625 30.659374 55.05 29.425Q55.659374 28.190624 56.7375 27.4875Q57.815624 26.784374 59.08125 26.784374Q61.14375 26.784374 62.284374 28.14375Q63.425 29.503124 63.425 32.034374L63.425 32.784374L56.26875 32.784374Q56.3 34.346874 57.175 35.315624Q58.05 36.26875 59.39375 36.26875Q60.3625 36.26875 61.01875 35.878124Q61.690624 35.4875 62.190624 34.846874L63.284374 35.70625Q61.95625 37.753124 59.3 37.753124ZM59.08125 28.26875Q57.9875 28.26875 57.2375 29.065624Q56.503124 29.8625 56.33125 31.3L61.6125 31.3L61.6125 31.159374Q61.534374 29.784374 60.8625 29.034374Q60.20625 28.26875 59.08125 28.26875ZM73.3625 24.425L73.3625 26.9875L75.34688 26.9875L75.34688 28.378124L73.3625 28.378124L73.3625 34.925Q73.3625 35.565624 73.62813 35.89375Q73.89375 36.20625 74.53438 36.20625Q74.84688 36.20625 75.39375 36.08125L75.39375 37.55Q74.675 37.753124 74.00313 37.753124Q72.8 37.753124 72.175 37.01875Q71.56563 36.284374 71.56563 34.925L71.56563 28.378124L69.64375 28.378124L69.64375 26.9875L71.56563 26.9875L71.56563 24.425L73.3625 24.425ZM77.44063 32.175Q77.44063 30.6125 78.05 29.378124Q78.65938 28.128124 79.7375 27.45625Q80.83125 26.784374 82.2375 26.784374Q84.39375 26.784374 85.72188 28.284374Q87.06563 29.76875 87.06563 32.253124L87.06563 32.378124Q87.06563 33.925 86.47188 35.159374Q85.87813 36.378124 84.76875 37.065624Q83.675 37.753124 82.25313 37.753124Q80.1125 37.753124 78.76875 36.253124Q77.44063 34.753124 77.44063 32.3L77.44063 32.175ZM79.25313 32.378124Q79.25313 34.14375 80.06563 35.20625Q80.89375 36.26875 82.25313 36.26875Q83.62813 36.26875 84.44063 35.190624Q85.25313 34.1125 85.25313 32.175Q85.25313 30.425 84.425 29.346874Q83.59688 28.26875 82.2375 28.26875Q80.89375 28.26875 80.06563 29.33125Q79.25313 30.39375 79.25313 32.378124ZM102.84688 32.378124Q102.84688 34.8 101.7375 36.284374Q100.64375 37.753124 98.75313 37.753124Q96.83125 37.753124 95.72188 36.51875L95.72188 41.6125L93.925 41.6125L93.925 26.9875L95.56563 26.9875L95.65938 28.159374Q96.75313 26.784374 98.72188 26.784374Q100.62813 26.784374 101.7375 28.221874Q102.84688 29.659374 102.84688 32.221874L102.84688 32.378124ZM101.03438 32.175Q101.03438 30.39375 100.26875 29.3625Q99.51875 28.315624 98.19063 28.315624Q96.55 28.315624 95.72188 29.76875L95.72188 34.83125Q96.53438 36.26875 98.20625 36.26875Q99.50313 36.26875 100.26875 35.2375Q101.03438 34.20625 101.03438 32.175ZM109.3 37.753124Q107.15938 37.753124 105.8 36.346874Q104.45625 34.925 104.45625 32.565624L104.45625 32.221874Q104.45625 30.659374 105.05 29.425Q105.65938 28.190624 106.7375 27.4875Q107.81563 26.784374 109.08125 26.784374Q111.14375 26.784374 112.28438 28.14375Q113.425 29.503124 113.425 32.034374L113.425 32.784374L106.26875 32.784374Q106.3 34.346874 107.175 35.315624Q108.05 36.26875 109.39375 36.26875Q110.3625 36.26875 111.01875 35.878124Q111.69063 35.4875 112.19063 34.846874L113.28438 35.70625Q111.95625 37.753124 109.3 37.753124ZM109.08125 28.26875Q107.9875 28.26875 107.2375 29.065624Q106.50313 29.8625 106.33125 31.3L111.6125 31.3L111.6125 31.159374Q111.53438 29.784374 110.8625 29.034374Q110.20625 28.26875 109.08125 28.26875ZM121.01875 28.596874Q120.6125 28.534374 120.14375 28.534374Q118.3625 28.534374 117.72188 30.05L117.72188 37.55L115.925 37.55L115.925 26.9875L117.675 26.9875L117.70625 28.20625Q118.59688 26.784374 120.22188 26.784374Q120.75313 26.784374 121.01875 26.925L121.01875 28.596874ZM123.8 37.55L123.8 28.378124L122.14375 28.378124L122.14375 26.9875L123.8 26.9875L123.8 25.89375Q123.8 24.20625 124.70625 23.284374Q125.62813 22.346874 127.28438 22.346874Q127.90938 22.346874 128.51875 22.503124L128.425 23.971874Q127.97188 23.89375 127.45625 23.89375Q126.56563 23.89375 126.08125 24.409374Q125.6125 24.909374 125.6125 25.8625L125.6125 26.9875L127.8625 26.9875L127.8625 28.378124L125.6125 28.378124L125.6125 37.55L123.8 37.55ZM129.44063 32.175Q129.44063 30.6125 130.05 29.378124Q130.65938 28.128124 131.7375 27.45625Q132.83125 26.784374 134.2375 26.784374Q136.39375 26.784374 137.72188 28.284374Q139.06563 29.76875 139.06563 32.253124L139.06563 32.378124Q139.06563 33.925 138.47188 35.159374Q137.87813 36.378124 136.76875 37.065624Q135.675 37.753124 134.25313 37.753124Q132.1125 37.753124 130.76875 36.253124Q129.44063 34.753124 129.44063 32.3L129.44063 32.175ZM131.25313 32.378124Q131.25313 34.14375 132.06563 35.20625Q132.89375 36.26875 134.25313 36.26875Q135.62813 36.26875 136.44063 35.190624Q137.25313 34.1125 137.25313 32.175Q137.25313 30.425 136.425 29.346874Q135.59688 28.26875 134.2375 28.26875Q132.89375 28.26875 132.06563 29.33125Q131.25313 30.39375 131.25313 32.378124ZM146.01875 28.596874Q145.6125 28.534374 145.14375 28.534374Q143.3625 28.534374 142.72188 30.05L142.72188 37.55L140.925 37.55L140.925 26.9875L142.675 26.9875L142.70625 28.20625Q143.59688 26.784374 145.22188 26.784374Q145.75313 26.784374 146.01875 26.925L146.01875 28.596874ZM149.6125 26.9875L149.65938 28.159374Q150.83125 26.784374 152.8 26.784374Q155.01875 26.784374 155.81563 28.4875Q156.34688 27.721874 157.19063 27.253124Q158.03438 26.784374 159.19063 26.784374Q162.65938 26.784374 162.72188 30.471874L162.72188 37.55L160.90938 37.55L160.90938 30.58125Q160.90938 29.440624 160.39375 28.878124Q159.87813 28.315624 158.65938 28.315624Q157.65938 28.315624 156.9875 28.925Q156.33125 29.51875 156.22188 30.534374L156.22188 37.55L154.40938 37.55L154.40938 30.628124Q154.40938 28.315624 152.14375 28.315624Q150.3625 28.315624 149.72188 29.83125L149.72188 37.55L147.90938 37.55L147.90938 26.9875L149.6125 26.9875ZM176.675 37.55L174.84688 37.55L174.84688 25.503124L171.20625 26.846874L171.20625 25.20625L176.39375 23.26875L176.675 23.26875L176.675 37.55ZM184.62813 23.33125L189.26875 34.925L193.925 23.33125L196.34688 23.33125L196.34688 37.55L194.47188 37.55L194.47188 32.01875L194.65938 26.034374L189.9875 37.55L188.55 37.55L183.89375 26.065624L184.08125 32.01875L184.08125 37.55L182.20625 37.55L182.20625 23.33125L184.62813 23.33125ZM203.47188 32.175Q203.47188 29.690624 204.6125 28.2375Q205.76875 26.784374 207.69063 26.784374Q209.56563 26.784374 210.64375 28.05L210.72188 26.9875L212.37813 26.9875L212.37813 41.6125L210.58125 41.6125L210.58125 36.565624Q209.4875 37.753124 207.675 37.753124Q205.75313 37.753124 204.6125 36.26875Q203.47188 34.76875 203.47188 32.3L203.47188 32.175ZM205.28438 32.378124Q205.28438 34.20625 206.05 35.2375Q206.81563 36.26875 208.1125 36.26875Q209.72188 36.26875 210.58125 34.846874L210.58125 29.675Q209.72188 28.26875 208.14375 28.26875Q206.83125 28.26875 206.05 29.315624Q205.28438 30.346874 205.28438 32.378124ZM221.44063 36.503124Q220.39375 37.753124 218.34688 37.753124Q216.65938 37.753124 215.76875 36.76875Q214.89375 35.784374 214.87813 33.8625L214.87813 26.9875L216.69063 26.9875L216.69063 33.815624Q216.69063 36.20625 218.64375 36.20625Q220.70625 36.20625 221.39375 34.675L221.39375 26.9875L223.20625 26.9875L223.20625 37.55L221.4875 37.55L221.44063 36.503124ZM230.3 37.753124Q228.15938 37.753124 226.8 36.346874Q225.45625 34.925 225.45625 32.565624L225.45625 32.221874Q225.45625 30.659374 226.05 29.425Q226.65938 28.190624 227.7375 27.4875Q228.81563 26.784374 230.08125 26.784374Q232.14375 26.784374 233.28438 28.14375Q234.425 29.503124 234.425 32.034374L234.425 32.784374L227.26875 32.784374Q227.3 34.346874 228.175 35.315624Q229.05 36.26875 230.39375 36.26875Q231.3625 36.26875 232.01875 35.878124Q232.69063 35.4875 233.19063 34.846874L234.28438 35.70625Q232.95625 37.753124 230.3 37.753124ZM230.08125 28.26875Q228.9875 28.26875 228.2375 29.065624Q227.50313 29.8625 227.33125 31.3L232.6125 31.3L232.6125 31.159374Q232.53438 29.784374 231.8625 29.034374Q231.20625 28.26875 230.08125 28.26875ZM242.01875 28.596874Q241.6125 28.534374 241.14375 28.534374Q239.3625 28.534374 238.72188 30.05L238.72188 37.55L236.925 37.55L236.925 26.9875L238.675 26.9875L238.70625 28.20625Q239.59688 26.784374 241.22188 26.784374Q241.75313 26.784374 242.01875 26.925L242.01875 28.596874ZM245.87813 37.55L244.08125 37.55L244.08125 26.9875L245.87813 26.9875L245.87813 37.55ZM243.925 24.175Q243.925 23.7375 244.19063 23.440624Q244.47188 23.128124 244.9875 23.128124Q245.51875 23.128124 245.78438 23.440624Q246.06563 23.7375 246.06563 24.175Q246.06563 24.6125 245.78438 24.909374Q245.51875 25.20625 244.9875 25.20625Q244.47188 25.20625 244.19063 24.909374Q243.925 24.6125 243.925 24.175ZM253.3 37.753124Q251.15938 37.753124 249.8 36.346874Q248.45625 34.925 248.45625 32.565624L248.45625 32.221874Q248.45625 30.659374 249.05 29.425Q249.65938 28.190624 250.7375 27.4875Q251.81563 26.784374 253.08125 26.784374Q255.14375 26.784374 256.28436 28.14375Q257.425 29.503124 257.425 32.034374L257.425 32.784374L250.26875 32.784374Q250.3 34.346874 251.175 35.315624Q252.05 36.26875 253.39375 36.26875Q254.3625 36.26875 255.01875 35.878124Q255.69063 35.4875 256.1906 34.846874L257.28436 35.70625Q255.95625 37.753124 253.3 37.753124ZM253.08125 28.26875Q251.9875 28.26875 251.2375 29.065624Q250.50313 29.8625 250.33125 31.3L255.6125 31.3L255.6125 31.159374Q255.53438 29.784374 254.8625 29.034374Q254.20625 28.26875 253.08125 28.26875ZM266.0656 34.753124Q266.0656 34.01875 265.51874 33.6125Q264.97186 33.20625 263.59686 32.909374Q262.22186 32.6125 261.40936 32.20625Q260.6125 31.8 260.22186 31.2375Q259.84686 30.659374 259.84686 29.878124Q259.84686 28.58125 260.9406 27.690624Q262.03436 26.784374 263.7531 26.784374Q265.55 26.784374 266.65936 27.721874Q267.78436 28.64375 267.78436 30.08125L265.95624 30.08125Q265.95624 29.346874 265.33124 28.815624Q264.70624 28.26875 263.7531 28.26875Q262.7531 28.26875 262.1906 28.70625Q261.64374 29.128124 261.64374 29.83125Q261.64374 30.471874 262.15936 30.815624Q262.675 31.14375 264.03436 31.45625Q265.39374 31.753124 266.22186 32.175Q267.0656 32.58125 267.47186 33.175Q267.8781 33.76875 267.8781 34.6125Q267.8781 36.034374 266.7375 36.89375Q265.6125 37.753124 263.8 37.753124Q262.53436 37.753124 261.55 37.3Q260.58124 36.846874 260.01874 36.05Q259.47186 35.2375 259.47186 34.3L261.28436 34.3Q261.33124 35.20625 262.0031 35.7375Q262.6906 36.26875 263.8 36.26875Q264.83124 36.26875 265.4406 35.8625Q266.0656 35.440624 266.0656 34.753124ZM274.84686 31.784374Q274.84686 29.565624 275.4406 27.534374Q276.03436 25.503124 277.20624 23.846874Q278.3781 22.190624 279.6281 21.503124L280.0031 22.690624Q278.58124 23.784374 277.65936 26.034374Q276.7531 28.284374 276.65936 31.065624L276.65936 31.89375Q276.65936 35.659374 278.03436 38.440624Q278.8625 40.096874 280.0031 41.034374L279.6281 42.14375Q278.33124 41.425 277.15936 39.721874Q274.84686 36.39375 274.84686 31.784374ZM284.20624 37.55L282.33124 37.55L282.33124 23.33125L284.20624 23.33125L284.20624 37.55ZM289.08124 31.9875L289.08124 37.55L287.20624 37.55L287.20624 23.33125L292.4406 23.33125Q294.78436 23.33125 296.09686 24.51875Q297.425 25.70625 297.425 27.675Q297.425 29.753124 296.1281 30.878124Q294.83124 31.9875 292.425 31.9875L289.08124 31.9875ZM289.08124 30.45625L292.4406 30.45625Q293.95624 30.45625 294.7531 29.753124Q295.55 29.034374 295.55 27.690624Q295.55 26.425 294.7531 25.675Q293.95624 24.909374 292.55 24.878124L289.08124 24.878124L289.08124 30.45625ZM303.40936 35.096874L306.01874 26.9875L307.8625 26.9875L304.08124 37.55L302.70624 37.55L298.8781 26.9875L300.72186 26.9875L303.40936 35.096874ZM317.3625 32.76875L319.33124 32.76875L319.33124 34.253124L317.3625 34.253124L317.3625 37.55L315.55 37.55L315.55 34.253124L309.0656 34.253124L309.0656 33.190624L315.4406 23.33125L317.3625 23.33125L317.3625 32.76875ZM311.1125 32.76875L315.55 32.76875L315.55 25.8L315.33124 26.190624L311.1125 32.76875ZM325.08124 31.878124Q325.08124 34.05 324.5031 36.05Q323.9406 38.05 322.76874 39.7375Q321.59686 41.425 320.3 42.14375L319.925 41.034374Q321.425 39.878124 322.33124 37.45625Q323.2531 35.034374 323.26874 32.065624L323.26874 31.753124Q323.26874 29.70625 322.83124 27.940624Q322.40936 26.175 321.64374 24.784374Q320.8781 23.39375 319.925 22.6125L320.3 21.503124Q321.59686 22.221874 322.7531 23.89375Q323.925 25.55 324.5031 27.565624Q325.08124 29.58125 325.08124 31.878124Z" fill-rule="nonzero"/></svg>