<svg version="1.1" viewBox="0.0 0.0 600.0 371.0" fill="none" stroke="none" stroke-linecap="square" stroke-miterlimit="10" width="600" height="371" xmlns:xlink="http://www.w3.org/1999/xlink" xmlns="http://www.w3.org/2000/svg"><path fill="#ffffff" d="M0 0L600.0 0L600.0 371.0L0 371.0L0 0Z" fill-rule="nonzero"/><path stroke="#cccccc" stroke-width="1.0" stroke-linecap="butt" d="M85.5 89.5L85.5 298.5" fill-rule="nonzero"/><path stroke="#cccccc" stroke-width="1.0" stroke-linecap="butt" d="M184.5 89.5L184.5 298.5" fill-rule="nonzero"/><path stroke="#cccccc" stroke-width="1.0" stroke-linecap="butt" d="M283.5 89.5L283.5 298.5" fill-rule="nonzero"/><path stroke="#cccccc" stroke-width="1.0" stroke-linecap="butt" d="M383.5 89.5L383.5 298.5" fill-rule="nonzero"/><path stroke="#cccccc" stroke-width="1.0" stroke-linecap="butt" d="M482.5 89.5L482.5 298.5" fill-rule="nonzero"/><path stroke="#cccccc" stroke-width="1.0" stroke-linecap="butt" d="M581.5 89.5L581.5 298.5" fill-rule="nonzero"/><path stroke="#333333" stroke-width="1.0" stroke-linecap="butt" d="M85.5 298.5L581.5 298.5" fill-rule="nonzero"/><path stroke="#cccccc" stroke-width="1.0" stroke-linecap="butt" d="M85.5 246.5L581.5 246.5" fill-rule="nonzero"/><path stroke="#cccccc" stroke-width="1.0" stroke-linecap="butt" d="M85.5 194.5L581.5 194.5" fill-rule="nonzero"/><path stroke="#cccccc" stroke-width="1.0" stroke-linecap="butt" d="M85.5 141.5L581.5 141.5" fill-rule="nonzero"/><path stroke="#cccccc" stroke-width="1.0" stroke-linecap="butt" d="M85.5 89.5L581.5 89.5" fill-rule="nonzero"/><clipPath id="id_0"><path d="M85.55 89.78333L581.45 89.78333L581.45 298.45L85.55 298.45L85.55 89.78333Z" clip-rule="nonzero"/></clipPath><path stroke="#4285f4" stroke-width="2.0" stroke-linecap="butt" clip-path="url(#id_0)" d="M85.55 270.28L184.73 267.56732L283.91 263.081L383.09 252.64766L482.27 190.98666L581.45 105.12033" fill-rule="nonzero"/><path stroke="#db4437" stroke-width="2.0" stroke-linecap="butt" clip-path="url(#id_0)" d="M85.55 271.532L184.73 268.402L283.91 264.333L383.09 256.09067L482.27 219.887L581.45 149.149" fill-rule="nonzero"/><path fill="#000000" fill-opacity="0.0" clip-path="url(#id_0)" d="M88.55 270.28C88.55 271.93686 87.206856 273.28 85.55 273.28C83.89314 273.28 82.55 271.93686 82.55 270.28C82.55 268.62314 83.89314 267.28 85.55 267.28C87.206856 267.28 88.55 268.62314 88.55 270.28Z" fill-rule="nonzero"/><path fill="#000000" fill-opacity="0.0" clip-path="url(#id_0)" d="M187.73 267.56732C187.73 269.22418 186.38686 270.56732 184.73 270.56732C183.07315 270.56732 181.73 269.22418 181.73 267.56732C181.73 265.9105 183.07315 264.56732 184.73 264.56732C186.38686 264.56732 187.73 265.9105 187.73 267.56732Z" fill-rule="nonzero"/><path fill="#000000" fill-opacity="0.0" clip-path="url(#id_0)" d="M286.91 263.081C286.91 264.73785 285.56686 266.081 283.91 266.081C282.25314 266.081 280.91 264.73785 280.91 263.081C280.91 261.42413 282.25314 260.081 283.91 260.081C285.56686 260.081 286.91 261.42413 286.91 263.081Z" fill-rule="nonzero"/><path fill="#000000" fill-opacity="0.0" clip-path="url(#id_0)" d="M386.09 252.64766C386.09 254.30452 384.74686 255.64766 383.09 255.64766C381.43314 255.64766 380.09 254.30452 380.09 252.64766C380.09 250.99081 381.43314 249.64766 383.09 249.64766C384.74686 249.64766 386.09 250.99081 386.09 252.64766Z" fill-rule="nonzero"/><path fill="#000000" fill-opacity="0.0" clip-path="url(#id_0)" d="M485.27 190.98666C485.27 192.64352 483.92685 193.98666 482.27 193.98666C480.61316 193.98666 479.27 192.64352 479.27 190.98666C479.27 189.32982 480.61316 187.98666 482.27 187.98666C483.92685 187.98666 485.27 189.32982 485.27 190.98666Z" fill-rule="nonzero"/><path fill="#000000" fill-opacity="0.0" clip-path="url(#id_0)" d="M584.45 105.12033C584.45 106.77719 583.1069 108.12033 581.45 108.12033C579.79315 108.12033 578.45 106.77719 578.45 105.12033C578.45 103.46348 579.79315 102.12033 581.45 102.12033C583.1069 102.12033 584.45 103.46348 584.45 105.12033Z" fill-rule="nonzero"/><path fill="#000000" fill-opacity="0.0" clip-path="url(#id_0)" d="M88.55 271.532C88.55 273.18884 87.206856 274.532 85.55 274.532C83.89314 274.532 82.55 273.18884 82.55 271.532C82.55 269.87515 83.89314 268.532 85.55 268.532C87.206856 268.532 88.55 269.87515 88.55 271.532Z" fill-rule="nonzero"/><path fill="#000000" fill-opacity="0.0" clip-path="url(#id_0)" d="M187.73 268.402C187.73 270.05887 186.38686 271.402 184.73 271.402C183.07315 271.402 181.73 270.05887 181.73 268.402C181.73 266.74515 183.07315 265.402 184.73 265.402C186.38686 265.402 187.73 266.74515 187.73 268.402Z" fill-rule="nonzero"/><path fill="#000000" fill-opacity="0.0" clip-path="url(#id_0)" d="M286.91 264.333C286.91 265.98987 285.56686 267.333 283.91 267.333C282.25314 267.333 280.91 265.98987 280.91 264.333C280.91 262.67615 282.25314 261.333 283.91 261.333C285.56686 261.333 286.91 262.67615 286.91 264.333Z" fill-rule="nonzero"/><path fill="#000000" fill-opacity="0.0" clip-path="url(#id_0)" d="M386.09 256.09067C386.09 257.74753 384.74686 259.09067 383.09 259.09067C381.43314 259.09067 380.09 257.74753 380.09 256.09067C380.09 254.4338 381.43314 253.09067 383.09 253.09067C384.74686 253.09067 386.09 254.4338 386.09 256.09067Z" fill-rule="nonzero"/><path fill="#000000" fill-opacity="0.0" clip-path="url(#id_0)" d="M485.27 219.887C485.27 221.54385 483.92685 222.887 482.27 222.887C480.61316 222.887 479.27 221.54385 479.27 219.887C479.27 218.23015 480.61316 216.887 482.27 216.887C483.92685 216.887 485.27 218.23015 485.27 219.887Z" fill-rule="nonzero"/><path fill="#000000" fill-opacity="0.0" clip-path="url(#id_0)" d="M584.45 149.149C584.45 150.80585 583.1069 152.149 581.45 152.149C579.79315 152.149 578.45 150.80585 578.45 149.149C578.45 147.49214 579.79315 146.149 581.45 146.149C583.1069 146.149 584.45 147.49214 584.45 149.149Z" fill-rule="nonzero"/><path fill="#424242" d="M275.54688 349.45L274.42188 349.45L270.125 342.8719L270.125 349.45L268.98438 349.45L268.98438 340.91876L270.125 340.91876L274.42188 347.52814L274.42188 340.91876L275.54688 340.91876L275.54688 349.45ZM281.73438 348.825Q281.10938 349.575 279.875 349.575Q278.85938 349.575 278.32812 348.98126Q277.79688 348.3875 277.79688 347.23126L277.79688 343.10626L278.875 343.10626L278.875 347.2Q278.875 348.65314 280.04688 348.65314Q281.29688 348.65314 281.70312 347.71564L281.70312 343.10626L282.79688 343.10626L282.79688 349.45L281.76562 349.45L281.73438 348.825ZM285.84375 343.10626L285.875 343.8094Q286.5625 342.9969 287.75 342.9969Q289.07812 342.9969 289.5625 344.0125Q289.875 343.5594 290.375 343.27814Q290.89062 342.9969 291.57812 342.9969Q293.67188 342.9969 293.70312 345.2L293.70312 349.45L292.625 349.45L292.625 345.2625Q292.625 344.59064 292.3125 344.2625Q292.0 343.91876 291.26562 343.91876Q290.65625 343.91876 290.25 344.27814Q289.85938 344.6375 289.79688 345.2469L289.79688 349.45L288.71875 349.45L288.71875 345.29376Q288.71875 343.91876 287.35938 343.91876Q286.29688 343.91876 285.90625 344.825L285.90625 349.45L284.8125 349.45L284.8125 343.10626L285.84375 343.10626ZM301.1875 346.35626Q301.1875 347.8094 300.51562 348.7Q299.85938 349.575 298.73438 349.575Q297.53125 349.575 296.875 348.71564L296.8125 349.45L295.82812 349.45L295.82812 340.45L296.90625 340.45L296.90625 343.8094Q297.5625 342.9969 298.71875 342.9969Q299.875 342.9969 300.53125 343.8719Q301.1875 344.73126 301.1875 346.2625L301.1875 346.35626ZM300.10938 346.23126Q300.10938 345.1219 299.67188 344.52814Q299.25 343.91876 298.45312 343.91876Q297.375 343.91876 296.90625 344.90314L296.90625 347.65314Q297.40625 348.65314 298.45312 348.65314Q299.23438 348.65314 299.67188 348.04376Q300.10938 347.4344 300.10938 346.23126ZM305.45312 349.575Q304.15625 349.575 303.34375 348.73126Q302.54688 347.8719 302.54688 346.45L302.54688 346.2625Q302.54688 345.3094 302.90625 344.575Q303.26562 343.825 303.90625 343.41876Q304.5625 342.9969 305.3125 342.9969Q306.54688 342.9969 307.23438 343.8094Q307.92188 344.6219 307.92188 346.1375L307.92188 346.59064L303.625 346.59064Q303.65625 347.52814 304.17188 348.10626Q304.70312 348.6844 305.51562 348.6844Q306.07812 348.6844 306.46875 348.45Q306.875 348.21564 307.1875 347.825L307.84375 348.34064Q307.04688 349.575 305.45312 349.575ZM305.3125 343.8875Q304.65625 343.8875 304.20312 344.3719Q303.76562 344.84064 303.67188 345.7L306.84375 345.7L306.84375 345.6219Q306.79688 344.79376 306.39062 344.34064Q306.0 343.8875 305.3125 343.8875ZM311.89062 344.075Q311.64062 344.04376 311.35938 344.04376Q310.28125 344.04376 309.90625 344.95L309.90625 349.45L308.82812 349.45L308.82812 343.10626L309.875 343.10626L309.89062 343.84064Q310.42188 342.9969 311.40625 342.9969Q311.71875 342.9969 311.89062 343.075L311.89062 344.075ZM315.53125 346.21564Q315.53125 345.29376 315.89062 344.54376Q316.26562 343.79376 316.92188 343.40314Q317.57812 342.9969 318.40625 342.9969Q319.70312 342.9969 320.5 343.8875Q321.3125 344.77814 321.3125 346.27814L321.3125 346.35626Q321.3125 347.27814 320.95312 348.0125Q320.59375 348.7469 319.9375 349.16876Q319.28125 349.575 318.42188 349.575Q317.14062 349.575 316.32812 348.6844Q315.53125 347.77814 315.53125 346.29376L315.53125 346.21564ZM316.625 346.35626Q316.625 347.40314 317.10938 348.04376Q317.60938 348.6844 318.42188 348.6844Q319.25 348.6844 319.73438 348.04376Q320.21875 347.3875 320.21875 346.21564Q320.21875 345.1844 319.71875 344.54376Q319.23438 343.8875 318.40625 343.8875Q317.60938 343.8875 317.10938 344.52814Q316.625 345.15314 316.625 346.35626ZM323.35938 349.45L323.35938 343.95L322.35938 343.95L322.35938 343.10626L323.35938 343.10626L323.35938 342.46564Q323.35938 341.4344 323.89062 340.8875Q324.4375 340.325 325.4375 340.325Q325.8125 340.325 326.1875 340.41876L326.125 341.3094Q325.84375 341.2469 325.54688 341.2469Q325.01562 341.2469 324.71875 341.5594Q324.4375 341.8719 324.4375 342.4344L324.4375 343.10626L325.79688 343.10626L325.79688 343.95L324.4375 343.95L324.4375 349.45L323.35938 349.45ZM331.20312 349.45L330.07812 349.45L330.07812 340.91876L331.20312 340.91876L331.20312 349.45ZM334.10938 346.10626L334.10938 349.45L332.98438 349.45L332.98438 340.91876L336.14062 340.91876Q337.53125 340.91876 338.32812 341.6375Q339.125 342.34064 339.125 343.52814Q339.125 344.7625 338.34375 345.4344Q337.57812 346.10626 336.125 346.10626L334.10938 346.10626ZM334.10938 345.1844L336.14062 345.1844Q337.04688 345.1844 337.51562 344.7625Q338.0 344.34064 338.0 343.54376Q338.0 342.77814 337.51562 342.325Q337.04688 341.85626 336.20312 341.84064L334.10938 341.84064L334.10938 345.1844ZM342.90625 347.98126L344.48438 343.10626L345.59375 343.10626L343.3125 349.45L342.48438 349.45L340.1875 343.10626L341.29688 343.10626L342.90625 347.98126ZM350.96875 340.91876L350.96875 341.825L350.76562 341.825Q349.5 341.85626 348.75 342.59064Q348.0 343.3094 347.875 344.6219Q348.5625 343.85626 349.71875 343.85626Q350.82812 343.85626 351.5 344.6375Q352.17188 345.41876 352.17188 346.66876Q352.17188 347.98126 351.45312 348.77814Q350.73438 349.575 349.51562 349.575Q348.29688 349.575 347.53125 348.6375Q346.78125 347.6844 346.78125 346.2L346.78125 345.79376Q346.78125 343.4344 347.78125 342.1844Q348.78125 340.9344 350.76562 340.91876L350.96875 340.91876ZM349.54688 344.7625Q348.98438 344.7625 348.51562 345.09064Q348.04688 345.41876 347.85938 345.9344L347.85938 346.325Q347.85938 347.3875 348.32812 348.02814Q348.8125 348.66876 349.51562 348.66876Q350.25 348.66876 350.67188 348.1375Q351.09375 347.59064 351.09375 346.71564Q351.09375 345.84064 350.67188 345.3094Q350.25 344.7625 349.54688 344.7625ZM360.73438 349.45Q360.64062 349.2625 360.57812 348.77814Q359.82812 349.575 358.78125 349.575Q357.84375 349.575 357.23438 349.04376Q356.64062 348.5125 356.64062 347.6844Q356.64062 346.7 357.39062 346.15314Q358.14062 345.60626 359.51562 345.60626L360.5625 345.60626L360.5625 345.10626Q360.5625 344.54376 360.21875 344.21564Q359.89062 343.8719 359.21875 343.8719Q358.64062 343.8719 358.25 344.16876Q357.85938 344.45 357.85938 344.8719L356.76562 344.8719Q356.76562 344.3875 357.09375 343.95Q357.4375 343.5125 358.01562 343.2625Q358.59375 342.9969 359.28125 342.9969Q360.39062 342.9969 361.0 343.54376Q361.625 344.09064 361.65625 345.04376L361.65625 347.96564Q361.65625 348.84064 361.875 349.35626L361.875 349.45L360.73438 349.45ZM358.9375 348.6219Q359.45312 348.6219 359.90625 348.35626Q360.35938 348.09064 360.5625 347.66876L360.5625 346.3719L359.71875 346.3719Q357.71875 346.3719 357.71875 347.54376Q357.71875 348.04376 358.0625 348.34064Q358.40625 348.6219 358.9375 348.6219ZM363.5625 346.23126Q363.5625 344.7625 364.25 343.8875Q364.9375 342.9969 366.0625 342.9969Q367.17188 342.9969 367.82812 343.7469L367.82812 340.45L368.90625 340.45L368.90625 349.45L367.90625 349.45L367.85938 348.7625Q367.20312 349.575 366.04688 349.575Q364.95312 349.575 364.25 348.66876Q363.5625 347.7625 363.5625 346.3094L363.5625 346.23126ZM364.64062 346.35626Q364.64062 347.4344 365.07812 348.04376Q365.53125 348.65314 366.3125 348.65314Q367.34375 348.65314 367.82812 347.71564L367.82812 344.8094Q367.34375 343.91876 366.32812 343.91876Q365.53125 343.91876 365.07812 344.52814Q364.64062 345.1375 364.64062 346.35626ZM370.5625 346.23126Q370.5625 344.7625 371.25 343.8875Q371.9375 342.9969 373.0625 342.9969Q374.17188 342.9969 374.82812 343.7469L374.82812 340.45L375.90625 340.45L375.90625 349.45L374.90625 349.45L374.85938 348.7625Q374.20312 349.575 373.04688 349.575Q371.95312 349.575 371.25 348.66876Q370.5625 347.7625 370.5625 346.3094L370.5625 346.23126ZM371.64062 346.35626Q371.64062 347.4344 372.07812 348.04376Q372.53125 348.65314 373.3125 348.65314Q374.34375 348.65314 374.82812 347.71564L374.82812 344.8094Q374.34375 343.91876 373.32812 343.91876Q372.53125 343.91876 372.07812 344.52814Q371.64062 345.1375 371.64062 346.35626ZM380.89062 344.075Q380.64062 344.04376 380.35938 344.04376Q379.28125 344.04376 378.90625 344.95L378.90625 349.45L377.82812 349.45L377.82812 343.10626L378.875 343.10626L378.89062 343.84064Q379.42188 342.9969 380.40625 342.9969Q380.71875 342.9969 380.89062 343.075L380.89062 344.075ZM384.45312 349.575Q383.15625 349.575 382.34375 348.73126Q381.54688 347.8719 381.54688 346.45L381.54688 346.2625Q381.54688 345.3094 381.90625 344.575Q382.26562 343.825 382.90625 343.41876Q383.5625 342.9969 384.3125 342.9969Q385.54688 342.9969 386.23438 343.8094Q386.92188 344.6219 386.92188 346.1375L386.92188 346.59064L382.625 346.59064Q382.65625 347.52814 383.17188 348.10626Q383.70312 348.6844 384.51562 348.6844Q385.07812 348.6844 385.46875 348.45Q385.875 348.21564 386.1875 347.825L386.84375 348.34064Q386.04688 349.575 384.45312 349.575ZM384.3125 343.8875Q383.65625 343.8875 383.20312 344.3719Q382.76562 344.84064 382.67188 345.7L385.84375 345.7L385.84375 345.6219Q385.79688 344.79376 385.39062 344.34064Q385.0 343.8875 384.3125 343.8875ZM391.51562 347.7625Q391.51562 347.325 391.17188 347.09064Q390.84375 346.84064 390.01562 346.66876Q389.20312 346.4969 388.71875 346.2469Q388.23438 345.9969 388.0 345.66876Q387.78125 345.325 387.78125 344.85626Q387.78125 344.075 388.4375 343.54376Q389.09375 342.9969 390.125 342.9969Q391.20312 342.9969 391.85938 343.5594Q392.53125 344.10626 392.53125 344.96564L391.45312 344.96564Q391.45312 344.52814 391.0625 344.21564Q390.6875 343.8875 390.125 343.8875Q389.53125 343.8875 389.1875 344.15314Q388.85938 344.40314 388.85938 344.8094Q388.85938 345.2 389.17188 345.40314Q389.48438 345.60626 390.29688 345.79376Q391.10938 345.96564 391.60938 346.21564Q392.10938 346.46564 392.34375 346.825Q392.59375 347.1844 392.59375 347.6844Q392.59375 348.54376 391.90625 349.0594Q391.23438 349.575 390.15625 349.575Q389.39062 349.575 388.79688 349.3094Q388.21875 349.02814 387.89062 348.54376Q387.5625 348.0594 387.5625 347.4969L388.64062 347.4969Q388.67188 348.04376 389.07812 348.3719Q389.48438 348.6844 390.15625 348.6844Q390.76562 348.6844 391.14062 348.4344Q391.51562 348.1844 391.51562 347.7625ZM397.51562 347.7625Q397.51562 347.325 397.17188 347.09064Q396.84375 346.84064 396.01562 346.66876Q395.20312 346.4969 394.71875 346.2469Q394.23438 345.9969 394.0 345.66876Q393.78125 345.325 393.78125 344.85626Q393.78125 344.075 394.4375 343.54376Q395.09375 342.9969 396.125 342.9969Q397.20312 342.9969 397.85938 343.5594Q398.53125 344.10626 398.53125 344.96564L397.45312 344.96564Q397.45312 344.52814 397.0625 344.21564Q396.6875 343.8875 396.125 343.8875Q395.53125 343.8875 395.1875 344.15314Q394.85938 344.40314 394.85938 344.8094Q394.85938 345.2 395.17188 345.40314Q395.48438 345.60626 396.29688 345.79376Q397.10938 345.96564 397.60938 346.21564Q398.10938 346.46564 398.34375 346.825Q398.59375 347.1844 398.59375 347.6844Q398.59375 348.54376 397.90625 349.0594Q397.23438 349.575 396.15625 349.575Q395.39062 349.575 394.79688 349.3094Q394.21875 349.02814 393.89062 348.54376Q393.5625 348.0594 393.5625 347.4969L394.64062 347.4969Q394.67188 348.04376 395.07812 348.3719Q395.48438 348.6844 396.15625 348.6844Q396.76562 348.6844 397.14062 348.4344Q397.51562 348.1844 397.51562 347.7625Z" fill-rule="nonzero"/><path fill="#424242" d="M22.940638 221.47604L22.940638 224.22604L30.550013 224.22604L30.550013 225.33542L22.940638 225.33542L22.940638 228.08542L22.018763 228.08542L22.018763 221.47604L22.940638 221.47604ZM30.550013 219.36667L30.550013 220.4448L24.206263 220.4448L24.206263 219.36667L30.550013 219.36667ZM22.534388 220.53854Q22.268763 220.53854 22.081263 220.3823Q21.893763 220.21042 21.893763 219.89792Q21.893763 219.58542 22.081263 219.42917Q22.268763 219.2573 22.534388 219.2573Q22.784388 219.2573 22.971888 219.42917Q23.143763 219.58542 23.143763 219.89792Q23.143763 220.21042 22.971888 220.3823Q22.784388 220.53854 22.534388 220.53854ZM24.206263 216.52292L24.909388 216.49167Q24.096888 215.80417 24.096888 214.61667Q24.096888 213.28854 25.112513 212.80417Q24.659388 212.49167 24.378138 211.99167Q24.096888 211.47604 24.096888 210.78854Q24.096888 208.6948 26.300013 208.66354L30.550013 208.66354L30.550013 209.74167L26.362513 209.74167Q25.690638 209.74167 25.362513 210.05417Q25.018763 210.36667 25.018763 211.10104Q25.018763 211.71042 25.378138 212.11667Q25.737513 212.5073 26.346888 212.5698L30.550013 212.5698L30.550013 213.64792L26.393763 213.64792Q25.018763 213.64792 25.018763 215.0073Q25.018763 216.0698 25.925013 216.46042L30.550013 216.46042L30.550013 217.55417L24.206263 217.55417L24.206263 216.52292ZM30.675013 203.91354Q30.675013 205.21042 29.831263 206.02292Q28.971888 206.8198 27.550013 206.8198L27.362513 206.8198Q26.409388 206.8198 25.675013 206.46042Q24.925013 206.10104 24.518763 205.46042Q24.096888 204.80417 24.096888 204.05417Q24.096888 202.8198 24.909388 202.1323Q25.721888 201.4448 27.237513 201.4448L27.690638 201.4448L27.690638 205.74167Q28.628138 205.71042 29.206263 205.1948Q29.784388 204.66354 29.784388 203.85104Q29.784388 203.28854 29.550013 202.89792Q29.315638 202.49167 28.925013 202.17917L29.440638 201.52292Q30.675013 202.3198 30.675013 203.91354ZM24.987513 204.05417Q24.987513 204.71042 25.471888 205.16354Q25.940638 205.60104 26.800013 205.6948L26.800013 202.52292L26.721888 202.52292Q25.893763 202.5698 25.440638 202.97604Q24.987513 203.36667 24.987513 204.05417ZM27.081263 197.58542Q25.768763 197.58542 24.550013 197.24167Q23.331263 196.8823 22.331263 196.17917Q21.331263 195.47604 20.925013 194.71042L21.643763 194.49167Q22.300013 195.35104 23.643763 195.89792Q24.987513 196.4448 26.659388 196.49167L27.159388 196.5073Q29.425013 196.5073 31.081263 195.67917Q32.08126 195.17917 32.64376 194.49167L33.30001 194.71042Q32.878136 195.49167 31.846888 196.21042Q29.862513 197.58542 27.081263 197.58542ZM24.206263 192.52292L24.909388 192.49167Q24.096888 191.80417 24.096888 190.61667Q24.096888 189.28854 25.112513 188.80417Q24.659388 188.49167 24.378138 187.99167Q24.096888 187.47604 24.096888 186.78854Q24.096888 184.6948 26.300013 184.66354L30.550013 184.66354L30.550013 185.74167L26.362513 185.74167Q25.690638 185.74167 25.362513 186.05417Q25.018763 186.36667 25.018763 187.10104Q25.018763 187.71042 25.378138 188.11667Q25.737513 188.5073 26.346888 188.5698L30.550013 188.5698L30.550013 189.64792L26.393763 189.64792Q25.018763 189.64792 25.018763 191.0073Q25.018763 192.0698 25.925013 192.46042L30.550013 192.46042L30.550013 193.55417L24.206263 193.55417L24.206263 192.52292ZM28.862513 178.85104Q28.425013 178.85104 28.190638 179.1948Q27.940638 179.52292 27.768763 180.35104Q27.596888 181.16354 27.346888 181.64792Q27.096888 182.1323 26.768763 182.36667Q26.425013 182.58542 25.956263 182.58542Q25.175013 182.58542 24.643763 181.92917Q24.096888 181.27292 24.096888 180.24167Q24.096888 179.16354 24.659388 178.5073Q25.206263 177.83542 26.065638 177.83542L26.065638 178.91354Q25.628138 178.91354 25.315638 179.30417Q24.987513 179.67917 24.987513 180.24167Q24.987513 180.83542 25.253138 181.17917Q25.503138 181.5073 25.909388 181.5073Q26.300013 181.5073 26.503138 181.1948Q26.706263 180.8823 26.893763 180.0698Q27.065638 179.2573 27.315638 178.7573Q27.565638 178.2573 27.925013 178.02292Q28.284388 177.77292 28.784388 177.77292Q29.643763 177.77292 30.159388 178.46042Q30.675013 179.1323 30.675013 180.21042Q30.675013 180.97604 30.409388 181.5698Q30.128138 182.14792 29.643763 182.47604Q29.159388 182.80417 28.596888 182.80417L28.596888 181.72604Q29.143763 181.6948 29.471888 181.28854Q29.784388 180.8823 29.784388 180.21042Q29.784388 179.60104 29.534388 179.22604Q29.284388 178.85104 28.862513 178.85104ZM27.143763 174.03854Q28.456263 174.03854 29.659388 174.3823Q30.846888 174.72604 31.862513 175.4448Q32.878136 176.14792 33.30001 176.91354L32.64376 177.14792Q31.956263 176.24167 30.503138 175.6948Q29.034388 175.14792 27.268763 175.1323L27.081263 175.1323Q25.846888 175.1323 24.784388 175.39792Q23.721888 175.64792 22.893763 176.11667Q22.050013 176.5698 21.581263 177.14792L20.925013 176.91354Q21.346888 176.14792 22.346888 175.4448Q23.346888 174.74167 24.565638 174.39792Q25.768763 174.03854 27.143763 174.03854Z" fill-rule="nonzero"/><path fill="#757575" d="M78.6125 299.3094Q78.6125 301.21564 77.95625 302.15314Q77.31563 303.075 75.925 303.075Q74.56563 303.075 73.90938 302.16876Q73.25313 301.2625 73.22188 299.45L73.22188 298.0125Q73.22188 296.1219 73.8625 295.21564Q74.51875 294.29376 75.90938 294.29376Q77.28438 294.29376 77.94063 295.1844Q78.59688 296.0594 78.6125 297.90314L78.6125 299.3094ZM77.51875 297.825Q77.51875 296.45 77.12813 295.825Q76.75313 295.1844 75.90938 295.1844Q75.08125 295.1844 74.69063 295.825Q74.31563 296.45 74.31563 297.7469L74.31563 299.48126Q74.31563 300.85626 74.70625 301.52814Q75.1125 302.1844 75.925 302.1844Q76.72188 302.1844 77.1125 301.5594Q77.50313 300.9344 77.51875 299.60626L77.51875 297.825Z" fill-rule="nonzero"/><path fill="#757575" d="M59.753124 246.50209L60.190624 242.25209L64.56563 242.25209L64.56563 243.25209L61.1125 243.25209L60.846874 245.58022Q61.4875 245.20522 62.284374 245.20522Q63.440624 245.20522 64.12813 245.98647Q64.81563 246.75209 64.81563 248.06459Q64.81563 249.37709 64.09688 250.14272Q63.39375 250.90834 62.1125 250.90834Q60.9875 250.90834 60.26875 250.28334Q59.55 249.64272 59.45625 248.53334L60.471874 248.53334Q60.58125 249.26772 61.003124 249.64272Q61.425 250.01772 62.1125 250.01772Q62.8625 250.01772 63.3 249.50209Q63.7375 248.98647 63.7375 248.08022Q63.7375 247.22084 63.26875 246.70522Q62.8 246.18959 62.01875 246.18959Q61.315624 246.18959 60.909374 246.48647L60.628124 246.72084L59.753124 246.50209ZM71.6125 247.14272Q71.6125 249.04897 70.95625 249.98647Q70.31563 250.90834 68.925 250.90834Q67.56563 250.90834 66.90938 250.00209Q66.25313 249.09584 66.22188 247.28334L66.22188 245.84584Q66.22188 243.95522 66.8625 243.04897Q67.51875 242.12709 68.90938 242.12709Q70.28438 242.12709 70.94063 243.01772Q71.59688 243.89272 71.6125 245.73647L71.6125 247.14272ZM70.51875 245.65834Q70.51875 244.28334 70.12813 243.65834Q69.75313 243.01772 68.90938 243.01772Q68.08125 243.01772 67.69063 243.65834Q67.31563 244.28334 67.31563 245.58022L67.31563 247.31459Q67.31563 248.68959 67.70625 249.36147Q68.1125 250.01772 68.925 250.01772Q69.72188 250.01772 70.1125 249.39272Q70.50313 248.76772 70.51875 247.43959L70.51875 245.65834ZM78.6125 247.14272Q78.6125 249.04897 77.95625 249.98647Q77.31563 250.90834 75.925 250.90834Q74.56563 250.90834 73.90938 250.00209Q73.25313 249.09584 73.22188 247.28334L73.22188 245.84584Q73.22188 243.95522 73.8625 243.04897Q74.51875 242.12709 75.90938 242.12709Q77.28438 242.12709 77.94063 243.01772Q78.59688 243.89272 78.6125 245.73647L78.6125 247.14272ZM77.51875 245.65834Q77.51875 244.28334 77.12813 243.65834Q76.75313 243.01772 75.90938 243.01772Q75.08125 243.01772 74.69063 243.65834Q74.31563 244.28334 74.31563 245.58022L74.31563 247.31459Q74.31563 248.68959 74.70625 249.36147Q75.1125 250.01772 75.925 250.01772Q76.72188 250.01772 77.1125 249.39272Q77.50313 248.76772 77.51875 247.43959L77.51875 245.65834Z" fill-rule="nonzero"/><path fill="#757575" d="M55.815624 198.61667L54.7375 198.61667L54.7375 191.39792L52.55 192.1948L52.55 191.21042L55.659374 190.03854L55.815624 190.03854L55.815624 198.61667ZM64.6125 194.97604Q64.6125 196.8823 63.95625 197.8198Q63.315624 198.74167 61.925 198.74167Q60.565624 198.74167 59.909374 197.83542Q59.253124 196.92917 59.221874 195.11667L59.221874 193.67917Q59.221874 191.78854 59.8625 190.8823Q60.51875 189.96042 61.909374 189.96042Q63.284374 189.96042 63.940624 190.85104Q64.59688 191.72604 64.6125 193.5698L64.6125 194.97604ZM63.51875 193.49167Q63.51875 192.11667 63.128124 191.49167Q62.753124 190.85104 61.909374 190.85104Q61.08125 190.85104 60.690624 191.49167Q60.315624 192.11667 60.315624 193.41354L60.315624 195.14792Q60.315624 196.52292 60.70625 197.1948Q61.1125 197.85104 61.925 197.85104Q62.721874 197.85104 63.1125 197.22604Q63.503124 196.60104 63.51875 195.27292L63.51875 193.49167ZM71.6125 194.97604Q71.6125 196.8823 70.95625 197.8198Q70.31563 198.74167 68.925 198.74167Q67.56563 198.74167 66.90938 197.83542Q66.25313 196.92917 66.22188 195.11667L66.22188 193.67917Q66.22188 191.78854 66.8625 190.8823Q67.51875 189.96042 68.90938 189.96042Q70.28438 189.96042 70.94063 190.85104Q71.59688 191.72604 71.6125 193.5698L71.6125 194.97604ZM70.51875 193.49167Q70.51875 192.11667 70.12813 191.49167Q69.75313 190.85104 68.90938 190.85104Q68.08125 190.85104 67.69063 191.49167Q67.31563 192.11667 67.31563 193.41354L67.31563 195.14792Q67.31563 196.52292 67.70625 197.1948Q68.1125 197.85104 68.925 197.85104Q69.72188 197.85104 70.1125 197.22604Q70.50313 196.60104 70.51875 195.27292L70.51875 193.49167ZM78.6125 194.97604Q78.6125 196.8823 77.95625 197.8198Q77.31563 198.74167 75.925 198.74167Q74.56563 198.74167 73.90938 197.83542Q73.25313 196.92917 73.22188 195.11667L73.22188 193.67917Q73.22188 191.78854 73.8625 190.8823Q74.51875 189.96042 75.90938 189.96042Q77.28438 189.96042 77.94063 190.85104Q78.59688 191.72604 78.6125 193.5698L78.6125 194.97604ZM77.51875 193.49167Q77.51875 192.11667 77.12813 191.49167Q76.75313 190.85104 75.90938 190.85104Q75.08125 190.85104 74.69063 191.49167Q74.31563 192.11667 74.31563 193.41354L74.31563 195.14792Q74.31563 196.52292 74.70625 197.1948Q75.1125 197.85104 75.925 197.85104Q76.72188 197.85104 77.1125 197.22604Q77.50313 196.60104 77.51875 195.27292L77.51875 193.49167Z" fill-rule="nonzero"/><path fill="#757575" d="M55.815624 146.45L54.7375 146.45L54.7375 139.23125L52.55 140.02812L52.55 139.04375L55.659374 137.87187L55.815624 137.87187L55.815624 146.45ZM59.753124 142.16875L60.190624 137.91875L64.56563 137.91875L64.56563 138.91875L61.1125 138.91875L60.846874 141.24687Q61.4875 140.87187 62.284374 140.87187Q63.440624 140.87187 64.12813 141.65312Q64.81563 142.41875 64.81563 143.73125Q64.81563 145.04375 64.09688 145.80937Q63.39375 146.575 62.1125 146.575Q60.9875 146.575 60.26875 145.95Q59.55 145.30937 59.45625 144.2L60.471874 144.2Q60.58125 144.93437 61.003124 145.30937Q61.425 145.68437 62.1125 145.68437Q62.8625 145.68437 63.3 145.16875Q63.7375 144.65312 63.7375 143.74687Q63.7375 142.8875 63.26875 142.37187Q62.8 141.85625 62.01875 141.85625Q61.315624 141.85625 60.909374 142.15312L60.628124 142.3875L59.753124 142.16875ZM71.6125 142.80937Q71.6125 144.71562 70.95625 145.65312Q70.31563 146.575 68.925 146.575Q67.56563 146.575 66.90938 145.66875Q66.25313 144.7625 66.22188 142.95L66.22188 141.5125Q66.22188 139.62187 66.8625 138.71562Q67.51875 137.79375 68.90938 137.79375Q70.28438 137.79375 70.94063 138.68437Q71.59688 139.55937 71.6125 141.40312L71.6125 142.80937ZM70.51875 141.325Q70.51875 139.95 70.12813 139.325Q69.75313 138.68437 68.90938 138.68437Q68.08125 138.68437 67.69063 139.325Q67.31563 139.95 67.31563 141.24687L67.31563 142.98125Q67.31563 144.35625 67.70625 145.02812Q68.1125 145.68437 68.925 145.68437Q69.72188 145.68437 70.1125 145.05937Q70.50313 144.43437 70.51875 143.10625L70.51875 141.325ZM78.6125 142.80937Q78.6125 144.71562 77.95625 145.65312Q77.31563 146.575 75.925 146.575Q74.56563 146.575 73.90938 145.66875Q73.25313 144.7625 73.22188 142.95L73.22188 141.5125Q73.22188 139.62187 73.8625 138.71562Q74.51875 137.79375 75.90938 137.79375Q77.28438 137.79375 77.94063 138.68437Q78.59688 139.55937 78.6125 141.40312L78.6125 142.80937ZM77.51875 141.325Q77.51875 139.95 77.12813 139.325Q76.75313 138.68437 75.90938 138.68437Q75.08125 138.68437 74.69063 139.325Q74.31563 139.95 74.31563 141.24687L74.31563 142.98125Q74.31563 144.35625 74.70625 145.02812Q75.1125 145.68437 75.925 145.68437Q76.72188 145.68437 77.1125 145.05937Q77.50313 144.43437 77.51875 143.10625L77.51875 141.325Z" fill-rule="nonzero"/><path fill="#757575" d="M57.846874 94.28333L52.253124 94.28333L52.253124 93.50208L55.20625 90.22083Q55.8625 89.47083 56.1125 89.01771Q56.3625 88.54896 56.3625 88.04896Q56.3625 87.37708 55.95625 86.95521Q55.565624 86.51771 54.878124 86.51771Q54.08125 86.51771 53.628124 86.98646Q53.175 87.43958 53.175 88.26771L52.096874 88.26771Q52.096874 87.08021 52.846874 86.36146Q53.6125 85.62708 54.878124 85.62708Q56.08125 85.62708 56.76875 86.25208Q57.45625 86.87708 57.45625 87.92396Q57.45625 89.17396 55.846874 90.92396L53.565624 93.39271L57.846874 93.39271L57.846874 94.28333ZM64.6125 90.64271Q64.6125 92.54896 63.95625 93.48646Q63.315624 94.40833 61.925 94.40833Q60.565624 94.40833 59.909374 93.50208Q59.253124 92.59583 59.221874 90.78333L59.221874 89.34583Q59.221874 87.45521 59.8625 86.54896Q60.51875 85.62708 61.909374 85.62708Q63.284374 85.62708 63.940624 86.51771Q64.59688 87.39271 64.6125 89.23646L64.6125 90.64271ZM63.51875 89.15833Q63.51875 87.78333 63.128124 87.15833Q62.753124 86.51771 61.909374 86.51771Q61.08125 86.51771 60.690624 87.15833Q60.315624 87.78333 60.315624 89.08021L60.315624 90.81458Q60.315624 92.18958 60.70625 92.86146Q61.1125 93.51771 61.925 93.51771Q62.721874 93.51771 63.1125 92.89271Q63.503124 92.26771 63.51875 90.93958L63.51875 89.15833ZM71.6125 90.64271Q71.6125 92.54896 70.95625 93.48646Q70.31563 94.40833 68.925 94.40833Q67.56563 94.40833 66.90938 93.50208Q66.25313 92.59583 66.22188 90.78333L66.22188 89.34583Q66.22188 87.45521 66.8625 86.54896Q67.51875 85.62708 68.90938 85.62708Q70.28438 85.62708 70.94063 86.51771Q71.59688 87.39271 71.6125 89.23646L71.6125 90.64271ZM70.51875 89.15833Q70.51875 87.78333 70.12813 87.15833Q69.75313 86.51771 68.90938 86.51771Q68.08125 86.51771 67.69063 87.15833Q67.31563 87.78333 67.31563 89.08021L67.31563 90.81458Q67.31563 92.18958 67.70625 92.86146Q68.1125 93.51771 68.925 93.51771Q69.72188 93.51771 70.1125 92.89271Q70.50313 92.26771 70.51875 90.93958L70.51875 89.15833ZM78.6125 90.64271Q78.6125 92.54896 77.95625 93.48646Q77.31563 94.40833 75.925 94.40833Q74.56563 94.40833 73.90938 93.50208Q73.25313 92.59583 73.22188 90.78333L73.22188 89.34583Q73.22188 87.45521 73.8625 86.54896Q74.51875 85.62708 75.90938 85.62708Q77.28438 85.62708 77.94063 86.51771Q78.59688 87.39271 78.6125 89.23646L78.6125 90.64271ZM77.51875 89.15833Q77.51875 87.78333 77.12813 87.15833Q76.75313 86.51771 75.90938 86.51771Q75.08125 86.51771 74.69063 87.15833Q74.31563 87.78333 74.31563 89.08021L74.31563 90.81458Q74.31563 92.18958 74.70625 92.86146Q75.1125 93.51771 75.925 93.51771Q76.72188 93.51771 77.1125 92.89271Q77.50313 92.26771 77.51875 90.93958L77.51875 89.15833Z" fill-rule="nonzero"/><path fill="#757575" d="M82.81563 316.45L81.7375 316.45L81.7375 309.23126L79.55 310.02814L79.55 309.04376L82.65938 307.8719L82.81563 307.8719L82.81563 316.45ZM91.6125 312.8094Q91.6125 314.71564 90.95625 315.65314Q90.31563 316.575 88.925 316.575Q87.56563 316.575 86.90938 315.66876Q86.25313 314.7625 86.22188 312.95L86.22188 311.5125Q86.22188 309.6219 86.8625 308.71564Q87.51875 307.79376 88.90938 307.79376Q90.28438 307.79376 90.94063 308.6844Q91.59688 309.5594 91.6125 311.40314L91.6125 312.8094ZM90.51875 311.325Q90.51875 309.95 90.12813 309.325Q89.75313 308.6844 88.90938 308.6844Q88.08125 308.6844 87.69063 309.325Q87.31563 309.95 87.31563 311.2469L87.31563 312.98126Q87.31563 314.35626 87.70625 315.02814Q88.1125 315.6844 88.925 315.6844Q89.72188 315.6844 90.1125 315.0594Q90.50313 314.4344 90.51875 313.10626L90.51875 311.325Z" fill-rule="nonzero"/><path fill="#757575" d="M178.49562 316.45L177.4175 316.45L177.4175 309.23126L175.23 310.02814L175.23 309.04376L178.33937 307.8719L178.49562 307.8719L178.49562 316.45ZM187.2925 312.8094Q187.2925 314.71564 186.63625 315.65314Q185.99562 316.575 184.605 316.575Q183.24562 316.575 182.58937 315.66876Q181.93312 314.7625 181.90187 312.95L181.90187 311.5125Q181.90187 309.6219 182.5425 308.71564Q183.19875 307.79376 184.58937 307.79376Q185.96437 307.79376 186.62062 308.6844Q187.27687 309.5594 187.2925 311.40314L187.2925 312.8094ZM186.19875 311.325Q186.19875 309.95 185.80812 309.325Q185.43312 308.6844 184.58937 308.6844Q183.76125 308.6844 183.37062 309.325Q182.99562 309.95 182.99562 311.2469L182.99562 312.98126Q182.99562 314.35626 183.38625 315.02814Q183.7925 315.6844 184.605 315.6844Q185.40187 315.6844 185.7925 315.0594Q186.18312 314.4344 186.19875 313.10626L186.19875 311.325ZM194.2925 312.8094Q194.2925 314.71564 193.63625 315.65314Q192.99562 316.575 191.605 316.575Q190.24562 316.575 189.58937 315.66876Q188.93312 314.7625 188.90187 312.95L188.90187 311.5125Q188.90187 309.6219 189.5425 308.71564Q190.19875 307.79376 191.58937 307.79376Q192.96437 307.79376 193.62062 308.6844Q194.27687 309.5594 194.2925 311.40314L194.2925 312.8094ZM193.19875 311.325Q193.19875 309.95 192.80812 309.325Q192.43312 308.6844 191.58937 308.6844Q190.76125 308.6844 190.37062 309.325Q189.99562 309.95 189.99562 311.2469L189.99562 312.98126Q189.99562 314.35626 190.38625 315.02814Q190.7925 315.6844 191.605 315.6844Q192.40187 315.6844 192.7925 315.0594Q193.18312 314.4344 193.19875 313.10626L193.19875 311.325Z" fill-rule="nonzero"/><path fill="#757575" d="M274.17563 316.45L273.0975 316.45L273.0975 309.23126L270.91 310.02814L270.91 309.04376L274.01938 307.8719L274.17563 307.8719L274.17563 316.45ZM282.9725 312.8094Q282.9725 314.71564 282.31625 315.65314Q281.67563 316.575 280.285 316.575Q278.92563 316.575 278.26938 315.66876Q277.61313 314.7625 277.58188 312.95L277.58188 311.5125Q277.58188 309.6219 278.2225 308.71564Q278.87875 307.79376 280.26938 307.79376Q281.64438 307.79376 282.30063 308.6844Q282.95688 309.5594 282.9725 311.40314L282.9725 312.8094ZM281.87875 311.325Q281.87875 309.95 281.48813 309.325Q281.11313 308.6844 280.26938 308.6844Q279.44125 308.6844 279.05063 309.325Q278.67563 309.95 278.67563 311.2469L278.67563 312.98126Q278.67563 314.35626 279.06625 315.02814Q279.4725 315.6844 280.285 315.6844Q281.08188 315.6844 281.4725 315.0594Q281.86313 314.4344 281.87875 313.10626L281.87875 311.325ZM289.9725 312.8094Q289.9725 314.71564 289.31625 315.65314Q288.67563 316.575 287.285 316.575Q285.92563 316.575 285.26938 315.66876Q284.61313 314.7625 284.58188 312.95L284.58188 311.5125Q284.58188 309.6219 285.2225 308.71564Q285.87875 307.79376 287.26938 307.79376Q288.64438 307.79376 289.30063 308.6844Q289.95688 309.5594 289.9725 311.40314L289.9725 312.8094ZM288.87875 311.325Q288.87875 309.95 288.48813 309.325Q288.11313 308.6844 287.26938 308.6844Q286.44125 308.6844 286.05063 309.325Q285.67563 309.95 285.67563 311.2469L285.67563 312.98126Q285.67563 314.35626 286.06625 315.02814Q286.4725 315.6844 287.285 315.6844Q288.08188 315.6844 288.4725 315.0594Q288.86313 314.4344 288.87875 313.10626L288.87875 311.325ZM296.9725 312.8094Q296.9725 314.71564 296.31625 315.65314Q295.67563 316.575 294.285 316.575Q292.92563 316.575 292.26938 315.66876Q291.61313 314.7625 291.58188 312.95L291.58188 311.5125Q291.58188 309.6219 292.2225 308.71564Q292.87875 307.79376 294.26938 307.79376Q295.64438 307.79376 296.30063 308.6844Q296.95688 309.5594 296.9725 311.40314L296.9725 312.8094ZM295.87875 311.325Q295.87875 309.95 295.48813 309.325Q295.11313 308.6844 294.26938 308.6844Q293.44125 308.6844 293.05063 309.325Q292.67563 309.95 292.67563 311.2469L292.67563 312.98126Q292.67563 314.35626 293.06625 315.02814Q293.4725 315.6844 294.285 315.6844Q295.08188 315.6844 295.4725 315.0594Q295.86313 314.4344 295.87875 313.10626L295.87875 311.325Z" fill-rule="nonzero"/><path fill="#757575" d="M369.85562 316.45L368.7775 316.45L368.7775 309.23126L366.59 310.02814L366.59 309.04376L369.69937 307.8719L369.85562 307.8719L369.85562 316.45ZM378.6525 312.8094Q378.6525 314.71564 377.99625 315.65314Q377.35562 316.575 375.965 316.575Q374.60562 316.575 373.94937 315.66876Q373.29312 314.7625 373.26187 312.95L373.26187 311.5125Q373.26187 309.6219 373.9025 308.71564Q374.55875 307.79376 375.94937 307.79376Q377.32437 307.79376 377.98062 308.6844Q378.63687 309.5594 378.6525 311.40314L378.6525 312.8094ZM377.55875 311.325Q377.55875 309.95 377.16812 309.325Q376.79312 308.6844 375.94937 308.6844Q375.12125 308.6844 374.73062 309.325Q374.35562 309.95 374.35562 311.2469L374.35562 312.98126Q374.35562 314.35626 374.74625 315.02814Q375.1525 315.6844 375.965 315.6844Q376.76187 315.6844 377.1525 315.0594Q377.54312 314.4344 377.55875 313.10626L377.55875 311.325ZM385.6525 312.8094Q385.6525 314.71564 384.99625 315.65314Q384.35562 316.575 382.965 316.575Q381.60562 316.575 380.94937 315.66876Q380.29312 314.7625 380.26187 312.95L380.26187 311.5125Q380.26187 309.6219 380.9025 308.71564Q381.55875 307.79376 382.94937 307.79376Q384.32437 307.79376 384.98062 308.6844Q385.63687 309.5594 385.6525 311.40314L385.6525 312.8094ZM384.55875 311.325Q384.55875 309.95 384.16812 309.325Q383.79312 308.6844 382.94937 308.6844Q382.12125 308.6844 381.73062 309.325Q381.35562 309.95 381.35562 311.2469L381.35562 312.98126Q381.35562 314.35626 381.74625 315.02814Q382.1525 315.6844 382.965 315.6844Q383.76187 315.6844 384.1525 315.0594Q384.54312 314.4344 384.55875 313.10626L384.55875 311.325ZM392.6525 312.8094Q392.6525 314.71564 391.99625 315.65314Q391.35562 316.575 389.965 316.575Q388.60562 316.575 387.94937 315.66876Q387.29312 314.7625 387.26187 312.95L387.26187 311.5125Q387.26187 309.6219 387.9025 308.71564Q388.55875 307.79376 389.94937 307.79376Q391.32437 307.79376 391.98062 308.6844Q392.63687 309.5594 392.6525 311.40314L392.6525 312.8094ZM391.55875 311.325Q391.55875 309.95 391.16812 309.325Q390.79312 308.6844 389.94937 308.6844Q389.12125 308.6844 388.73062 309.325Q388.35562 309.95 388.35562 311.2469L388.35562 312.98126Q388.35562 314.35626 388.74625 315.02814Q389.1525 315.6844 389.965 315.6844Q390.76187 315.6844 391.1525 315.0594Q391.54312 314.4344 391.55875 313.10626L391.55875 311.325ZM399.6525 312.8094Q399.6525 314.71564 398.99625 315.65314Q398.35562 316.575 396.965 316.575Q395.60562 316.575 394.94937 315.66876Q394.29312 314.7625 394.26187 312.95L394.26187 311.5125Q394.26187 309.6219 394.9025 308.71564Q395.55875 307.79376 396.94937 307.79376Q398.32437 307.79376 398.98062 308.6844Q399.63687 309.5594 399.6525 311.40314L399.6525 312.8094ZM398.55875 311.325Q398.55875 309.95 398.16812 309.325Q397.79312 308.6844 396.94937 308.6844Q396.12125 308.6844 395.73062 309.325Q395.35562 309.95 395.35562 311.2469L395.35562 312.98126Q395.35562 314.35626 395.74625 315.02814Q396.1525 315.6844 396.965 315.6844Q397.76187 315.6844 398.1525 315.0594Q398.54312 314.4344 398.55875 313.10626L398.55875 311.325Z" fill-rule="nonzero"/><path fill="#757575" d="M465.5356 316.45L464.4575 316.45L464.4575 309.23126L462.27 310.02814L462.27 309.04376L465.37936 307.8719L465.5356 307.8719L465.5356 316.45ZM474.3325 312.8094Q474.3325 314.71564 473.67624 315.65314Q473.0356 316.575 471.645 316.575Q470.2856 316.575 469.62936 315.66876Q468.9731 314.7625 468.94186 312.95L468.94186 311.5125Q468.94186 309.6219 469.5825 308.71564Q470.23874 307.79376 471.62936 307.79376Q473.00436 307.79376 473.6606 308.6844Q474.31686 309.5594 474.3325 311.40314L474.3325 312.8094ZM473.23874 311.325Q473.23874 309.95 472.8481 309.325Q472.4731 308.6844 471.62936 308.6844Q470.80124 308.6844 470.4106 309.325Q470.0356 309.95 470.0356 311.2469L470.0356 312.98126Q470.0356 314.35626 470.42624 315.02814Q470.8325 315.6844 471.645 315.6844Q472.44186 315.6844 472.8325 315.0594Q473.2231 314.4344 473.23874 313.10626L473.23874 311.325ZM481.3325 312.8094Q481.3325 314.71564 480.67624 315.65314Q480.0356 316.575 478.645 316.575Q477.2856 316.575 476.62936 315.66876Q475.9731 314.7625 475.94186 312.95L475.94186 311.5125Q475.94186 309.6219 476.5825 308.71564Q477.23874 307.79376 478.62936 307.79376Q480.00436 307.79376 480.6606 308.6844Q481.31686 309.5594 481.3325 311.40314L481.3325 312.8094ZM480.23874 311.325Q480.23874 309.95 479.8481 309.325Q479.4731 308.6844 478.62936 308.6844Q477.80124 308.6844 477.4106 309.325Q477.0356 309.95 477.0356 311.2469L477.0356 312.98126Q477.0356 314.35626 477.42624 315.02814Q477.8325 315.6844 478.645 315.6844Q479.44186 315.6844 479.8325 315.0594Q480.2231 314.4344 480.23874 313.10626L480.23874 311.325ZM488.3325 312.8094Q488.3325 314.71564 487.67624 315.65314Q487.0356 316.575 485.645 316.575Q484.2856 316.575 483.62936 315.66876Q482.9731 314.7625 482.94186 312.95L482.94186 311.5125Q482.94186 309.6219 483.5825 308.71564Q484.23874 307.79376 485.62936 307.79376Q487.00436 307.79376 487.6606 308.6844Q488.31686 309.5594 488.3325 311.40314L488.3325 312.8094ZM487.23874 311.325Q487.23874 309.95 486.8481 309.325Q486.4731 308.6844 485.62936 308.6844Q484.80124 308.6844 484.4106 309.325Q484.0356 309.95 484.0356 311.2469L484.0356 312.98126Q484.0356 314.35626 484.42624 315.02814Q484.8325 315.6844 485.645 315.6844Q486.44186 315.6844 486.8325 315.0594Q487.2231 314.4344 487.23874 313.10626L487.23874 311.325ZM495.3325 312.8094Q495.3325 314.71564 494.67624 315.65314Q494.0356 316.575 492.645 316.575Q491.2856 316.575 490.62936 315.66876Q489.9731 314.7625 489.94186 312.95L489.94186 311.5125Q489.94186 309.6219 490.5825 308.71564Q491.23874 307.79376 492.62936 307.79376Q494.00436 307.79376 494.6606 308.6844Q495.31686 309.5594 495.3325 311.40314L495.3325 312.8094ZM494.23874 311.325Q494.23874 309.95 493.8481 309.325Q493.4731 308.6844 492.62936 308.6844Q491.80124 308.6844 491.4106 309.325Q491.0356 309.95 491.0356 311.2469L491.0356 312.98126Q491.0356 314.35626 491.42624 315.02814Q491.8325 315.6844 492.645 315.6844Q493.44186 315.6844 493.8325 315.0594Q494.2231 314.4344 494.23874 313.10626L494.23874 311.325ZM502.3325 312.8094Q502.3325 314.71564 501.67624 315.65314Q501.0356 316.575 499.645 316.575Q498.2856 316.575 497.62936 315.66876Q496.9731 314.7625 496.94186 312.95L496.94186 311.5125Q496.94186 309.6219 497.5825 308.71564Q498.23874 307.79376 499.62936 307.79376Q501.00436 307.79376 501.6606 308.6844Q502.31686 309.5594 502.3325 311.40314L502.3325 312.8094ZM501.23874 311.325Q501.23874 309.95 500.8481 309.325Q500.4731 308.6844 499.62936 308.6844Q498.80124 308.6844 498.4106 309.325Q498.0356 309.95 498.0356 311.2469L498.0356 312.98126Q498.0356 314.35626 498.42624 315.02814Q498.8325 315.6844 499.645 315.6844Q500.44186 315.6844 500.8325 315.0594Q501.2231 314.4344 501.23874 313.10626L501.23874 311.325Z" fill-rule="nonzero"/><path stroke="#4285f4" stroke-width="4.0" stroke-linecap="butt" d="M221.5 62.416668L233.5 62.416668" fill-rule="nonzero"/><path fill="#757575" d="M243.9375 58.385414L246.73438 65.33854L249.51562 58.385414L250.98438 58.385414L250.98438 66.916664L249.85938 66.916664L249.85938 63.58854L249.96875 60.010414L247.15625 66.916664L246.29688 66.916664L243.5 60.02604L243.60938 63.58854L243.60938 66.916664L242.48438 66.916664L242.48438 58.385414L243.9375 58.385414ZM252.03125 63.68229Q252.03125 62.760414 252.39062 62.010414Q252.76562 61.260414 253.42188 60.86979Q254.07812 60.46354 254.90625 60.46354Q256.20312 60.46354 257.0 61.354164Q257.8125 62.24479 257.8125 63.74479L257.8125 63.822914Q257.8125 64.74479 257.45312 65.479164Q257.09375 66.21354 256.4375 66.635414Q255.78125 67.041664 254.92188 67.041664Q253.64062 67.041664 252.82812 66.15104Q252.03125 65.24479 252.03125 63.760414L252.03125 63.68229ZM253.125 63.822914Q253.125 64.86979 253.60938 65.510414Q254.10938 66.15104 254.92188 66.15104Q255.75 66.15104 256.23438 65.510414Q256.71875 64.854164 256.71875 63.68229Q256.71875 62.65104 256.21875 62.010414Q255.73438 61.354164 254.90625 61.354164Q254.10938 61.354164 253.60938 61.99479Q253.125 62.61979 253.125 63.822914ZM259.0625 63.697914Q259.0625 62.229164 259.75 61.354164Q260.4375 60.46354 261.5625 60.46354Q262.67188 60.46354 263.32812 61.21354L263.32812 57.916664L264.40625 57.916664L264.40625 66.916664L263.40625 66.916664L263.35938 66.229164Q262.70312 67.041664 261.54688 67.041664Q260.45312 67.041664 259.75 66.135414Q259.0625 65.229164 259.0625 63.77604L259.0625 63.697914ZM260.14062 63.822914Q260.14062 64.90104 260.57812 65.510414Q261.03125 66.11979 261.8125 66.11979Q262.84375 66.11979 263.32812 65.18229L263.32812 62.27604Q262.84375 61.385414 261.82812 61.385414Q261.03125 61.385414 260.57812 61.99479Q260.14062 62.604164 260.14062 63.822914ZM272.0 63.11979Q270.5625 62.697914 269.89062 62.08854Q269.23438 61.479164 269.23438 60.58854Q269.23438 59.58854 270.03125 58.93229Q270.84375 58.260414 272.14062 58.260414Q273.01562 58.260414 273.70312 58.604164Q274.39062 58.947914 274.76562 59.541664Q275.15625 60.135414 275.15625 60.854164L274.01562 60.854164Q274.01562 60.072914 273.51562 59.635414Q273.03125 59.197914 272.14062 59.197914Q271.3125 59.197914 270.84375 59.572914Q270.375 59.93229 270.375 60.572914Q270.375 61.104164 270.8125 61.46354Q271.26562 61.822914 272.32812 62.11979Q273.39062 62.416664 273.98438 62.77604Q274.59375 63.135414 274.875 63.61979Q275.17188 64.104164 275.17188 64.74479Q275.17188 65.791664 274.35938 66.416664Q273.54688 67.041664 272.20312 67.041664Q271.3125 67.041664 270.54688 66.697914Q269.79688 66.354164 269.375 65.77604Q268.96875 65.18229 268.96875 64.447914L270.09375 64.447914Q270.09375 65.21354 270.67188 65.666664Q271.25 66.11979 272.20312 66.11979Q273.09375 66.11979 273.5625 65.760414Q274.03125 65.385414 274.03125 64.760414Q274.03125 64.135414 273.59375 63.791664Q273.15625 63.447914 272.0 63.11979ZM278.95312 67.041664Q277.65625 67.041664 276.84375 66.197914Q276.04688 65.33854 276.04688 63.916664L276.04688 63.729164Q276.04688 62.77604 276.40625 62.041664Q276.76562 61.291664 277.40625 60.885414Q278.0625 60.46354 278.8125 60.46354Q280.04688 60.46354 280.73438 61.27604Q281.42188 62.08854 281.42188 63.604164L281.42188 64.05729L277.125 64.05729Q277.15625 64.99479 277.67188 65.572914Q278.20312 66.15104 279.01562 66.15104Q279.57812 66.15104 279.96875 65.916664Q280.375 65.68229 280.6875 65.291664L281.34375 65.80729Q280.54688 67.041664 278.95312 67.041664ZM278.8125 61.354164Q278.15625 61.354164 277.70312 61.83854Q277.26562 62.30729 277.17188 63.166664L280.34375 63.166664L280.34375 63.08854Q280.29688 62.260414 279.89062 61.80729Q279.5 61.354164 278.8125 61.354164ZM284.85938 66.15104Q285.4375 66.15104 285.875 65.80729Q286.3125 65.447914 286.35938 64.916664L287.39062 64.916664Q287.35938 65.46354 287.0 65.96354Q286.65625 66.447914 286.07812 66.74479Q285.51562 67.041664 284.85938 67.041664Q283.5625 67.041664 282.79688 66.18229Q282.04688 65.30729 282.04688 63.80729L282.04688 63.61979Q282.04688 62.697914 282.375 61.979164Q282.71875 61.260414 283.34375 60.86979Q283.98438 60.46354 284.85938 60.46354Q285.92188 60.46354 286.625 61.104164Q287.34375 61.729164 287.39062 62.760414L286.35938 62.760414Q286.3125 62.135414 285.89062 61.74479Q285.46875 61.354164 284.85938 61.354164Q284.03125 61.354164 283.57812 61.947914Q283.125 62.541664 283.125 63.666664L283.125 63.86979Q283.125 64.96354 283.57812 65.55729Q284.03125 66.15104 284.85938 66.15104ZM292.23438 66.291664Q291.60938 67.041664 290.375 67.041664Q289.35938 67.041664 288.82812 66.447914Q288.29688 65.854164 288.29688 64.697914L288.29688 60.572914L289.375 60.572914L289.375 64.666664Q289.375 66.11979 290.54688 66.11979Q291.79688 66.11979 292.20312 65.18229L292.20312 60.572914L293.29688 60.572914L293.29688 66.916664L292.26562 66.916664L292.23438 66.291664ZM298.39062 61.541664Q298.14062 61.510414 297.85938 61.510414Q296.78125 61.510414 296.40625 62.416664L296.40625 66.916664L295.32812 66.916664L295.32812 60.572914L296.375 60.572914L296.39062 61.30729Q296.92188 60.46354 297.90625 60.46354Q298.21875 60.46354 298.39062 60.541664L298.39062 61.541664ZM300.5 66.916664L299.42188 66.916664L299.42188 60.572914L300.5 60.572914L300.5 66.916664ZM299.32812 58.90104Q299.32812 58.635414 299.48438 58.447914Q299.65625 58.260414 299.96875 58.260414Q300.28125 58.260414 300.4375 58.447914Q300.60938 58.635414 300.60938 58.90104Q300.60938 59.15104 300.4375 59.33854Q300.28125 59.510414 299.96875 59.510414Q299.65625 59.510414 299.48438 59.33854Q299.32812 59.15104 299.32812 58.90104ZM303.79688 59.041664L303.79688 60.572914L304.96875 60.572914L304.96875 61.416664L303.79688 61.416664L303.79688 65.33854Q303.79688 65.729164 303.95312 65.916664Q304.10938 66.104164 304.48438 66.104164Q304.67188 66.104164 305.0 66.041664L305.0 66.916664Q304.57812 67.041664 304.17188 67.041664Q303.45312 67.041664 303.07812 66.604164Q302.70312 66.15104 302.70312 65.33854L302.70312 61.416664L301.54688 61.416664L301.54688 60.572914L302.70312 60.572914L302.70312 59.041664L303.79688 59.041664ZM308.39062 65.322914L309.875 60.572914L311.03125 60.572914L308.48438 67.90104Q307.89062 69.479164 306.60938 69.479164L306.39062 69.46354L306.0 69.385414L306.0 68.510414L306.28125 68.52604Q306.84375 68.52604 307.14062 68.30729Q307.45312 68.08854 307.65625 67.49479L307.89062 66.83854L305.625 60.572914L306.8125 60.572914L308.39062 65.322914Z" fill-rule="nonzero"/><path stroke="#db4437" stroke-width="4.0" stroke-linecap="butt" d="M327.5 62.416668L339.5 62.416668" fill-rule="nonzero"/><path fill="#757575" d="M350.32812 64.229164L350.5 65.354164L350.73438 64.33854L352.42188 58.385414L353.375 58.385414L355.01562 64.33854L355.25 65.36979L355.4375 64.21354L356.76562 58.385414L357.89062 58.385414L355.82812 66.916664L354.79688 66.916664L353.03125 60.697914L352.90625 60.041664L352.76562 60.697914L350.95312 66.916664L349.92188 66.916664L347.85938 58.385414L348.98438 58.385414L350.32812 64.229164ZM363.23438 66.916664Q363.14062 66.729164 363.07812 66.24479Q362.32812 67.041664 361.28125 67.041664Q360.34375 67.041664 359.73438 66.510414Q359.14062 65.979164 359.14062 65.15104Q359.14062 64.166664 359.89062 63.61979Q360.64062 63.072914 362.01562 63.072914L363.0625 63.072914L363.0625 62.572914Q363.0625 62.010414 362.71875 61.68229Q362.39062 61.33854 361.71875 61.33854Q361.14062 61.33854 360.75 61.635414Q360.35938 61.916664 360.35938 62.33854L359.26562 62.33854Q359.26562 61.854164 359.59375 61.416664Q359.9375 60.979164 360.51562 60.729164Q361.09375 60.46354 361.78125 60.46354Q362.89062 60.46354 363.5 61.010414Q364.125 61.55729 364.15625 62.510414L364.15625 65.43229Q364.15625 66.30729 364.375 66.822914L364.375 66.916664L363.23438 66.916664ZM361.4375 66.08854Q361.95312 66.08854 362.40625 65.822914Q362.85938 65.55729 363.0625 65.135414L363.0625 63.83854L362.21875 63.83854Q360.21875 63.83854 360.21875 65.010414Q360.21875 65.510414 360.5625 65.80729Q360.90625 66.08854 361.4375 66.08854ZM366.85938 66.916664L366.85938 61.416664L365.85938 61.416664L365.85938 60.572914L366.85938 60.572914L366.85938 59.93229Q366.85938 58.90104 367.39062 58.354164Q367.9375 57.791664 368.9375 57.791664Q369.3125 57.791664 369.6875 57.885414L369.625 58.77604Q369.34375 58.71354 369.04688 58.71354Q368.51562 58.71354 368.21875 59.02604Q367.9375 59.33854 367.9375 59.90104L367.9375 60.572914L369.29688 60.572914L369.29688 61.416664L367.9375 61.416664L367.9375 66.916664L366.85938 66.916664ZM371.5 66.916664L370.42188 66.916664L370.42188 57.916664L371.5 57.916664L371.5 66.916664ZM374.34375 66.02604L378.04688 66.02604L378.04688 66.916664L373.01562 66.916664L373.01562 66.11979L376.51562 61.479164L373.0625 61.479164L373.0625 60.572914L377.875 60.572914L377.875 61.33854L374.34375 66.02604Z" fill-rule="nonzero"/><path fill="#757575" d="M30.01875 24.878124L25.45625 24.878124L25.45625 37.55L23.596874 37.55L23.596874 24.878124L19.034374 24.878124L19.034374 23.33125L30.01875 23.33125L30.01875 24.878124ZM33.878124 37.55L32.08125 37.55L32.08125 26.9875L33.878124 26.9875L33.878124 37.55ZM31.925 24.175Q31.925 23.7375 32.190624 23.440624Q32.471874 23.128124 32.9875 23.128124Q33.51875 23.128124 33.784374 23.440624Q34.065624 23.7375 34.065624 24.175Q34.065624 24.6125 33.784374 24.909374Q33.51875 25.20625 32.9875 25.20625Q32.471874 25.20625 32.190624 24.909374Q31.925 24.6125 31.925 24.175ZM38.6125 26.9875L38.659374 28.159374Q39.83125 26.784374 41.8 26.784374Q44.01875 26.784374 44.815624 28.4875Q45.346874 27.721874 46.190624 27.253124Q47.034374 26.784374 48.190624 26.784374Q51.659374 26.784374 51.721874 30.471874L51.721874 37.55L49.909374 37.55L49.909374 30.58125Q49.909374 29.440624 49.39375 28.878124Q48.878124 28.315624 47.659374 28.315624Q46.659374 28.315624 45.9875 28.925Q45.33125 29.51875 45.221874 30.534374L45.221874 37.55L43.409374 37.55L43.409374 30.628124Q43.409374 28.315624 41.14375 28.315624Q39.3625 28.315624 38.721874 29.83125L38.721874 37.55L36.909374 37.55L36.909374 26.9875L38.6125 26.9875ZM59.3 37.753124Q57.159374 37.753124 55.8 36.346874Q54.45625 34.925 54.45625 32.565624L54.45625 32.221874Q54.45625 30.659374 55.05 29.425Q55.659374 28.190624 56.7375 27.4875Q57.815624 26.784374 59.08125 26.784374Q61.14375 26.784374 62.284374 28.14375Q63.425 29.503124 63.425 32.034374L63.425 32.784374L56.26875 32.784374Q56.3 34.346874 57.175 35.315624Q58.05 36.26875 59.39375 36.26875Q60.3625 36.26875 61.01875 35.878124Q61.690624 35.4875 62.190624 34.846874L63.284374 35.70625Q61.95625 37.753124 59.3 37.753124ZM59.08125 28.26875Q57.9875 28.26875 57.2375 29.065624Q56.503124 29.8625 56.33125 31.3L61.6125 31.3L61.6125 31.159374Q61.534374 29.784374 60.8625 29.034374Q60.20625 28.26875 59.08125 28.26875ZM73.3625 24.425L73.3625 26.9875L75.34688 26.9875L75.34688 28.378124L73.3625 28.378124L73.3625 34.925Q73.3625 35.565624 73.62813 35.89375Q73.89375 36.20625 74.53438 36.20625Q74.84688 36.20625 75.39375 36.08125L75.39375 37.55Q74.675 37.753124 74.00313 37.753124Q72.8 37.753124 72.175 37.01875Q71.56563 36.284374 71.56563 34.925L71.56563 28.378124L69.64375 28.378124L69.64375 26.9875L71.56563 26.9875L71.56563 24.425L73.3625 24.425ZM77.44063 32.175Q77.44063 30.6125 78.05 29.378124Q78.65938 28.128124 79.7375 27.45625Q80.83125 26.784374 82.2375 26.784374Q84.39375 26.784374 85.72188 28.284374Q87.06563 29.76875 87.06563 32.253124L87.06563 32.378124Q87.06563 33.925 86.47188 35.159374Q85.87813 36.378124 84.76875 37.065624Q83.675 37.753124 82.25313 37.753124Q80.1125 37.753124 78.76875 36.253124Q77.44063 34.753124 77.44063 32.3L77.44063 32.175ZM79.25313 32.378124Q79.25313 34.14375 80.06563 35.20625Q80.89375 36.26875 82.25313 36.26875Q83.62813 36.26875 84.44063 35.190624Q85.25313 34.1125 85.25313 32.175Q85.25313 30.425 84.425 29.346874Q83.59688 28.26875 82.2375 28.26875Q80.89375 28.26875 80.06563 29.33125Q79.25313 30.39375 79.25313 32.378124ZM102.84688 32.378124Q102.84688 34.8 101.7375 36.284374Q100.64375 37.753124 98.75313 37.753124Q96.83125 37.753124 95.72188 36.51875L95.72188 41.6125L93.925 41.6125L93.925 26.9875L95.56563 26.9875L95.65938 28.159374Q96.75313 26.784374 98.72188 26.784374Q100.62813 26.784374 101.7375 28.221874Q102.84688 29.659374 102.84688 32.221874L102.84688 32.378124ZM101.03438 32.175Q101.03438 30.39375 100.26875 29.3625Q99.51875 28.315624 98.19063 28.315624Q96.55 28.315624 95.72188 29.76875L95.72188 34.83125Q96.53438 36.26875 98.20625 36.26875Q99.50313 36.26875 100.26875 35.2375Q101.03438 34.20625 101.03438 32.175ZM109.3 37.753124Q107.15938 37.753124 105.8 36.346874Q104.45625 34.925 104.45625 32.565624L104.45625 32.221874Q104.45625 30.659374 105.05 29.425Q105.65938 28.190624 106.7375 27.4875Q107.81563 26.784374 109.08125 26.784374Q111.14375 26.784374 112.28438 28.14375Q113.425 29.503124 113.425 32.034374L113.425 32.784374L106.26875 32.784374Q106.3 34.346874 107.175 35.315624Q108.05 36.26875 109.39375 36.26875Q110.3625 36.26875 111.01875 35.878124Q111.69063 35.4875 112.19063 34.846874L113.28438 35.70625Q111.95625 37.753124 109.3 37.753124ZM109.08125 28.26875Q107.9875 28.26875 107.2375 29.065624Q106.50313 29.8625 106.33125 31.3L111.6125 31.3L111.6125 31.159374Q111.53438 29.784374 110.8625 29.034374Q110.20625 28.26875 109.08125 28.26875ZM121.01875 28.596874Q120.6125 28.534374 120.14375 28.534374Q118.3625 28.534374 117.72188 30.05L117.72188 37.55L115.925 37.55L115.925 26.9875L117.675 26.9875L117.70625 28.20625Q118.59688 26.784374 120.22188 26.784374Q120.75313 26.784374 121.01875 26.925L121.01875 28.596874ZM123.8 37.55L123.8 28.378124L122.14375 28.378124L122.14375 26.9875L123.8 26.9875L123.8 25.89375Q123.8 24.20625 124.70625 23.284374Q125.62813 22.346874 127.28438 22.346874Q127.90938 22.346874 128.51875 22.503124L128.425 23.971874Q127.97188 23.89375 127.45625 23.89375Q126.56563 23.89375 126.08125 24.409374Q125.6125 24.909374 125.6125 25.8625L125.6125 26.9875L127.8625 26.9875L127.8625 28.378124L125.6125 28.378124L125.6125 37.55L123.8 37.55ZM129.44063 32.175Q129.44063 30.6125 130.05 29.378124Q130.65938 28.128124 131.7375 27.45625Q132.83125 26.784374 134.2375 26.784374Q136.39375 26.784374 137.72188 28.284374Q139.06563 29.76875 139.06563 32.253124L139.06563 32.378124Q139.06563 33.925 138.47188 35.159374Q137.87813 36.378124 136.76875 37.065624Q135.675 37.753124 134.25313 37.753124Q132.1125 37.753124 130.76875 36.253124Q129.44063 34.753124 129.44063 32.3L129.44063 32.175ZM131.25313 32.378124Q131.25313 34.14375 132.06563 35.20625Q132.89375 36.26875 134.25313 36.26875Q135.62813 36.26875 136.44063 35.190624Q137.25313 34.1125 137.25313 32.175Q137.25313 30.425 136.425 29.346874Q135.59688 28.26875 134.2375 28.26875Q132.89375 28.26875 132.06563 29.33125Q131.25313 30.39375 131.25313 32.378124ZM146.01875 28.596874Q145.6125 28.534374 145.14375 28.534374Q143.3625 28.534374 142.72188 30.05L142.72188 37.55L140.925 37.55L140.925 26.9875L142.675 26.9875L142.70625 28.20625Q143.59688 26.784374 145.22188 26.784374Q145.75313 26.784374 146.01875 26.925L146.01875 28.596874ZM149.6125 26.9875L149.65938 28.159374Q150.83125 26.784374 152.8 26.784374Q155.01875 26.784374 155.81563 28.4875Q156.34688 27.721874 157.19063 27.253124Q158.03438 26.784374 159.19063 26.784374Q162.65938 26.784374 162.72188 30.471874L162.72188 37.55L160.90938 37.55L160.90938 30.58125Q160.90938 29.440624 160.39375 28.878124Q159.87813 28.315624 158.65938 28.315624Q157.65938 28.315624 156.9875 28.925Q156.33125 29.51875 156.22188 30.534374L156.22188 37.55L154.40938 37.55L154.40938 30.628124Q154.40938 28.315624 152.14375 28.315624Q150.3625 28.315624 149.72188 29.83125L149.72188 37.55L147.90938 37.55L147.90938 26.9875L149.6125 26.9875ZM176.675 37.55L174.84688 37.55L174.84688 25.503124L171.20625 26.846874L171.20625 25.20625L176.39375 23.26875L176.675 23.26875L176.675 37.55ZM184.62813 23.33125L189.26875 34.925L193.925 23.33125L196.34688 23.33125L196.34688 37.55L194.47188 37.55L194.47188 32.01875L194.65938 26.034374L189.9875 37.55L188.55 37.55L183.89375 26.065624L184.08125 32.01875L184.08125 37.55L182.20625 37.55L182.20625 23.33125L184.62813 23.33125ZM203.47188 32.175Q203.47188 29.690624 204.6125 28.2375Q205.76875 26.784374 207.69063 26.784374Q209.56563 26.784374 210.64375 28.05L210.72188 26.9875L212.37813 26.9875L212.37813 41.6125L210.58125 41.6125L210.58125 36.565624Q209.4875 37.753124 207.675 37.753124Q205.75313 37.753124 204.6125 36.26875Q203.47188 34.76875 203.47188 32.3L203.47188 32.175ZM205.28438 32.378124Q205.28438 34.20625 206.05 35.2375Q206.81563 36.26875 208.1125 36.26875Q209.72188 36.26875 210.58125 34.846874L210.58125 29.675Q209.72188 28.26875 208.14375 28.26875Q206.83125 28.26875 206.05 29.315624Q205.28438 30.346874 205.28438 32.378124ZM221.44063 36.503124Q220.39375 37.753124 218.34688 37.753124Q216.65938 37.753124 215.76875 36.76875Q214.89375 35.784374 214.87813 33.8625L214.87813 26.9875L216.69063 26.9875L216.69063 33.815624Q216.69063 36.20625 218.64375 36.20625Q220.70625 36.20625 221.39375 34.675L221.39375 26.9875L223.20625 26.9875L223.20625 37.55L221.4875 37.55L221.44063 36.503124ZM230.3 37.753124Q228.15938 37.753124 226.8 36.346874Q225.45625 34.925 225.45625 32.565624L225.45625 32.221874Q225.45625 30.659374 226.05 29.425Q226.65938 28.190624 227.7375 27.4875Q228.81563 26.784374 230.08125 26.784374Q232.14375 26.784374 233.28438 28.14375Q234.425 29.503124 234.425 32.034374L234.425 32.784374L227.26875 32.784374Q227.3 34.346874 228.175 35.315624Q229.05 36.26875 230.39375 36.26875Q231.3625 36.26875 232.01875 35.878124Q232.69063 35.4875 233.19063 34.846874L234.28438 35.70625Q232.95625 37.753124 230.3 37.753124ZM230.08125 28.26875Q228.9875 28.26875 228.2375 29.065624Q227.50313 29.8625 227.33125 31.3L232.6125 31.3L232.6125 31.159374Q232.53438 29.784374 231.8625 29.034374Q231.20625 28.26875 230.08125 28.26875ZM242.01875 28.596874Q241.6125 28.534374 241.14375 28.534374Q239.3625 28.534374 238.72188 30.05L238.72188 37.55L236.925 37.55L236.925 26.9875L238.675 26.9875L238.70625 28.20625Q239.59688 26.784374 241.22188 26.784374Q241.75313 26.784374 242.01875 26.925L242.01875 28.596874ZM245.87813 37.55L244.08125 37.55L244.08125 26.9875L245.87813 26.9875L245.87813 37.55ZM243.925 24.175Q243.925 23.7375 244.19063 23.440624Q244.47188 23.128124 244.9875 23.128124Q245.51875 23.128124 245.78438 23.440624Q246.06563 23.7375 246.06563 24.175Q246.06563 24.6125 245.78438 24.909374Q245.51875 25.20625 244.9875 25.20625Q244.47188 25.20625 244.19063 24.909374Q243.925 24.6125 243.925 24.175ZM253.3 37.753124Q251.15938 37.753124 249.8 36.346874Q248.45625 34.925 248.45625 32.565624L248.45625 32.221874Q248.45625 30.659374 249.05 29.425Q249.65938 28.190624 250.7375 27.4875Q251.81563 26.784374 253.08125 26.784374Q255.14375 26.784374 256.28436 28.14375Q257.425 29.503124 257.425 32.034374L257.425 32.784374L250.26875 32.784374Q250.3 34.346874 251.175 35.315624Q252.05 36.26875 253.39375 36.26875Q254.3625 36.26875 255.01875 35.878124Q255.69063 35.4875 256.1906 34.846874L257.28436 35.70625Q255.95625 37.753124 253.3 37.753124ZM253.08125 28.26875Q251.9875 28.26875 251.2375 29.065624Q250.50313 29.8625 250.33125 31.3L255.6125 31.3L255.6125 31.159374Q255.53438 29.784374 254.8625 29.034374Q254.20625 28.26875 253.08125 28.26875ZM266.0656 34.753124Q266.0656 34.01875 265.51874 33.6125Q264.97186 33.20625 263.59686 32.909374Q262.22186 32.6125 261.40936 32.20625Q260.6125 31.8 260.22186 31.2375Q259.84686 30.659374 259.84686 29.878124Q259.84686 28.58125 260.9406 27.690624Q262.03436 26.784374 263.7531 26.784374Q265.55 26.784374 266.65936 27.721874Q267.78436 28.64375 267.78436 30.08125L265.95624 30.08125Q265.95624 29.346874 265.33124 28.815624Q264.70624 28.26875 263.7531 28.26875Q262.7531 28.26875 262.1906 28.70625Q261.64374 29.128124 261.64374 29.83125Q261.64374 30.471874 262.15936 30.815624Q262.675 31.14375 264.03436 31.45625Q265.39374 31.753124 266.22186 32.175Q267.0656 32.58125 267.47186 33.175Q267.8781 33.76875 267.8781 34.6125Q267.8781 36.034374 266.7375 36.89375Q265.6125 37.753124 263.8 37.753124Q262.53436 37.753124 261.55 37.3Q260.58124 36.846874 260.01874 36.05Q259.47186 35.2375 259.47186 34.3L261.28436 34.3Q261.33124 35.20625 262.0031 35.7375Q262.6906 36.26875 263.8 36.26875Q264.83124 36.26875 265.4406 35.8625Q266.0656 35.440624 266.0656 34.753124ZM274.84686 31.784374Q274.84686 29.565624 275.4406 27.534374Q276.03436 25.503124 277.20624 23.846874Q278.3781 22.190624 279.6281 21.503124L280.0031 22.690624Q278.58124 23.784374 277.65936 26.034374Q276.7531 28.284374 276.65936 31.065624L276.65936 31.89375Q276.65936 35.659374 278.03436 38.440624Q278.8625 40.096874 280.0031 41.034374L279.6281 42.14375Q278.33124 41.425 277.15936 39.721874Q274.84686 36.39375 274.84686 31.784374ZM284.20624 37.55L282.33124 37.55L282.33124 23.33125L284.20624 23.33125L284.20624 37.55ZM289.08124 31.9875L289.08124 37.55L287.20624 37.55L287.20624 23.33125L292.4406 23.33125Q294.78436 23.33125 296.09686 24.51875Q297.425 25.70625 297.425 27.675Q297.425 29.753124 296.1281 30.878124Q294.83124 31.9875 292.425 31.9875L289.08124 31.9875ZM289.08124 30.45625L292.4406 30.45625Q293.95624 30.45625 294.7531 29.753124Q295.55 29.034374 295.55 27.690624Q295.55 26.425 294.7531 25.675Q293.95624 24.909374 292.55 24.878124L289.08124 24.878124L289.08124 30.45625ZM303.40936 35.096874L306.01874 26.9875L307.8625 26.9875L304.08124 37.55L302.70624 37.55L298.8781 26.9875L300.72186 26.9875L303.40936 35.096874ZM316.8156 23.315624L316.8156 24.846874L316.4875 24.846874Q314.3781 24.89375 313.1281 26.1125Q311.8781 27.315624 311.6906 29.51875Q312.8156 28.221874 314.7531 28.221874Q316.6125 28.221874 317.72186 29.534374Q318.83124 30.846874 318.83124 32.909374Q318.83124 35.1125 317.6281 36.440624Q316.425 37.753124 314.425 37.753124Q312.3781 37.753124 311.1125 36.190624Q309.84686 34.6125 309.84686 32.14375L309.84686 31.440624Q309.84686 27.51875 311.51874 25.440624Q313.1906 23.3625 316.5031 23.315624L316.8156 23.315624ZM314.45624 29.721874Q313.51874 29.721874 312.7375 30.284374Q311.95624 30.846874 311.65936 31.675L311.65936 32.346874Q311.65936 34.096874 312.4406 35.175Q313.2375 36.253124 314.425 36.253124Q315.64374 36.253124 316.33124 35.3625Q317.03436 34.45625 317.03436 33.003124Q317.03436 31.534374 316.33124 30.628124Q315.6281 29.721874 314.45624 29.721874ZM325.08124 31.878124Q325.08124 34.05 324.5031 36.05Q323.9406 38.05 322.76874 39.7375Q321.59686 41.425 320.3 42.14375L319.925 41.034374Q321.425 39.878124 322.33124 37.45625Q323.2531 35.034374 323.26874 32.065624L323.26874 31.753124Q323.26874 29.70625 322.83124 27.940624Q322.40936 26.175 321.64374 24.784374Q320.8781 23.39375 319.925 22.6125L320.3 21.503124Q321.59686 22.221874 322.7531 23.89375Q323.925 25.55 324.5031 27.565624Q325.08124 29.58125 325.08124 31.878124Z" fill-rule="nonzero"/></svg>