<?xml version="1.0" encoding="UTF-8" standalone="no"?>
<svg
   xmlns:dc="http://purl.org/dc/elements/1.1/"
   xmlns:cc="http://creativecommons.org/ns#"
   xmlns:rdf="http://www.w3.org/1999/02/22-rdf-syntax-ns#"
   xmlns:svg="http://www.w3.org/2000/svg"
   xmlns="http://www.w3.org/2000/svg"
   xmlns:sodipodi="http://sodipodi.sourceforge.net/DTD/sodipodi-0.dtd"
   xmlns:inkscape="http://www.inkscape.org/namespaces/inkscape"
   id="Layer_1"
   data-name="Layer 1"
   viewBox="0 0 216 216"
   version="1.1"
   sodipodi:docname="waflz_red.svg"
   inkscape:version="1.0 (4035a4fb49, 2020-05-01)">
  <metadata
     id="metadata933">
    <rdf:RDF>
      <cc:Work
         rdf:about="">
        <dc:format>image/svg+xml</dc:format>
        <dc:type
           rdf:resource="http://purl.org/dc/dcmitype/StillImage" />
        <dc:title>WAFLZ_Red</dc:title>
      </cc:Work>
    </rdf:RDF>
  </metadata>
  <defs
     id="defs931" />
  <sodipodi:namedview
     inkscape:document-rotation="0"
     pagecolor="#ffffff"
     bordercolor="#666666"
     borderopacity="1"
     objecttolerance="10"
     gridtolerance="10"
     guidetolerance="10"
     inkscape:pageopacity="0"
     inkscape:pageshadow="2"
     inkscape:window-width="2558"
     inkscape:window-height="1419"
     id="namedview929"
     showgrid="false"
     inkscape:zoom="5.6851852"
     inkscape:cx="108.15065"
     inkscape:cy="108.02547"
     inkscape:window-x="0"
     inkscape:window-y="19"
     inkscape:window-maximized="0"
     inkscape:current-layer="Layer_1" />
  <title
     id="title902">WAFLZ_Red</title>
  <path
     d="M54.63,91.83c-3.62,0-6.56,3.26-6.56,7.29s2.94,7.3,6.56,7.3,6.57-3.27,6.57-7.3S58.26,91.83,54.63,91.83Z"
     id="path904"
     style="fill:#d52b1e;fill-opacity:1" />
  <path
     d="M77.36,102.77a12.43,12.43,0,0,1-.89-4.13,67.85,67.85,0,0,1-8.68.14c-1,0-2,0-3,0a12.33,12.33,0,0,1-1.12,4.53l1.43-.12C69.16,102.86,73.26,102.76,77.36,102.77Z"
     id="path906"
     style="fill:#d52b1e;fill-opacity:1" />
  <path
     d="M86.73,91.83c-3.62,0-6.56,3.26-6.56,7.29s2.94,7.3,6.56,7.3,6.57-3.27,6.57-7.3S90.36,91.83,86.73,91.83Z"
     id="path908"
     style="fill:#d52b1e;fill-opacity:1" />
  <path
     d="M78.11,112.79a1.32,1.32,0,0,0-1.81.47,8.7,8.7,0,0,1-.87,1.51l-.11.13-.27.31a7.82,7.82,0,0,1-.6.55h0l0,0-.12.09c-.11.09-.23.17-.35.25a5.76,5.76,0,0,1-.69.38l-.32.15c.38-.21,0,0-.11,0q-.39.14-.78.24l-.7.13c.47-.1,0,0-.14,0l-.42,0a5.46,5.46,0,0,1-.7,0c-.11,0-.22,0-.33,0l-.23,0c-.23,0-.46-.1-.68-.16l-.38-.12c-.12,0-.57-.28-.18-.07a10.35,10.35,0,0,1-1.33-.76l-.15-.11c.35.23.06,0,0,0l-.32-.29a7.57,7.57,0,0,1-.61-.66l-.12-.17c-.09-.13-.17-.26-.25-.39a8.31,8.31,0,0,1-.48-.94,1.34,1.34,0,0,0-1.82-.47,1.36,1.36,0,0,0-.47,1.81,8.57,8.57,0,0,0,5.76,4.83,8.78,8.78,0,0,0,7.16-1.32,8.61,8.61,0,0,0,2.87-3.51A1.36,1.36,0,0,0,78.11,112.79Z"
     id="path910"
     style="fill:#d52b1e;fill-opacity:1" />
  <path
     d="M74.44,115.77c-.2.13-.08.06,0,0Z"
     id="path912"
     style="fill:#d52b1e;fill-opacity:1" />
  <ellipse
     cx="158.23"
     cy="57.14"
     rx="7.44"
     ry="8.27"
     id="ellipse914"
     style="fill:#d52b1e;fill-opacity:1" />
  <ellipse
     cx="187.09"
     cy="57.56"
     rx="7.44"
     ry="8.27"
     id="ellipse916"
     style="fill:#d52b1e;fill-opacity:1" />
  <path
     d="M175.89,60a14.75,14.75,0,0,1-.45-3.55,14.16,14.16,0,0,1,.41-3.35q-3.19-.31-6.39-.36a14.35,14.35,0,0,1,.4,3.31,14.11,14.11,0,0,1-.45,3.53Q172.67,59.59,175.89,60Z"
     id="path918"
     style="fill:#d52b1e;fill-opacity:1" />
  <path
     d="M198.24,123.57c-3.54-2.71-8.07-2.42-12.31-2.41-4.51,0-9,.25-13.49.67a50.5,50.5,0,0,1,5-5.86,15.81,15.81,0,0,0,2.65.65,16.39,16.39,0,0,0,2.53.19c4.3,0,10.25-1.57,17.39-7.45a2.35,2.35,0,0,0,1.15,0,2.65,2.65,0,0,0,1.58-1.22,2.34,2.34,0,0,0,.27-1.81A2,2,0,0,0,201.7,105a2,2,0,0,0-2.16.51,1.4,1.4,0,0,0-.16-.1,1.06,1.06,0,0,0-1.24.57c-.36.75.13,1.53.54,2.15l0,.06v0c-8.92,7.28-15.73,7.6-20,6.45,1.21-1.26,2.38-2.49,3.39-3.71a161.1,161.1,0,0,0,10.49-14c4.82-7.33,12.12-18.13,11.64-27.36-.23-4.56-2.61-7.67-5.89-9.9a13.35,13.35,0,0,1-3.1,6,6.65,6.65,0,0,1,1.36,1.6c1.69,2.94.23,6.08-.86,8.93-3.73,9.75-9.58,18.68-16,26.85-5.38,6.81-14,13.38-16.35,22-.54,1.94,1,4.64,3.31,4.35,5-.62,10-1,15-1.21,4.75-.15,11.35-1.42,14.37,3.16,8.08,12.27-8.66,16.28-17.61,17.8a118.51,118.51,0,0,1-28.85.79c-5.19-.42-9.46-1.74-11.89-6.77-2.28-4.71-1.51-9.92.5-14.59,3.91-9.07,12.16-16,18.65-23.17,3.47-3.86,6.93-7.75,10.22-11.76,2.08-2.55,4.17-5.24,4.36-8.67,0-.2,0-.38,0-.57a13.72,13.72,0,0,1-8-7.36,5,5,0,0,1-.24-.71,22.15,22.15,0,0,0-4-.22c-4.16.15-13.5,2.06-15.74-2.4-.75-1.48-.14-6.09.22-7.31a5.72,5.72,0,0,1,4.27-4.27A14.11,14.11,0,0,1,146.57,56c0-.23,0-.45,0-.68-7.13,2.23-10.14,7.41-10.15,15.21,0,8.62,3.33,12,11.92,12.49,2.52.13,5,.13,7.57,0,1.24,0,4.91-.89,6.19-.22,4.58,2.41-1.24,7.37-2.85,9.25-1.77,2.07-3.56,4.11-5.37,6.15-18.9.45-26.52,14.08-29,20.24-1.32-4.69-4.73-12.3-13.21-16.1q-.27-13-.75-25.94a6.88,6.88,0,0,0-.8-3.59c-1.08-1.62-3.21-1.81-5.06-1.83-18.91-.26-37.8.11-56.65,1.53q-6.09.45-12.16,1.06a8.56,8.56,0,0,0-3.88,1c-3.79,2.45-2.73,9-2.6,12.92q.36,10.65.6,21.3l-.13,0h0c-.39-.06-.78-.12-1.17-.2a22.67,22.67,0,0,1-2.29-.6l-1.12-.4-.26-.11-.16-.06h0l-.1,0-.13-.06-.28-.13a21.63,21.63,0,0,1-4.09-2.43l-.14-.1h0l-.22-.17-.46-.38c-.3-.26-.6-.52-.89-.8a22.08,22.08,0,0,1-1.63-1.72l-.43-.53,0,0-.09-.11-.2-.28c-.26-.35-.51-.72-.75-1.09a17.93,17.93,0,0,1-1-1.77,2.39,2.39,0,0,0,.56-1.15,2.63,2.63,0,0,0-.4-2,2.42,2.42,0,0,0-1.51-1,2,2,0,0,0-1.79.58A2.2,2.2,0,0,0,11.1,96a2,2,0,0,0,.1.41s-.11.06-.15.1a1.06,1.06,0,0,0,0,1.37c.52.65,1.43.54,2.17.45l.08,0h0l.07,0a20.8,20.8,0,0,0,5.86,7.3,22.57,22.57,0,0,0,8.9,4.35,20.29,20.29,0,0,0,2.31.4c.06,2.6.13,5.2.18,7.8.06,2.42.05,4.87,0,7.34.07,7.91-.58,15.8,1.54,23.66.65,2.43,2.58,4.66,5.08,4.85,7.67.61,15.29.48,22.91.34a64.27,64.27,0,0,0,.91,8.29c0,.25.07.51.11.77a4.07,4.07,0,0,0-4.88.61,1.21,1.21,0,0,0-.18,1.48c1.17,1.89,3.78,1.85,5.6,1.11l.7-.26a.68.68,0,0,0,.22-.09.85.85,0,0,0,.25-.25.73.73,0,0,0,.12-.56s0,0,0,0v0c-.22-1.74-.5-3.48-.75-5.21l-.09-.6c0-.1,0-.2,0-.3l0-.1s0-.14,0-.15c-.06-.42-.11-.84-.16-1.27-.09-.84-.17-1.67-.21-2.51,0-.31,0-.62,0-.92,4-.08,8-.15,12-.11,2.1,0,4.2,0,6.31-.07,0,1.1-.09,2.21-.21,3.31,0,.43-.09.85-.15,1.27l0,.3,0,.14v0l-.09.68c-.12.83-.25,1.67-.38,2.5-.15,1-.29,2-.42,3,0,0,0,0,0,0a.77.77,0,0,0,.35.84l.12,0,.07,0c2,.86,5.29,1.36,6.35-1a1.29,1.29,0,0,0-.08-.77A3,3,0,0,0,83.38,163a4,4,0,0,0-2.81.4l.06-.43c.13-.85.26-1.69.38-2.54.25-1.73.47-3.46.56-5.19,0-.39,0-.77,0-1.15,4.22-.12,8.43-.33,12.65-.54l7.9-.41c2.92-.15,6.5-.42,8.51-2.84,3.08-3.7,1.41-12.23,1.38-16.62q0-14.7-.29-29.41c8.42,4.18,11.12,12.51,11.93,16.32a2.75,2.75,0,0,0-1.32,1.65,2.91,2.91,0,0,0,.73,2.76,2.09,2.09,0,0,0,3,.11,3,3,0,0,0,.68-3.06,2.19,2.19,0,0,0-.87-1.23,32.54,32.54,0,0,1,5.63-10.36c5.2-6.4,12.18-9.9,20.81-10.47-6.64,7.25-14.41,14.17-19.09,22.88-3.82,7.11-5.43,15.76-1.76,23.28,3.77,7.7,10.87,10.16,18.94,10.59l1,.05c.18,2,.48,3.91.77,5.85l.12.77a4.07,4.07,0,0,0-4.88.61,1.21,1.21,0,0,0-.19,1.48c1.17,1.89,3.79,1.85,5.6,1.11l.7-.26a.6.6,0,0,0,.22-.09.75.75,0,0,0,.25-.25.69.69,0,0,0,.12-.56s0,0,0,0,0,0,0,0c-.23-1.74-.51-3.48-.76-5.21l-.09-.6c0-.1,0-.2,0-.3l0-.15c0,.15,0-.09,0-.1-.06-.42-.11-.84-.16-1.27s0-.59-.07-.89a155.11,155.11,0,0,0,18-.11l-.06.7-.15,1.27c0,.1,0,.2,0,.3l0,.14v0c0,.23-.07.45-.1.68-.12.83-.25,1.67-.37,2.5-.15,1-.3,2-.43,3,0,0,0,0,0,0a.77.77,0,0,0,.36.84l.11,0,.07,0c2,.86,5.29,1.36,6.35-1a1.29,1.29,0,0,0-.08-.77,3,3,0,0,0-2.19-1.55,4,4,0,0,0-2.81.4c0-.14,0-.29.07-.43.12-.85.25-1.69.38-2.54.18-1.26.32-2.52.43-3.79,2.59-.22,5.17-.53,7.73-1,7.7-1.33,17.78-3.77,22.68-10.47S204.44,128.28,198.24,123.57ZM57.53,142a6.44,6.44,0,0,1-.42,2.93,1.53,1.53,0,0,1-1,.69c-5.82,1.39-11.52.81-17.26.69a2.42,2.42,0,0,1-1.23-.42,2.79,2.79,0,0,1-1-2.23c-.2-4.59-.31-9.13-.39-13.71,0-.66,0-1.47.58-1.85,1.27-.81,2.85-.43,4.27-.65q3.66-.25,7.33-.34c2.84.14,5.85-.52,8.58.29C57.8,132.1,57.45,137.11,57.53,142Zm23.34,3a1.62,1.62,0,0,1-1.27.62,47.12,47.12,0,0,1-17.83-.27,1.55,1.55,0,0,1-1-1.5,112.17,112.17,0,0,1-.39-15.75,1,1,0,0,1,.66-.81,23,23,0,0,1,4-.42q3.66-.25,7.32-.33t7.34,0a1.17,1.17,0,0,1,1.52,1.3c.12,3,.18,6,.24,9C81.45,139.53,82.14,142.5,80.87,145Zm24.61-1c-.18,1.08-.87,1.41-1.87,1.64-3.85.9-7.74.71-11.67.63a38.6,38.6,0,0,1-5.16-.23c-1.57-.25-2-1.61-2-3l-.21-5.95c-.06-2-.11-4-.11-6,0-1-.44-3.24.62-3.87a2.31,2.31,0,0,1,1-.25c1.05-.09,2.1-.18,3.15-.25,4.88-.34,9.77-.43,14.67-.37a1.18,1.18,0,0,1,1.52,1.3c.12,3,.18,6,.24,9A41.58,41.58,0,0,1,105.48,144Zm-1.59-41.33a1.55,1.55,0,0,1,1.31.44,1.57,1.57,0,0,1,.21.86c.12,3,.18,6,.24,9a41.63,41.63,0,0,1-.17,7.32c-.18,1.08-.87,1.41-1.87,1.64-3.85.89-7.74.71-11.67.63a42.25,42.25,0,0,1-5.16-.23c-1.57-.24-2-1.61-2-3-.11-3.35-.25-6.71-.3-10.06a9.86,9.86,0,0,1-3.1-1.4q.07,2.63.12,5.25a41.63,41.63,0,0,1-.16,7.32c-.18,1.08-.87,1.41-1.87,1.64-3.86.89-7.75.71-11.67.63a42.5,42.5,0,0,1-5.17-.23c-1.57-.24-2-1.6-2-3-.13-4-.31-7.94-.31-11.91v0A9.9,9.9,0,0,1,57.4,109c0,1.55.08,3.09.11,4.64a41.49,41.49,0,0,1-.17,7.31c-.18,1.09-.87,1.41-1.87,1.65-3.85.89-7.75.7-11.67.62a40.34,40.34,0,0,1-5.16-.22c-1.58-.24-2-1.61-2-3-.12-4-.31-7.94-.31-11.91,0-1-.44-3.25.62-3.88a2.27,2.27,0,0,1,1-.24c1-.1,2.1-.19,3.15-.26,1.46-.1,2.92-.17,4.38-.23a12.48,12.48,0,0,1-1.16-4.12h-.5a42.25,42.25,0,0,1-5.16-.23c-1.58-.24-2-1.61-2-3-.12-4-.31-7.94-.31-11.91,0-1-.44-3.25.62-3.88a2.27,2.27,0,0,1,1-.24c1-.1,2.1-.19,3.15-.26,4.88-.34,9.77-.43,14.67-.37a1.17,1.17,0,0,1,1.51,1.31c.09,2.11.14,4.22.19,6.34a9.87,9.87,0,0,1,2.93,1.57c-.05-1.67-.08-3.35-.08-5,0-1-.44-3.24.61-3.87a2.32,2.32,0,0,1,1-.25c1-.1,2.1-.18,3.15-.25,4.88-.34,9.77-.43,14.66-.37a1.17,1.17,0,0,1,1.52,1.3c.11,2.69.17,5.39.22,8.08a9.81,9.81,0,0,1,3-1.34c0-1.15,0-2.3,0-3.45,0-1-.44-3.24.62-3.88a2.45,2.45,0,0,1,1-.24c1.05-.1,2.1-.18,3.15-.26,4.88-.34,9.77-.43,14.67-.36a1.55,1.55,0,0,1,1.31.44,1.57,1.57,0,0,1,.21.86c.12,3,.18,6,.24,9a41.63,41.63,0,0,1-.17,7.32c-.18,1.08-.87,1.41-1.87,1.64a31,31,0,0,1-6.63.69,12.66,12.66,0,0,1-.84,4C98.72,102.61,101.3,102.59,103.89,102.63Zm66.8,56.56s0-.06,0,0Z"
     id="path920"
     style="fill:#d52b1e;fill-opacity:1" />
  <path
     d="M167.51,75.05a9.27,9.27,0,0,0,.45.89h0a11.36,11.36,0,0,0,3.68,4,12,12,0,0,0,1.35.76h0a11.34,11.34,0,0,0,2.2.8h0a11.78,11.78,0,0,0,1.32.24l.44,0c.3,0,.61,0,.91.06s.68,0,1,0h0c.37,0,.74-.08,1.1-.14l.31-.06c.29-.06.58-.12.87-.2l.24-.07a10,10,0,0,0,1.05-.36l.22-.1c.27-.12.54-.25.8-.39l.28-.15c.32-.19.64-.38.94-.6a13.93,13.93,0,0,0,1.18-1,11.4,11.4,0,0,0,2.65-3.7,2.55,2.55,0,0,0,.18-.67,2,2,0,0,0,0-.64,1.57,1.57,0,0,0-.16-.46,1.48,1.48,0,0,0-.64-.65,2.24,2.24,0,0,0-.39-.14l-.12,0a1.27,1.27,0,0,0-.34,0H187a1.84,1.84,0,0,0-.41,0l-.07,0a2,2,0,0,0-.32.11l-.11.06a1.3,1.3,0,0,0-.23.18l-.09.08a1.25,1.25,0,0,0-.23.35h0l0,.06a9.77,9.77,0,0,1-.49,1c0,.1-.12.18-.17.27-.14.24-.29.47-.45.7v0h0l.05-.06h0v0l0,0h0l-.05.06h0l0,0h0s0,0,.06-.08v0h0l-.15.17c-.12.14-.24.28-.37.41a9.22,9.22,0,0,1-.79.74h0l.05,0h0l-.15.12-.48.32a9.23,9.23,0,0,1-.91.52l-.15.07-.29.13.1,0,.06,0,0,0,0,0h0l0,0h0l-.09,0h0l-.09,0h0l-.1,0c-.22.08-.46.15-.69.21l-.34.11c-.31.07-.62.11-.93.17l.2,0h-.38l-.56,0H178c-.23,0-.47,0-.7,0l-.44,0h0l-.25,0h0c-.21,0-.41-.1-.61-.15l-.31-.08-.25-.08-.24-.08a.3.3,0,0,1-.11,0l0,0-.11,0h0l-.08,0h0l0,0h0l0,0h0l.16.08-.46-.24a11.16,11.16,0,0,1-1.33-.77l-.19-.15.19.13,0,0-.08-.06h0l-.06,0h0s-.05,0-.06,0l-.22-.19-.22-.2a10.84,10.84,0,0,1-.8-.87h0v0l.06.08h0l0,0h0l0,0,0,0,0,0v0l0,0h0a.23.23,0,0,1,.06.06h0l-.17-.22-.34-.53a11.17,11.17,0,0,1-.64-1.24,1,1,0,0,0-.23-.34l-.09-.08a1.55,1.55,0,0,0-.24-.19l-.11-.06a1.64,1.64,0,0,0-.39-.14h0a2.84,2.84,0,0,0-.42,0h-.12a1.55,1.55,0,0,0-.31,0l-.12,0a1.53,1.53,0,0,0-.37.16A1.73,1.73,0,0,0,167.3,74,2.21,2.21,0,0,0,167.51,75.05Z"
     id="path922"
     style="fill:#d52b1e;fill-opacity:1" />
  <path
     d="M180.9,77.7l0,0h0l.06,0h0l.1-.07h0l-.09.07Z"
     id="path924"
     style="fill:#d52b1e;fill-opacity:1" />
  <polygon
     points="181.04 77.6 181.04 77.6 181.04 77.6 181.04 77.6"
     id="polygon926"
     style="fill:#d52b1e;fill-opacity:1" />
</svg>
